<?xml version="1.0" standalone="no"?>
<!DOCTYPE svg PUBLIC "-//W3C//DTD SVG 20010904//EN"
 "http://www.w3.org/TR/2001/REC-SVG-20010904/DTD/svg10.dtd">
<svg version="1.0" xmlns="http://www.w3.org/2000/svg"
 width="1200.000000pt" height="1548.000000pt" viewBox="0 0 1200.000000 1548.000000"
 preserveAspectRatio="xMidYMid meet">

<g transform="translate(0.000000,1548.000000) scale(0.100000,-0.100000)"
fill="#000000" stroke="none">
<path d="M2662 15261 c-4 -11 -24 -39 -44 -63 -21 -24 -59 -79 -85 -123 -43
-72 -51 -80 -81 -83 -18 -2 -36 -10 -39 -18 -3 -8 -13 -14 -24 -14 -10 0 -26
-12 -36 -26 -10 -15 -39 -50 -65 -78 -54 -59 -97 -145 -101 -202 -3 -36 3 -83
18 -129 4 -15 -1 -24 -22 -37 -47 -27 -83 -66 -83 -88 0 -11 -20 -46 -44 -77
-25 -33 -52 -84 -62 -118 -22 -70 -26 -197 -6 -216 16 -17 15 -44 -2 -58 -8
-7 -17 -25 -21 -40 -4 -19 -18 -33 -48 -48 -71 -35 -205 -151 -261 -226 -69
-93 -95 -142 -135 -252 -26 -72 -42 -100 -81 -140 -63 -64 -72 -88 -89 -230
-6 -54 -16 -81 -40 -115 -23 -33 -38 -75 -57 -160 -25 -112 -26 -121 -19 -333
l7 -218 -24 -37 c-13 -20 -23 -41 -23 -47 2 -11 9 -43 27 -112 13 -53 5 -84
-32 -126 -72 -82 -98 -183 -66 -258 12 -28 12 -38 -1 -73 -18 -51 -11 -113 22
-195 32 -78 32 -91 -2 -91 -23 0 -123 -50 -164 -83 -42 -32 -59 -80 -59 -162
l0 -81 -37 -13 c-21 -8 -61 -38 -89 -68 -45 -46 -58 -54 -96 -57 -66 -5 -153
-65 -203 -141 -39 -59 -75 -159 -75 -210 -1 -78 -79 -179 -145 -187 -37 -4
-46 -33 -13 -42 13 -3 40 -6 61 -6 35 0 37 -1 27 -21 -15 -28 -22 -56 -24
-105 -3 -50 -19 -74 -76 -107 -71 -41 -190 -177 -190 -218 0 -10 12 -26 27
-36 26 -17 27 -17 47 11 62 86 84 112 102 121 10 5 47 33 81 60 34 28 82 66
107 85 52 39 55 47 24 59 l-22 8 26 24 c14 13 43 38 66 56 29 24 44 46 57 85
34 105 57 140 128 193 69 52 150 85 205 85 27 0 32 -4 32 -24 0 -28 -25 -91
-50 -126 -26 -37 -60 -147 -60 -194 1 -23 9 -64 19 -93 12 -35 16 -70 13 -107
-7 -83 12 -146 59 -195 l40 -42 -6 -72 c-6 -70 -5 -73 29 -127 27 -40 36 -65
36 -96 0 -56 23 -109 60 -136 18 -13 34 -37 40 -58 13 -49 34 -75 53 -67 25
10 31 53 13 91 -9 19 -16 41 -16 49 0 8 -13 26 -29 39 -45 38 -62 72 -72 145
-6 42 -18 79 -31 98 -19 25 -22 43 -23 118 0 63 -4 90 -14 96 -10 7 -7 13 15
27 16 10 58 40 93 66 61 46 65 47 87 33 34 -22 50 -19 121 20 34 20 63 31 63
25 0 -5 8 -10 18 -10 37 0 93 -113 96 -196 1 -35 9 -59 24 -79 12 -15 27 -46
33 -69 6 -22 22 -56 35 -74 14 -17 23 -36 20 -41 -3 -5 3 -19 14 -31 26 -30
25 -48 -5 -93 -29 -42 -41 -46 -50 -17 -19 59 -108 -13 -188 -151 -24 -41 -30
-46 -61 -44 -18 1 -39 6 -46 10 -27 17 -52 -33 -181 -360 -17 -42 -21 -87 -28
-295 -4 -135 -8 -271 -8 -303 -1 -66 -7 -77 -29 -55 -13 13 -15 26 -8 70 11
61 0 254 -14 271 -6 7 -13 44 -17 82 -9 96 -25 170 -49 230 -34 82 -42 92 -63
79 -26 -16 -27 -39 -4 -113 11 -36 25 -109 31 -161 25 -228 31 -293 26 -297
-9 -10 -27 9 -87 98 -79 114 -209 247 -324 329 -107 76 -251 184 -284 214 -24
22 -96 127 -125 183 -23 45 -42 33 -50 -30 -13 -109 -8 -151 22 -193 52 -71
86 -101 207 -179 236 -153 261 -170 308 -214 26 -24 71 -76 99 -115 107 -147
278 -323 308 -318 12 2 21 -7 28 -28 6 -16 16 -30 21 -30 6 0 11 -8 11 -18 0
-10 5 -23 10 -28 8 -8 5 -51 -9 -140 -19 -124 -18 -178 4 -236 5 -12 -2 -23
-27 -38 -27 -18 -43 -20 -93 -16 -48 5 -68 2 -96 -13 l-36 -19 -104 104 c-57
58 -122 116 -145 129 -23 13 -117 49 -210 80 -110 37 -178 65 -195 81 -14 13
-30 24 -36 24 -20 0 -35 -29 -29 -55 9 -37 69 -71 182 -105 217 -66 230 -71
287 -115 31 -25 61 -54 67 -65 13 -24 13 -24 -40 -5 -28 10 -81 15 -159 15
-125 0 -183 12 -259 55 -51 28 -60 30 -85 11 -26 -20 -11 -43 46 -73 94 -47
129 -55 279 -63 137 -8 150 -11 201 -39 61 -34 77 -29 77 20 0 8 5 8 15 -1 25
-21 17 -38 -27 -54 -64 -22 -154 -30 -189 -15 -23 9 -33 9 -42 0 -17 -17 -35
-13 -42 9 -8 25 -27 26 -49 1 -17 -19 -17 -20 3 -38 29 -24 27 -30 -17 -43
-60 -20 -195 -93 -219 -119 -24 -25 -30 -56 -14 -65 5 -4 60 21 123 53 119 63
232 99 311 100 64 1 121 17 189 54 31 17 60 28 64 25 3 -4 0 -23 -7 -42 -11
-29 -11 -43 0 -72 11 -30 11 -38 -2 -52 -24 -28 -37 -59 -47 -114 -15 -75 -6
-104 42 -134 40 -25 40 -26 33 -74 -9 -63 -1 -85 36 -100 19 -8 35 -26 45 -49
18 -44 29 -51 80 -51 36 0 45 -5 68 -34 14 -19 36 -36 48 -38 37 -5 27 -23
-42 -77 -36 -29 -83 -66 -104 -84 -44 -35 -120 -93 -244 -185 -125 -93 -341
-215 -462 -262 -19 -8 -53 -26 -75 -40 -22 -15 -58 -31 -80 -36 -30 -7 -40
-15 -40 -29 0 -35 68 -36 140 -3 33 16 70 28 81 28 l22 0 -25 -67 c-57 -154
-115 -329 -132 -396 -11 -40 -35 -124 -56 -187 -55 -172 -78 -266 -72 -284 17
-43 67 -21 67 30 0 12 22 91 49 175 27 85 67 210 89 279 22 69 69 211 106 315
36 105 66 197 66 207 0 14 93 75 150 99 50 21 280 189 554 405 48 37 78 54 99
54 26 0 28 -3 23 -24 -3 -12 -8 -38 -11 -57 -3 -19 -11 -65 -17 -104 -10 -52
-13 -246 -13 -735 0 -366 -3 -670 -7 -676 -4 -6 -12 -48 -17 -95 -6 -46 -13
-100 -15 -119 -27 -209 -29 -280 -12 -344 19 -69 19 -81 -7 -256 -8 -58 -18
-199 -21 -315 -3 -115 -7 -219 -10 -230 -2 -11 -7 -58 -10 -105 -4 -47 -9
-105 -12 -130 -18 -169 -26 -252 -35 -374 -5 -76 -12 -142 -14 -146 -9 -15
-26 -334 -35 -640 -10 -374 -26 -609 -44 -675 -8 -27 -20 -70 -26 -95 -6 -25
-18 -56 -27 -68 -13 -21 -20 -23 -51 -17 -117 23 -158 -6 -202 -140 -22 -70
-41 -94 -120 -154 -41 -31 -74 -84 -92 -146 l-14 -50 -62 3 c-53 2 -68 -1
-117 -29 -56 -31 -138 -114 -132 -132 2 -6 25 -11 52 -11 44 -1 51 2 62 26 25
50 76 72 174 72 78 1 90 4 112 25 14 13 31 44 37 71 9 38 26 63 91 130 46 48
79 92 79 103 0 28 31 139 43 155 7 9 32 12 78 10 55 -2 72 2 90 18 29 25 89
119 89 138 0 9 9 30 20 48 13 21 20 51 20 83 0 28 4 87 10 132 5 46 12 170 15
275 15 506 55 1075 110 1600 8 75 15 211 15 302 0 118 6 198 20 283 24 144 25
194 3 255 -16 44 -15 57 12 305 29 262 37 533 25 888 -10 314 19 859 49 914 5
7 6 22 4 32 -4 12 1 21 13 25 11 4 33 20 50 36 l31 29 59 -66 c68 -76 145
-138 209 -165 41 -18 45 -22 44 -52 -1 -18 2 -55 6 -82 l8 -48 -34 7 c-83 16
-139 37 -202 75 -55 33 -71 39 -83 29 -36 -30 -6 -69 91 -117 87 -43 171 -57
377 -66 35 -2 90 -6 123 -11 l60 -7 12 31 c12 33 43 43 43 14 0 -10 -7 -40
-16 -68 -22 -70 -19 -127 12 -207 23 -61 25 -78 20 -146 -3 -42 -9 -122 -12
-177 l-6 -100 31 -34 c35 -39 37 -60 20 -188 -12 -84 -9 -107 24 -198 13 -35
13 -49 1 -105 -22 -105 -23 -238 0 -282 20 -41 19 -70 -4 -195 -13 -70 -13
-74 11 -130 22 -54 24 -68 21 -206 -3 -147 -3 -149 25 -195 27 -46 28 -52 33
-228 l5 -182 53 -55 c28 -31 52 -58 52 -62 0 -30 23 -202 30 -219 14 -38 67
-80 129 -104 42 -16 68 -34 82 -55 12 -18 33 -44 46 -58 22 -24 24 -30 14 -65
-7 -22 -14 -92 -18 -156 -5 -106 -8 -120 -30 -139 -12 -13 -23 -31 -23 -42 0
-11 -16 -58 -36 -104 -24 -55 -37 -102 -38 -136 -2 -50 -25 -102 -80 -181 -20
-29 -23 -63 -14 -196 4 -52 13 -82 47 -146 44 -86 60 -99 134 -110 23 -3 64
-12 92 -20 62 -18 195 -10 309 17 43 10 90 19 105 19 14 0 49 16 77 35 l51 36
18 86 c10 53 23 92 33 99 12 9 18 33 20 89 4 70 1 84 -33 167 -21 50 -38 104
-37 119 0 16 -3 29 -7 29 -4 0 -12 15 -19 33 -9 25 -9 40 0 64 13 35 -4 93
-28 93 -11 0 -14 19 -14 83 0 59 -6 102 -20 143 -27 75 -20 140 18 182 15 16
40 45 55 65 15 20 54 54 86 76 39 27 64 52 75 78 35 78 41 89 64 130 15 27 28
40 38 36 7 -3 24 -37 35 -77 26 -84 30 -200 11 -296 -17 -84 -42 -345 -42
-435 0 -38 7 -122 15 -185 48 -369 58 -476 73 -845 7 -145 12 -198 25 -221 18
-34 62 -56 96 -47 29 7 76 -30 94 -75 9 -22 29 -51 45 -67 l29 -27 1 -137 c0
-124 14 -243 42 -371 23 -99 12 -298 -25 -492 -16 -84 -11 -111 19 -102 35 10
40 21 53 102 43 284 47 411 19 627 -9 72 -19 149 -22 172 -3 22 -2 65 2 93 l7
52 59 -6 c79 -9 88 -14 88 -43 0 -21 3 -23 23 -17 12 4 33 15 47 26 24 19 24
19 32 -2 4 -11 18 -25 31 -31 13 -6 31 -26 40 -43 14 -30 20 -34 69 -39 29 -3
65 -3 78 0 33 7 95 84 128 158 l27 60 1 365 c0 246 5 392 14 448 12 82 10 129
-9 207 -56 217 -59 270 -26 410 26 114 23 221 -13 365 -43 175 -43 176 -31
319 7 89 7 206 -1 387 -6 142 -13 336 -15 429 -6 240 -13 339 -29 425 -8 41
-17 92 -20 112 -6 37 -10 54 -40 173 -24 93 -23 95 28 95 56 0 102 16 146 50
20 15 51 31 70 35 76 16 215 84 240 117 56 71 67 80 89 69 46 -25 76 -203 49
-295 -14 -48 -19 -52 -69 -60 -58 -9 -84 -52 -84 -141 0 -60 -4 -75 -27 -105
-43 -56 -71 -153 -72 -245 -1 -67 4 -91 28 -149 24 -55 27 -72 17 -85 -6 -9
-26 -45 -43 -80 -31 -63 -31 -64 -26 -186 6 -133 19 -175 77 -255 37 -52 38
-64 7 -132 -45 -98 -58 -163 -54 -256 4 -87 11 -110 47 -167 27 -42 25 -94 -6
-172 -25 -63 -27 -79 -27 -224 -1 -153 -1 -156 28 -209 26 -48 28 -57 20 -114
-4 -33 -8 -99 -8 -146 0 -100 24 -164 94 -243 l43 -48 -11 -72 c-6 -40 -17
-97 -23 -127 -14 -67 -6 -237 16 -335 18 -82 63 -206 81 -220 7 -5 18 -39 24
-75 7 -36 15 -80 20 -98 7 -27 3 -44 -26 -100 -32 -65 -44 -133 -26 -157 20
-29 68 -54 115 -60 44 -6 55 -12 72 -38 28 -44 72 -66 136 -69 45 -2 61 3 96
26 23 16 45 37 49 48 7 22 42 38 85 38 40 0 86 25 94 51 9 28 -2 84 -26 131
-10 20 -26 83 -34 140 -31 206 -44 250 -91 299 -22 23 -23 29 -13 52 9 21 9
35 -4 74 -18 55 -13 63 44 63 19 0 39 4 45 9 20 20 81 48 116 55 27 5 48 19
79 56 24 28 48 50 54 50 6 0 32 14 57 30 35 23 54 47 78 95 18 36 39 65 47 65
22 0 73 59 94 108 10 24 37 64 58 90 41 48 80 124 81 154 0 9 16 30 36 45 39
30 84 118 84 162 0 17 11 38 29 56 36 33 81 125 81 163 0 34 26 77 84 137 55
58 76 100 76 156 0 35 8 52 44 98 60 77 76 112 76 166 0 52 10 75 51 123 25
29 29 41 29 97 0 61 2 66 45 116 25 30 46 64 46 78 1 14 3 33 4 41 1 8 3 20 4
27 0 6 19 29 42 50 53 50 69 82 69 140 0 78 28 155 89 245 52 77 60 109 58
221 l-2 102 54 94 54 94 -12 88 c-14 95 -11 115 25 169 13 19 39 75 59 124
l36 89 -21 49 -21 49 27 56 c14 31 29 82 32 115 5 62 15 72 92 94 86 24 371
176 469 251 49 37 61 40 61 18 0 -8 4 -15 9 -15 5 0 12 -33 16 -73 6 -62 3
-89 -19 -168 -14 -52 -37 -126 -51 -164 -15 -39 -30 -81 -35 -95 -7 -23 -21
-56 -57 -140 -81 -188 -125 -333 -172 -568 -57 -284 -62 -360 -52 -762 2 -85
0 -193 -5 -240 -5 -47 -6 -301 -3 -565 6 -440 9 -497 33 -685 30 -233 33 -248
46 -310 19 -92 33 -333 35 -630 3 -275 16 -537 28 -557 3 -5 7 -140 8 -301 4
-252 2 -294 -11 -302 -11 -7 -2 -10 30 -9 39 0 104 16 74 18 -8 1 -12 69 -13
238 -1 131 -4 270 -7 308 -7 101 -24 279 -33 360 -4 39 -9 174 -10 300 -2 234
-19 484 -45 655 -44 295 -64 562 -71 945 -3 171 -8 344 -11 385 -3 50 0 97 10
140 9 36 16 85 16 110 1 118 91 260 255 400 158 135 270 234 290 257 50 56 83
-3 65 -120 -6 -39 -10 -144 -10 -232 0 -88 0 -186 -1 -218 0 -33 6 -65 12 -73
9 -11 9 -26 0 -67 -16 -64 -10 -219 8 -241 13 -15 12 -33 -5 -107 -4 -20 1
-32 24 -55 29 -29 29 -33 24 -102 -4 -61 -2 -76 14 -93 16 -18 17 -25 6 -65
-15 -56 -15 -131 -1 -140 8 -5 9 -30 5 -80 -5 -58 -3 -80 10 -105 12 -23 14
-45 10 -79 -5 -38 -2 -55 20 -95 21 -40 24 -57 19 -92 -6 -42 10 -89 41 -121
9 -9 14 -38 14 -84 0 -68 1 -72 35 -104 31 -29 35 -38 35 -83 0 -48 3 -54 65
-123 36 -40 79 -79 95 -86 35 -14 36 -19 14 -51 -12 -17 -15 -36 -11 -74 4
-37 2 -57 -8 -71 -18 -23 -20 -99 -4 -128 9 -16 7 -24 -10 -42 -11 -12 -26
-37 -32 -55 -10 -29 -9 -35 12 -58 21 -21 30 -24 68 -20 39 4 47 2 68 -24 29
-35 54 -36 100 -8 29 18 39 20 59 10 37 -16 50 -14 120 19 46 21 68 39 80 62
22 42 23 101 2 125 -13 14 -15 32 -11 91 5 66 4 75 -21 110 -14 21 -26 45 -26
54 0 30 39 108 54 108 8 0 25 15 37 33 12 17 46 57 75 87 70 72 108 155 101
218 -4 33 2 75 19 137 20 73 23 103 18 160 -5 58 -2 79 16 125 17 43 20 65 15
100 -12 75 -9 122 12 178 17 44 18 60 10 95 -6 23 -11 103 -11 177 -1 86 -6
149 -15 173 -11 34 -11 44 4 84 17 43 29 185 26 283 -1 25 -1 65 -1 90 1 40 1
110 1 240 -1 22 0 61 1 88 0 26 -1 56 -4 67 -3 11 3 42 13 69 15 43 15 54 4
87 -8 20 -11 39 -9 42 3 3 6 46 7 97 2 109 12 122 68 97 58 -27 191 -79 249
-97 254 -82 510 -245 761 -483 151 -145 183 -173 239 -213 65 -46 66 -47 105
-77 17 -13 73 -52 125 -87 52 -35 127 -94 167 -132 80 -77 106 -82 98 -20 -3
29 -16 48 -62 90 -32 30 -87 73 -123 97 -36 24 -96 67 -135 95 -38 27 -95 67
-125 89 -67 47 -257 215 -294 258 -43 51 -402 315 -471 346 -77 35 -415 167
-427 167 -4 0 -33 12 -65 26 -32 15 -71 26 -86 25 -27 -3 -28 -1 -22 33 4 20
1 59 -6 88 -15 62 -24 229 -19 338 2 30 0 83 -5 117 -6 48 -4 71 9 103 22 55
20 73 -10 122 -25 39 -26 44 -14 77 17 44 23 305 8 343 -7 20 -6 41 6 81 9 30
16 80 16 111 0 31 2 56 5 56 3 0 26 -11 51 -24 32 -17 58 -43 87 -87 36 -54
49 -65 91 -79 26 -9 67 -31 89 -50 23 -19 54 -41 70 -47 39 -17 107 -16 131 2
17 13 21 12 38 -10 14 -18 29 -25 54 -25 37 0 63 -11 154 -65 338 -201 484
-272 730 -356 223 -76 448 -133 645 -163 100 -15 107 -14 129 19 20 30 7 41
-54 48 -25 2 -83 12 -130 21 -47 9 -105 21 -130 25 -25 5 -72 17 -105 26 -33
9 -94 25 -135 35 -62 16 -280 89 -457 153 -53 20 -289 143 -373 196 -85 53
-202 117 -229 126 -29 9 -27 16 15 61 19 22 45 56 56 76 16 28 27 36 47 36 44
-1 69 19 122 100 28 42 59 86 69 97 22 24 39 63 55 130 l12 50 94 -2 c97 -1
181 -16 324 -55 44 -12 103 -22 132 -22 41 -1 60 -7 96 -33 l45 -31 54 14 c29
8 76 21 103 29 28 7 115 17 195 20 80 4 155 9 168 12 27 6 28 24 2 48 -17 16
-31 17 -107 10 -49 -4 -131 -10 -183 -15 -52 -4 -119 -14 -149 -23 l-53 -16
-49 32 c-56 37 -62 48 -49 83 16 40 12 74 -23 226 -19 79 -42 188 -52 243 -9
55 -21 116 -26 135 -5 19 -9 47 -9 62 0 15 -5 50 -11 78 -11 51 -33 66 -57 37
-9 -11 -4 -109 13 -212 15 -96 25 -147 34 -181 6 -22 13 -57 16 -79 4 -22 11
-56 16 -75 40 -139 50 -249 24 -270 -17 -14 -23 -13 -210 29 -101 23 -162 32
-220 31 -163 -3 -178 2 -189 65 -7 33 -41 69 -57 60 -13 -8 -59 14 -59 28 0 8
-17 30 -37 51 -21 20 -42 51 -48 69 -6 20 -22 38 -41 47 -17 8 -47 34 -68 57
-21 23 -46 45 -56 48 -16 5 -14 12 23 73 40 66 112 214 128 262 4 14 23 66 43
117 19 51 51 159 71 240 51 213 49 206 133 463 73 223 140 381 195 454 13 17
38 56 56 86 19 30 61 88 95 129 55 68 81 94 166 171 40 35 116 57 143 40 11
-7 41 -24 66 -38 69 -38 100 -60 166 -121 65 -60 130 -100 141 -88 5 4 0 31
-10 60 -14 40 -34 66 -85 114 -36 34 -88 76 -116 93 -161 101 -282 166 -389
209 -67 28 -161 69 -211 92 -184 85 -272 103 -316 63 -22 -20 -34 -13 -58 36
-18 37 -18 40 0 69 35 58 46 108 37 169 -8 49 -6 68 16 132 72 218 78 245 72
332 -5 86 -11 131 -22 185 -7 35 -8 34 94 54 49 9 68 18 88 42 23 27 25 37 20
78 -6 42 -4 48 18 62 46 30 66 92 64 197 -1 82 2 100 20 130 28 44 31 164 6
216 -15 32 -15 37 5 83 26 62 27 95 0 137 -17 28 -19 39 -10 71 17 61 13 90
-18 126 -28 31 -29 37 -24 95 l6 63 -47 44 c-27 27 -49 58 -53 75 -6 31 -63
90 -87 90 -8 0 -33 16 -56 35 -39 33 -47 35 -86 29 -38 -5 -48 -3 -75 20 -37
31 -37 31 -93 5 l-44 -22 -53 53 c-62 61 -96 78 -179 87 -54 5 -63 9 -78 36
-11 19 -36 38 -68 53 -49 22 -52 25 -64 76 -19 78 -32 100 -104 163 -36 31
-73 73 -83 93 -15 32 -27 40 -79 57 -34 11 -78 35 -98 52 -34 30 -49 37 -100
45 -11 2 -25 21 -37 52 -25 66 -71 111 -140 138 -32 12 -55 27 -52 32 3 5 0
14 -8 20 -8 6 -28 32 -44 59 -28 44 -63 69 -127 90 -9 3 -19 19 -23 35 -6 29
-87 137 -115 154 -11 7 -29 -4 -71 -44 -67 -63 -113 -148 -106 -194 4 -26 1
-33 -18 -42 -45 -21 -94 -74 -111 -120 -10 -26 -33 -64 -51 -85 -18 -20 -33
-48 -33 -61 0 -15 -12 -33 -35 -50 -55 -42 -69 -70 -67 -137 1 -59 1 -59 -35
-74 -20 -8 -44 -24 -53 -35 -10 -11 -22 -20 -27 -20 -6 0 -18 -9 -29 -21 -15
-17 -18 -34 -16 -85 2 -54 -2 -72 -23 -108 -15 -25 -25 -58 -25 -80 0 -25 -11
-57 -34 -94 -36 -60 -44 -95 -51 -233 -4 -70 -1 -95 16 -140 12 -30 27 -80 34
-112 7 -32 20 -66 29 -76 20 -22 20 -44 1 -81 -19 -36 -22 -155 -5 -207 7 -21
29 -60 48 -88 29 -41 36 -62 41 -116 5 -46 14 -78 32 -105 70 -109 88 -168
109 -364 8 -85 45 -221 82 -307 12 -28 66 -114 78 -123 4 -3 40 -48 82 -100
42 -52 104 -124 139 -160 97 -99 129 -140 157 -198 l25 -54 -39 -37 c-21 -20
-66 -66 -99 -102 l-60 -66 -70 -6 c-75 -6 -243 -47 -390 -94 -49 -17 -108 -35
-130 -42 -64 -20 -209 -136 -276 -222 -46 -58 -123 -196 -180 -324 -23 -49
-45 -94 -49 -99 -6 -5 -28 -2 -55 8 -62 24 -122 18 -376 -40 -22 -5 -28 -1
-39 25 -7 18 -24 41 -39 52 -23 19 -25 26 -23 85 3 57 0 71 -28 119 -17 30
-35 57 -41 60 -13 9 -11 25 3 25 28 0 185 109 253 175 6 5 34 49 63 96 71 118
132 317 132 430 0 90 -61 332 -104 414 -9 17 -16 34 -16 38 0 5 -13 22 -30 39
-19 18 -30 40 -30 57 0 38 -17 56 -73 76 -49 19 -141 100 -225 200 l-42 50
-19 -23 c-26 -30 -38 -124 -21 -171 7 -20 25 -57 41 -82 22 -35 29 -58 29 -95
0 -44 4 -53 30 -72 l30 -23 0 -119 c0 -68 -4 -121 -10 -125 -6 -3 -10 -15 -10
-25 0 -45 -44 -117 -113 -184 -147 -145 -222 -169 -308 -98 -79 67 -99 82
-152 115 -31 21 -60 37 -63 37 -4 0 -41 23 -83 52 l-76 52 -103 1 c-56 1 -128
-2 -160 -6 -31 -4 -86 -10 -122 -12 -36 -3 -74 -8 -86 -12 -23 -7 -89 7 -89
19 0 4 38 24 84 44 85 38 114 68 88 90 -7 6 -55 14 -107 19 -89 9 -93 10 -65
22 73 30 102 48 137 83 30 30 46 38 74 38 19 0 44 4 54 10 10 5 47 14 82 19
66 10 149 44 208 87 82 59 94 71 112 112 21 46 45 61 171 107 26 9 69 34 96
55 46 36 121 70 159 70 22 1 56 28 72 58 12 25 0 52 -25 52 -14 0 -25 22 -25
49 0 25 -28 47 -70 56 -19 4 -43 16 -53 26 -13 14 -32 19 -67 19 -42 0 -50 3
-50 19 0 52 -85 57 -192 10 -57 -25 -79 -30 -112 -25 -22 4 -45 11 -52 17 -7
5 -53 15 -103 21 l-91 11 6 76 c3 45 -1 128 -9 201 -9 69 -13 128 -11 132 3 5
-1 14 -8 22 -28 27 -43 -3 -44 -89 -1 -57 -9 -103 -28 -160 -15 -44 -29 -99
-33 -123 -3 -23 -9 -44 -13 -47 -4 -2 -43 -7 -88 -10 -81 -6 -82 -6 -82 18 0
13 -14 37 -34 56 -34 33 -37 33 -93 27 -50 -6 -60 -4 -75 13 -26 30 -82 37
-144 17 -29 -9 -56 -21 -60 -27 -7 -11 -66 50 -90 95 -19 33 -12 107 11 126
37 31 -6 100 -61 100 -13 0 -24 4 -24 9 0 14 -55 30 -71 20 -8 -5 -35 -9 -60
-9 -39 0 -48 -4 -68 -31 -21 -28 -22 -36 -12 -68 17 -59 18 -75 1 -102 -21
-36 -170 -195 -170 -182 0 12 -59 42 -125 65 -28 9 -92 13 -215 12 -233 -1
-266 -7 -291 -47 -11 -18 -18 -42 -16 -55 4 -19 -5 -29 -48 -56 -53 -34 -95
-79 -95 -101 0 -7 7 -18 15 -25 9 -8 13 -21 9 -32 -15 -47 78 -128 208 -182
113 -46 113 -46 -67 -180 -173 -128 -251 -236 -295 -403 -6 -24 -15 -43 -20
-43 -16 0 -31 79 -24 125 8 58 -1 105 -30 148 -13 19 -29 58 -35 88 -15 67
-80 199 -98 199 -22 0 -15 17 16 39 34 25 51 27 51 7 0 -8 9 -17 19 -21 11 -3
22 -14 25 -23 3 -9 27 -25 53 -36 27 -10 60 -27 76 -38 33 -23 47 -17 47 20 0
37 -9 46 -56 60 -51 15 -130 82 -121 103 4 8 16 28 26 44 27 42 26 52 -8 47
-21 -3 -33 2 -45 19 -12 17 -13 25 -4 30 9 6 8 13 -5 27 -9 10 -17 35 -17 55
0 35 -27 107 -40 107 -3 0 -21 13 -40 29 l-35 29 0 210 c0 198 -1 212 -21 239
l-21 28 33 65 c61 122 59 109 25 171 -41 74 -47 140 -26 254 20 103 22 108 67
156 43 45 63 125 48 181 -6 21 -15 40 -20 43 -14 9 5 43 52 91 64 67 75 154
32 262 -25 60 -26 68 -13 101 7 20 14 82 15 141 1 58 5 121 8 140 22 111 27
159 27 260 1 88 -3 115 -15 129 -12 14 -14 24 -6 51 7 25 6 48 -6 90 -9 30
-18 60 -20 67 -3 14 -57 8 -118 -14 -51 -17 -54 -17 -49 11 3 16 -2 33 -16 47
-21 23 -24 45 -12 89 9 33 -12 122 -38 159 -12 16 -37 36 -56 42 -28 11 -35
18 -35 40 0 15 -11 51 -24 80 -19 42 -24 70 -24 126 1 63 -2 75 -25 103 l-26
30 66 93 c70 98 107 171 119 232 7 37 6 38 -20 31 -32 -8 -51 1 -38 17 5 7 16
39 25 72 20 72 11 124 -27 164 -32 33 -33 67 -6 146 26 75 26 112 1 120 -26 8
-124 132 -184 233 -27 45 -55 82 -63 82 -7 0 -24 -4 -38 -10 -19 -7 -29 -6
-39 5 -27 26 -88 55 -117 55 -16 0 -45 8 -64 17 -35 16 -36 16 -72 -9 -20 -15
-42 -24 -49 -22 -6 3 -22 23 -34 44 -25 44 -38 50 -49 21z m49 -96 c46 -41 71
-44 89 -10 15 29 27 31 57 10 12 -9 40 -17 61 -19 25 -2 60 -17 93 -39 41 -28
57 -33 71 -26 24 13 31 8 64 -49 28 -48 109 -149 169 -213 l35 -35 -20 -52
c-11 -29 -20 -77 -20 -107 0 -49 4 -58 36 -91 31 -33 35 -41 29 -73 -3 -20
-19 -65 -36 -100 -16 -35 -29 -79 -29 -98 0 -34 1 -35 30 -29 17 3 30 1 30 -4
0 -14 -65 -135 -97 -179 -15 -23 -37 -44 -48 -47 -11 -4 -23 -12 -27 -18 -5
-8 -13 -8 -28 2 -11 6 -35 12 -53 12 -30 0 -34 3 -44 43 -7 23 -24 54 -38 69
-29 32 -31 38 -8 38 28 0 99 84 122 144 21 58 27 131 13 154 -5 7 -19 14 -31
17 -18 3 -21 1 -16 -13 17 -41 5 -144 -24 -203 -16 -33 -76 -50 -174 -51 -99
0 -139 14 -171 60 -21 31 -26 50 -26 99 0 34 5 74 10 89 10 26 2 43 -22 44
-11 0 -27 -60 -34 -126 -4 -35 -10 -64 -14 -64 -4 0 -21 18 -39 40 l-32 41 17
44 c15 42 15 46 0 70 -15 23 -15 28 -1 55 20 38 18 117 -3 156 -66 121 -71
133 -77 201 -7 71 -7 72 38 155 48 86 85 137 101 138 5 0 26 -16 47 -35z
m-254 -261 c23 -18 33 -33 33 -53 0 -15 11 -49 24 -77 13 -27 33 -73 45 -102
l22 -53 -23 -45 -22 -45 -62 7 c-59 6 -62 5 -58 -13 4 -14 21 -23 67 -33 68
-14 90 -26 80 -43 -3 -6 -10 -28 -13 -49 -7 -36 -3 -46 46 -120 30 -44 54 -86
55 -92 1 -6 1 -30 1 -53 -1 -38 1 -43 22 -43 35 0 53 26 37 52 -21 33 1 39 47
12 48 -29 52 -48 19 -97 -26 -38 -53 -114 -44 -123 12 -12 29 10 59 77 33 73
72 109 120 109 39 0 99 -59 118 -116 16 -48 18 -49 60 -52 47 -4 83 -23 117
-61 26 -31 28 -59 7 -126 l-15 -50 50 -45 c41 -37 50 -52 53 -84 3 -34 7 -40
38 -50 27 -9 40 -23 63 -66 27 -50 29 -61 24 -129 -5 -70 -4 -74 21 -97 15
-13 33 -24 40 -24 6 0 12 -7 12 -15 0 -12 11 -14 60 -8 l60 6 21 -48 c21 -47
22 -93 4 -137 -5 -13 -2 -18 10 -18 17 0 18 -12 12 -162 -4 -90 -9 -174 -11
-188 -25 -140 -28 -149 -58 -156 -36 -7 -61 13 -93 76 -27 54 -119 135 -173
154 -69 25 -160 29 -247 11 -155 -32 -200 -31 -316 6 -134 44 -224 45 -350 7
-106 -31 -179 -67 -179 -86 0 -8 6 -12 13 -9 225 100 344 116 482 66 115 -41
152 -46 240 -31 44 8 131 16 193 19 132 6 169 -5 240 -68 47 -41 129 -165 117
-177 -4 -4 -12 1 -19 11 -7 9 -20 17 -29 17 -10 0 -21 15 -28 40 -12 40 -29
51 -90 59 -3 1 -18 12 -34 25 -55 48 -155 58 -287 31 -40 -9 -89 -18 -108 -21
-19 -3 -40 -7 -47 -9 -6 -2 -35 8 -64 22 -35 18 -80 29 -138 36 -89 9 -138 2
-314 -47 -32 -9 -66 -16 -75 -17 -20 0 -101 -42 -160 -81 -29 -20 -44 -40 -57
-75 -42 -119 -77 -171 -144 -214 -17 -11 -22 -21 -18 -33 7 -18 28 -18 69 -1
31 13 35 -24 5 -48 -15 -13 -33 -46 -43 -80 -22 -70 -83 -136 -158 -172 -60
-29 -85 -22 -137 37 -32 37 -42 43 -104 53 -40 6 -70 16 -73 24 -4 11 7 13 56
7 53 -6 67 -4 109 18 70 35 102 63 84 75 -9 6 -26 0 -55 -20 -60 -42 -88 -47
-216 -33 -63 6 -130 9 -147 6 -28 -4 -33 -2 -33 16 0 31 11 52 26 52 8 0 14
-4 14 -10 0 -18 18 -10 23 10 3 11 12 20 20 20 7 0 24 -9 37 -20 28 -25 29
-25 55 0 l22 21 36 -21 c21 -12 44 -19 59 -16 12 3 42 8 64 10 75 7 124 52
149 136 34 117 54 138 109 115 17 -7 18 -5 11 21 -4 16 -9 73 -12 127 -5 106
-5 106 54 85 45 -16 53 -3 51 87 -3 92 1 98 55 79 23 -8 52 -21 64 -29 12 -8
25 -15 29 -15 4 0 4 32 2 70 l-5 70 26 0 c14 0 40 -8 57 -19 17 -10 40 -22 52
-25 20 -7 22 -4 22 25 0 18 10 45 24 63 13 17 26 41 30 54 12 38 69 25 113
-27 l22 -25 11 28 c5 15 10 38 10 52 0 26 77 109 111 119 45 14 100 -57 80
-102 -16 -36 -13 -41 9 -14 11 13 20 34 20 46 0 24 -76 115 -95 115 -27 -2
-122 -90 -142 -132 l-22 -46 -40 20 c-49 24 -94 21 -100 -7 -2 -11 -16 -38
-32 -59 -16 -22 -29 -46 -29 -53 0 -18 -13 -16 -52 6 -23 13 -45 17 -72 14
l-38 -5 6 -54 c7 -62 7 -62 -71 -37 -36 11 -56 14 -64 6 -5 -5 -10 -39 -11
-74 -1 -98 -2 -99 -53 -92 -33 4 -46 2 -50 -8 -9 -24 -10 -152 -2 -186 8 -30
7 -33 -15 -33 -29 0 -64 -52 -78 -117 -14 -61 -43 -107 -83 -131 -40 -25 -138
-24 -184 1 -30 16 -32 16 -54 -2 -21 -17 -25 -17 -47 -3 -18 12 -30 13 -56 5
l-33 -10 -8 182 c-9 244 2 357 47 473 11 29 29 58 39 65 14 10 18 29 20 86 4
123 32 206 74 217 32 8 55 36 61 73 3 17 16 56 30 86 13 31 24 61 24 68 0 26
103 169 168 234 46 46 91 79 137 102 109 53 125 67 125 108 0 25 9 45 30 70
37 41 37 61 4 110 -23 33 -25 45 -20 91 9 79 40 138 100 195 31 29 37 41 32
61 -5 21 0 28 36 48 37 20 45 30 55 73 11 41 10 53 -2 72 -22 32 -19 131 3
165 17 26 152 174 161 177 2 0 19 -10 38 -25z m6360 -1999 c15 -19 37 -58 48
-87 19 -48 25 -54 66 -68 66 -22 109 -72 109 -126 0 -30 18 -57 36 -53 5 1 16
0 24 -4 8 -3 31 -10 50 -17 61 -19 100 -64 120 -141 15 -57 25 -67 55 -61 42
8 72 -6 94 -43 18 -31 23 -34 46 -25 38 15 89 -14 126 -72 17 -26 38 -50 48
-53 9 -3 36 -24 58 -48 31 -31 46 -57 57 -99 21 -81 31 -95 85 -123 64 -32 84
-78 75 -169 -7 -67 0 -88 42 -139 13 -16 24 -40 24 -53 0 -17 18 -42 60 -81
41 -38 60 -64 60 -80 0 -13 7 -40 15 -61 15 -34 15 -38 -2 -49 -14 -11 -15
-18 -6 -43 8 -22 8 -32 -1 -39 -26 -21 -97 -33 -172 -29 -99 5 -151 29 -242
111 -62 55 -70 68 -104 156 -20 53 -42 104 -47 114 -10 16 -4 17 81 17 51 1
119 7 150 14 53 13 85 7 57 -10 -6 -3 -20 -26 -31 -50 -10 -24 -25 -44 -32
-44 -6 0 -27 -16 -46 -35 -19 -19 -42 -35 -51 -35 -25 0 -34 -19 -18 -36 32
-31 249 220 249 287 0 43 -19 45 -50 7 -38 -46 -96 -62 -222 -62 -93 0 -99 1
-126 27 -37 35 -56 36 -47 0 10 -43 -19 -11 -33 36 -7 21 -33 62 -58 89 -36
41 -52 51 -82 54 -32 3 -37 7 -40 30 -5 45 -25 53 -91 40 -83 -17 -227 -76
-288 -117 -29 -19 -40 -20 -102 -14 -44 5 -80 15 -98 28 -25 18 -36 19 -112
11 -46 -5 -112 -19 -145 -30 -77 -28 -204 -115 -226 -157 -9 -17 -24 -43 -34
-58 -9 -14 -16 -38 -14 -52 4 -35 -20 -41 -28 -7 -4 14 -4 67 -1 117 6 86 7
92 36 115 17 13 31 29 31 37 0 28 147 155 181 155 5 0 9 11 9 24 0 61 43 80
57 25 12 -44 27 -36 34 18 11 90 32 106 67 52 12 -19 22 -27 26 -20 9 14 -5
40 -38 70 -25 24 -26 24 -46 6 -11 -10 -20 -25 -20 -34 0 -9 -4 -22 -9 -30 -8
-13 -12 -13 -26 -1 -15 13 -20 11 -41 -13 -13 -16 -24 -34 -24 -41 0 -7 -18
-25 -41 -42 -22 -16 -53 -39 -69 -51 -36 -29 -36 -29 -44 8 -4 22 2 46 25 91
21 41 29 71 27 90 -4 21 0 32 11 35 27 10 51 35 51 53 0 20 19 30 60 30 29 0
60 22 60 43 0 7 -10 31 -22 53 -19 37 -20 45 -8 74 9 21 25 37 46 46 38 16 54
40 54 82 0 35 22 56 58 57 37 0 54 46 27 75 -17 19 -17 21 0 40 24 26 75 51
88 43 21 -13 35 27 30 90 -4 55 -2 66 21 100 14 21 26 41 26 44 0 10 32 43 41
43 5 0 21 -16 36 -35z m-6052 -318 l70 -24 -1 -134 c0 -74 -2 -183 -4 -243
l-3 -110 34 -28 c55 -46 87 -35 129 47 25 48 37 115 45 240 8 122 13 177 20
231 5 38 9 43 38 48 65 12 168 -34 217 -97 12 -15 36 -30 53 -35 32 -8 32 -8
35 -82 2 -41 7 -79 13 -86 20 -24 59 -180 59 -236 0 -32 -3 -58 -8 -58 -4 0
-24 11 -44 25 -50 34 -82 39 -168 26 -71 -11 -140 -48 -140 -74 0 -6 -9 -21
-21 -33 -42 -45 11 -60 82 -23 32 16 44 18 55 8 11 -9 14 -8 14 4 0 8 12 19
28 25 72 27 87 29 131 16 25 -7 48 -11 52 -9 9 6 20 -39 14 -57 -10 -28 -17
-76 -22 -140 -3 -38 -8 -68 -12 -68 -3 0 -15 17 -26 37 -28 53 -55 63 -167 63
-94 0 -123 10 -75 26 12 4 55 6 95 5 46 -2 78 2 87 9 8 7 22 9 31 6 14 -5 15
-4 5 8 -18 22 -202 21 -243 0 -57 -30 -159 -104 -143 -104 11 0 15 -5 11 -15
-10 -28 23 -28 78 -1 69 34 76 33 76 -9 0 -24 -5 -35 -15 -35 -8 0 -19 -9 -25
-20 -9 -17 -6 -20 32 -30 24 -6 56 -15 72 -20 29 -10 120 12 132 31 3 5 19 9
36 9 l31 0 -7 -129 c-10 -181 -31 -304 -77 -456 -22 -70 -55 -146 -69 -155 -4
-3 -21 -32 -38 -65 -16 -33 -50 -83 -74 -110 -109 -123 -125 -143 -153 -185
-64 -96 -140 -177 -185 -197 -92 -41 -381 9 -524 90 -22 13 -58 34 -79 46 -46
26 -77 20 -77 -14 0 -17 9 -29 28 -39 16 -8 35 -22 42 -31 25 -30 160 -114
227 -140 82 -33 154 -45 238 -39 47 3 67 1 69 -8 20 -71 32 -103 45 -116 24
-24 50 -88 57 -141 5 -41 2 -55 -20 -93 -14 -25 -26 -51 -26 -58 0 -37 -130
-154 -207 -187 -26 -10 -82 -17 -174 -21 l-135 -5 -90 38 c-115 48 -207 77
-265 81 -42 4 -54 11 -111 67 -79 78 -115 130 -153 222 -36 89 -46 101 -74 86
-32 -17 -26 -44 32 -155 42 -81 68 -117 134 -183 46 -46 90 -83 100 -83 9 0
44 -13 77 -29 65 -31 194 -72 287 -91 35 -7 104 -8 183 -5 124 7 129 6 152
-16 30 -28 57 -17 62 25 4 31 7 32 39 6 19 -15 30 -17 44 -9 23 12 24 27 2 51
-15 17 -15 20 0 35 14 14 21 15 43 4 33 -15 55 1 52 37 -2 19 4 29 27 42 22
12 30 24 30 44 0 28 38 56 78 56 24 0 57 -27 57 -47 0 -16 5 -16 55 2 66 24
75 21 75 -25 0 -22 9 -56 20 -77 11 -22 19 -57 18 -82 0 -24 5 -47 11 -51 9
-5 10 -25 6 -66 -5 -45 -2 -69 11 -99 17 -39 26 -95 43 -264 5 -46 13 -86 17
-90 5 -3 9 -36 9 -72 0 -36 6 -77 13 -91 9 -17 12 -46 9 -89 -24 -292 -26
-381 -12 -422 8 -23 15 -54 15 -69 0 -16 5 -28 10 -28 6 0 10 -28 10 -63 0
-111 21 -330 35 -364 12 -28 11 -38 -6 -84 -17 -44 -20 -77 -20 -213 0 -89 4
-199 9 -246 12 -112 8 -206 -13 -310 -10 -47 -19 -125 -20 -175 -2 -49 -7
-101 -13 -115 -6 -17 -5 -40 3 -75 16 -59 13 -286 -4 -328 -14 -36 -14 -98 0
-133 7 -21 6 -46 -5 -99 -20 -93 -22 -120 -13 -187 6 -44 5 -63 -7 -87 -19
-36 -20 -141 -3 -191 15 -41 14 -64 -3 -136 -10 -39 -10 -66 -3 -105 7 -32 7
-64 2 -83 -5 -17 -9 -52 -9 -78 0 -26 -11 -82 -25 -125 -29 -92 -31 -125 -8
-163 16 -27 16 -32 -2 -85 -19 -54 -19 -58 -2 -86 23 -40 22 -56 -8 -123 -29
-67 -31 -88 -8 -126 15 -27 15 -31 -2 -77 -12 -31 -18 -70 -17 -110 1 -44 -5
-75 -19 -109 -18 -39 -20 -58 -15 -113 5 -50 3 -76 -9 -104 -8 -20 -15 -56
-15 -79 0 -24 -12 -105 -26 -180 l-27 -137 -64 -70 -64 -71 -34 27 c-23 18
-35 38 -39 64 -3 20 -22 61 -42 90 -35 52 -36 56 -31 122 5 61 3 72 -24 124
-28 53 -30 63 -28 153 2 76 -1 102 -15 129 -15 28 -17 45 -10 85 10 65 10 165
-1 238 -6 44 -4 66 9 98 18 46 22 180 5 211 -6 11 -13 62 -16 112 -3 51 -9 94
-14 97 -4 3 -3 28 2 55 6 29 7 84 2 130 -9 101 -9 117 8 187 12 52 11 65 -8
135 -12 43 -26 108 -31 145 -6 37 -17 75 -26 84 -21 20 -10 40 12 22 14 -12
14 -10 3 11 -10 17 -11 45 -6 100 4 42 7 101 6 131 -1 30 -3 111 -4 180 -2
102 -5 131 -21 156 -18 30 -18 34 -2 79 20 60 20 79 1 99 -21 21 -45 140 -36
174 7 23 3 83 -12 208 -1 11 -14 35 -29 53 -32 37 -32 38 -17 113 11 53 10 57
-21 112 -32 56 -32 60 -20 104 23 88 24 149 2 177 -13 16 -22 48 -27 92 -13
134 -33 176 -86 188 -28 6 -29 9 -22 43 7 35 8 99 0 182 -1 20 -13 52 -25 71
-13 22 -22 52 -22 76 0 22 -12 76 -26 119 -15 46 -24 93 -22 114 4 33 -13 83
-33 95 -5 4 -9 40 -9 81 0 82 -17 128 -50 139 -31 10 -47 43 -61 118 -10 59
-17 75 -53 112 -69 71 -106 122 -112 155 -6 29 -27 40 -39 20 -15 -24 -25 -6
-25 43 0 28 -9 84 -20 122 -11 39 -20 74 -20 79 0 4 -15 5 -34 2 -32 -6 -35
-5 -41 26 -4 18 -17 49 -29 68 -12 19 -28 50 -35 68 -8 17 -17 32 -22 32 -5 0
-9 9 -9 20 0 10 -11 36 -25 56 -14 20 -30 55 -37 78 -6 23 -21 55 -33 71 -14
19 -24 51 -27 85 -5 53 -28 110 -70 178 -19 31 -20 35 -4 75 19 51 21 113 3
147 -16 32 -14 50 15 130 20 57 26 65 46 62 13 -2 31 3 41 12 9 8 26 13 37 10
15 -4 31 7 63 41 l43 47 -7 61 c-3 34 -11 69 -16 79 -14 27 -4 51 31 71 17 10
40 36 51 59 26 51 18 124 -18 179 -17 25 -23 48 -21 70 3 32 -13 50 -82 89
-10 6 -11 12 -3 22 5 7 15 28 22 47 9 29 8 41 -9 77 -37 76 -106 103 -157 60
l-30 -25 -26 27 c-42 44 -115 209 -122 277 -8 77 14 175 54 231 16 23 32 51
36 63 8 26 42 35 103 28 38 -4 52 -12 80 -44 18 -21 35 -50 39 -65 3 -16 9
-28 14 -28 5 0 9 -6 9 -13 0 -7 7 -23 16 -35 13 -18 19 -21 30 -11 23 19 25 6
8 -39 -9 -22 -13 -49 -10 -59 7 -16 11 -14 37 15 16 18 29 40 29 50 0 9 7 26
15 36 19 25 19 60 0 80 -21 20 -19 31 9 44 39 17 151 128 172 169 21 42 38 63
51 63 17 0 103 108 103 128 0 21 61 72 122 101 59 28 76 43 135 118 38 48 88
109 113 136 l45 50 80 -7 c44 -3 112 -16 150 -29z m246 -36 c-6 -11 -11 -53
-11 -93 -1 -123 -19 -316 -33 -350 -22 -51 -42 -64 -71 -44 -36 23 -41 80 -26
280 6 94 12 183 11 198 0 25 4 28 57 38 31 6 62 13 67 14 15 4 18 -20 6 -43z
m629 -125 c0 -19 -7 -50 -15 -69 -21 -51 -19 -75 9 -108 27 -32 42 -103 32
-145 -4 -15 -23 -41 -44 -58 -77 -66 -92 -84 -92 -113 0 -16 7 -38 15 -49 16
-22 19 -71 6 -106 -5 -13 -23 -31 -41 -42 l-32 -18 6 78 c11 157 17 192 37
197 12 3 19 14 19 30 0 13 11 40 25 60 13 20 21 38 17 41 -4 2 -5 35 -1 73 4
48 2 72 -7 82 -10 11 -8 24 7 69 20 59 14 87 -16 62 -13 -11 -15 -8 -15 17 0
27 3 29 29 25 16 -2 32 1 36 7 11 19 25 1 25 -33z m-2263 -433 c26 -56 20 -74
-12 -38 -13 14 -32 25 -43 25 -37 0 -58 44 -24 53 45 12 57 6 79 -40z m61 22
c10 -21 9 -27 -4 -32 -18 -7 -29 3 -39 35 -9 32 28 30 43 -3z m1914 -307 c-9
-9 -12 -7 -12 12 0 19 3 21 12 12 9 -9 9 -15 0 -24z m7015 -44 c17 -19 30 -24
46 -20 12 3 32 9 44 12 16 4 30 -2 50 -24 15 -16 49 -39 74 -50 41 -17 47 -25
59 -67 10 -37 21 -52 53 -72 l40 -25 -7 -66 c-7 -64 -6 -66 25 -98 34 -35 34
-41 13 -151 -4 -23 0 -39 16 -61 l23 -31 -27 -50 c-29 -57 -33 -88 -11 -117
10 -13 14 -44 15 -95 0 -65 -3 -80 -25 -109 -23 -31 -25 -40 -19 -96 8 -74
-10 -160 -36 -174 -39 -21 -50 -41 -50 -90 0 -45 -3 -51 -31 -65 -17 -9 -48
-15 -72 -13 l-42 3 -3 102 c-2 74 1 112 13 139 17 41 13 54 -17 54 -13 0 -18
5 -15 14 3 8 13 51 23 96 14 65 15 88 6 112 -9 24 -8 38 3 65 19 46 19 114 0
139 -26 34 -38 93 -24 126 9 21 9 35 1 51 -6 12 -12 56 -14 97 -2 52 -10 89
-26 121 -12 25 -29 67 -37 95 -8 27 -32 72 -53 99 -21 28 -47 74 -57 103 -17
46 -17 54 -5 62 24 16 41 11 67 -16z m-1560 -51 c32 -14 48 -29 64 -60 19 -37
20 -44 6 -57 -8 -8 -18 -31 -21 -50 -6 -30 -12 -36 -40 -41 -37 -7 -100 7
-132 29 -29 21 -21 64 13 72 28 7 43 39 43 90 0 39 8 41 67 17z m278 -158 c22
-8 45 -15 52 -15 6 0 24 -5 40 -11 15 -6 44 -13 63 -15 81 -8 95 -14 135 -67
78 -101 157 -170 237 -209 75 -37 78 -40 110 -105 18 -38 37 -71 42 -75 6 -4
7 -10 3 -14 -4 -4 -15 0 -24 8 -34 29 -53 29 -63 3 -8 -21 -4 -33 30 -78 22
-28 45 -68 50 -87 15 -54 67 -137 100 -162 23 -16 30 -30 30 -55 0 -23 9 -43
30 -65 37 -39 44 -64 37 -135 -5 -51 -3 -59 25 -94 17 -22 37 -39 44 -39 7 0
24 15 38 33 20 26 26 46 26 83 0 42 4 53 32 79 66 63 81 112 55 187 -15 44
-22 52 -35 44 -6 -4 -2 -26 10 -58 18 -49 18 -54 3 -88 -15 -34 -51 -67 -62
-57 -2 3 3 22 11 42 l16 37 -44 49 c-50 56 -64 89 -34 81 13 -3 32 7 56 30 80
76 125 88 143 41 40 -105 31 -209 -23 -285 l-29 -39 23 -26 c13 -14 32 -35 43
-46 32 -34 65 -87 65 -102 0 -8 5 -35 12 -59 17 -65 -3 -141 -53 -194 -25 -27
-47 -42 -62 -42 -14 0 -35 -8 -47 -18 -19 -15 -21 -22 -12 -39 9 -17 8 -24 -4
-34 -22 -18 -46 -1 -60 42 -11 32 -14 33 -53 30 -34 -2 -41 0 -41 16 1 10 7
29 15 43 8 14 14 35 15 47 0 20 -4 22 -30 17 -27 -6 -30 -4 -30 17 0 14 12 41
26 62 15 23 23 45 19 55 -5 13 -13 6 -36 -31 -33 -54 -37 -99 -10 -126 15 -15
18 -28 14 -63 -6 -50 5 -64 51 -70 31 -3 64 -45 65 -82 1 -14 6 -17 26 -12 81
20 75 21 75 -11 0 -19 -10 -39 -30 -58 -35 -33 -39 -74 -14 -133 l15 -37 -32
-27 c-28 -24 -31 -31 -26 -63 7 -43 44 -119 69 -142 20 -18 23 -44 8 -59 -5
-5 -13 -32 -17 -59 -8 -63 -55 -131 -100 -146 -27 -9 -39 -22 -67 -82 -52
-108 -134 -177 -212 -177 -15 0 -33 -13 -51 -37 -64 -84 -75 -91 -131 -87 -36
2 -70 -3 -109 -18 -50 -18 -61 -19 -92 -8 -19 7 -41 19 -49 27 -9 9 -25 11
-46 7 -28 -5 -39 0 -80 35 -26 23 -59 44 -74 47 -49 10 -52 13 -52 46 0 19
-20 73 -46 127 l-47 94 13 68 c7 37 10 77 7 90 -7 27 16 48 55 49 40 0 236 49
288 72 143 62 298 149 396 222 59 44 88 75 115 120 20 34 35 64 32 69 -2 4
-38 -28 -79 -72 -41 -43 -113 -106 -162 -138 -115 -78 -290 -162 -324 -155 -4
1 -20 -3 -35 -9 -40 -16 -89 -28 -165 -39 -103 -15 -219 15 -233 60 -9 29 -93
131 -179 220 -41 41 -99 109 -131 150 -31 41 -73 96 -92 122 -43 56 -102 216
-114 313 -38 281 -43 308 -71 346 -9 14 -5 23 25 53 20 20 39 36 42 36 3 0 5
-16 5 -35 0 -29 7 -39 44 -67 25 -18 44 -40 43 -48 -3 -24 74 -25 121 -1 83
42 165 143 149 184 -3 7 -38 24 -79 37 -100 32 -206 33 -266 1 -23 -13 -45
-27 -48 -32 -3 -5 -17 -9 -32 -9 -15 0 -38 -1 -52 -2 -24 -3 -25 -1 -28 68
l-3 72 36 21 c19 11 61 28 92 37 52 15 60 15 87 1 17 -9 49 -21 71 -28 22 -6
50 -16 62 -22 31 -14 43 -1 43 43 0 35 -3 40 -27 46 -16 3 -48 12 -72 20 -57
18 -99 18 -173 -1 -72 -19 -98 -13 -98 21 0 34 58 148 109 215 23 30 52 77 66
105 17 36 40 63 75 88 54 39 85 45 116 21 23 -18 155 -20 187 -4 12 7 35 23
50 35 16 14 42 24 58 24 20 0 39 9 57 29 32 34 35 34 87 16z m-7477 -160 c16
-14 33 -36 36 -49 8 -34 -7 -71 -30 -71 -23 0 -32 -42 -11 -50 8 -4 12 -16 10
-33 -3 -22 3 -31 29 -47 18 -11 34 -29 34 -40 1 -11 2 -28 3 -37 1 -9 12 -29
25 -45 14 -16 27 -49 31 -76 7 -45 6 -48 -39 -98 -54 -60 -63 -87 -49 -143 6
-23 10 -57 9 -76 -1 -32 -4 -35 -36 -38 -19 -2 -39 -8 -44 -13 -35 -33 -47 15
-21 79 9 21 15 60 14 92 -1 30 0 61 2 69 3 9 -8 17 -28 23 -40 10 -43 33 -12
88 l22 38 -27 34 -26 35 29 56 c38 73 46 107 27 107 -9 0 -16 12 -18 28 -2 15
-9 27 -18 28 -32 2 -39 5 -54 20 -31 30 -20 66 32 106 57 44 72 45 110 13z
m8180 -149 c35 -18 144 -36 215 -36 31 0 57 -4 57 -8 0 -15 -33 -39 -103 -77
-62 -32 -72 -35 -96 -24 -26 12 -61 58 -61 80 0 6 -12 26 -26 45 -29 37 -27
41 14 20z m-8287 -56 c26 -15 24 -29 -15 -109 l-34 -70 20 -40 c19 -39 19 -43
3 -90 -17 -52 -11 -83 18 -94 8 -3 19 -24 24 -46 9 -32 7 -56 -9 -118 -11 -43
-28 -89 -37 -103 -10 -14 -28 -69 -41 -122 -21 -83 -22 -102 -12 -131 7 -18
12 -46 12 -62 l0 -28 -24 26 c-25 27 -50 28 -60 1 -7 -18 -50 -18 -65 0 -6 7
-32 16 -57 20 -37 5 -54 2 -79 -14 -34 -21 -83 -29 -103 -16 -7 4 -37 -2 -67
-13 l-55 -21 -16 25 c-39 60 -27 138 47 289 22 44 39 89 39 102 0 24 23 38 49
29 21 -6 36 19 56 93 8 33 34 100 57 149 23 48 42 96 43 105 2 16 42 87 68
120 17 22 78 48 110 48 21 0 69 42 73 63 1 4 2 9 3 12 2 9 31 6 52 -5z m3540
-206 c66 -7 84 -16 76 -38 -8 -20 -48 -36 -90 -36 -43 0 -110 42 -112 69 -2
20 2 22 34 17 20 -3 61 -8 92 -12z m5219 -42 c23 -11 43 -33 60 -64 23 -45 24
-49 12 -120 -7 -40 -16 -76 -21 -81 -4 -4 -11 20 -13 55 -7 84 -31 140 -69
162 l-31 18 -69 -48 c-38 -27 -79 -55 -89 -63 -18 -12 -20 -11 -20 12 0 17 18
45 58 86 54 57 60 61 102 61 25 -1 61 -9 80 -18z m-5170 -109 c0 -22 10 -54
23 -74 44 -72 86 -135 108 -163 13 -16 24 -35 25 -41 4 -30 -18 -113 -40 -146
-31 -45 -18 -66 25 -43 56 29 95 238 49 266 -28 18 -25 26 14 44 46 22 103 12
118 -22 8 -17 19 -24 39 -24 15 0 31 5 34 10 12 19 61 10 85 -15 13 -14 22
-27 19 -28 -8 -7 -98 -27 -122 -27 -34 0 -97 -60 -97 -92 0 -23 62 -118 78
-118 4 -1 21 -12 37 -26 l30 -26 -159 7 c-87 3 -184 11 -215 16 -31 6 -92 14
-136 19 -169 19 -246 29 -256 36 -7 4 -4 13 6 24 16 17 15 21 -9 63 -39 66
-35 113 13 174 21 26 57 68 80 92 23 24 50 55 59 69 17 23 20 23 60 11 46 -13
72 -2 72 32 0 14 7 19 30 19 28 0 30 -3 30 -37z m840 -110 c0 -91 -23 -136
-60 -113 -11 6 -11 20 -1 69 7 34 19 77 27 98 21 49 34 28 34 -54z m-2712 47
c24 -22 25 -25 22 -85 -1 -29 6 -51 24 -78 14 -21 26 -51 26 -68 0 -35 15 -67
42 -90 15 -14 48 -77 48 -94 0 -3 -6 -5 -12 -5 -7 0 -31 -14 -52 -30 -46 -35
-53 -36 -100 -14 -40 20 -74 14 -112 -20 -23 -19 -32 -21 -54 -13 -31 12 -83
-7 -115 -43 -32 -35 -61 -26 -85 28 -21 46 -21 49 -5 103 15 48 56 109 82 121
12 5 88 100 103 128 22 42 142 180 158 180 4 0 18 -9 30 -20z m5447 -44 c19
-8 35 -21 35 -29 0 -18 -97 -106 -125 -113 -13 -3 -34 -4 -46 -2 -24 4 -24 4
3 16 25 10 78 99 78 130 0 16 13 15 55 -2z m-4097 -58 c23 -19 69 -38 93 -38
16 0 18 -3 9 -19 -12 -24 -13 -91 -1 -123 8 -22 7 -23 -54 -25 -44 -1 -69 -6
-83 -19 -16 -13 -43 -19 -104 -21 -80 -3 -86 -2 -164 37 -97 49 -124 72 -124
106 l0 25 88 -8 c143 -13 368 -9 387 7 9 7 12 17 8 21 -5 5 -69 9 -143 9 -132
1 -270 17 -270 32 0 4 12 10 28 14 15 3 41 10 57 15 48 14 252 4 273 -13z
m5723 -59 c-5 -13 -10 -19 -10 -12 -1 15 10 45 15 40 3 -2 0 -15 -5 -28z
m-3833 -83 c4 -44 19 -52 67 -36 34 11 39 10 64 -14 17 -16 38 -26 57 -26 56
0 75 -49 27 -69 -45 -18 -131 -31 -205 -31 -38 0 -111 -5 -161 -11 -51 -6
-109 -9 -130 -7 l-37 3 40 45 c22 25 45 59 51 77 16 50 142 115 209 108 10 -1
16 -15 18 -39z m-568 18 c0 -2 -9 -4 -20 -4 -11 0 -20 4 -20 9 0 5 9 7 20 4
11 -3 20 -7 20 -9z m-1833 -11 c3 -10 15 -30 25 -45 24 -34 11 -36 -49 -7
l-43 21 22 24 c27 28 37 30 45 7z m1753 -3 c0 -13 -9 -22 -27 -27 -43 -12
-232 -8 -245 5 -8 8 -5 12 13 16 89 20 122 24 187 25 65 1 72 -1 72 -19z m278
-4 c16 -18 15 -18 -53 -13 -79 6 -108 15 -99 29 11 18 132 4 152 -16z m3962
-32 c0 -14 -12 -19 -23 -8 -9 9 4 35 14 28 5 -3 9 -12 9 -20z m-4007 -29 c142
0 146 -3 102 -61 -14 -18 -25 -39 -25 -47 0 -36 -27 -41 -267 -45 l-235 -5 7
22 c7 22 4 24 -48 35 -26 6 -107 70 -107 85 0 4 37 1 81 -7 73 -12 92 -11 176
4 51 9 96 21 99 26 4 6 23 6 48 1 22 -4 98 -8 169 -8z m-1338 -63 c-11 -11
-34 8 -28 24 6 15 7 15 20 -1 7 -10 11 -21 8 -23z m-80 -2 c4 -6 -3 -29 -15
-51 -22 -43 -89 -129 -101 -129 -3 0 -14 18 -24 39 l-17 40 53 54 c52 52 90
69 104 47z m-392 -56 l68 -17 -21 -22 c-24 -25 -26 -25 -130 22 -67 30 -79 59
-17 43 17 -5 63 -16 100 -26z m540 -45 c12 -6 24 -6 38 1 15 8 34 8 70 1 28
-6 72 -11 99 -11 27 0 59 -4 72 -9 13 -5 64 -12 113 -15 106 -8 708 -9 769 -2
22 3 88 8 146 11 58 3 146 10 195 15 50 6 140 13 200 16 l110 5 -34 -29 c-28
-24 -44 -30 -80 -29 -25 0 -71 -9 -101 -20 -30 -11 -84 -25 -120 -32 -84 -14
-279 -30 -322 -26 -18 2 -112 6 -208 10 -96 3 -186 7 -200 9 -97 16 -659 21
-816 8 -34 -3 -108 -81 -138 -146 -17 -36 -29 -80 -30 -112 -2 -43 -9 -59 -39
-96 -41 -50 -67 -105 -67 -142 0 -14 -12 -38 -26 -53 -61 -65 -79 -131 -54
-197 8 -22 5 -31 -22 -62 l-32 -36 -18 68 c-36 144 -20 222 80 397 38 67 72
132 76 144 4 12 26 33 49 46 46 27 67 73 67 144 0 29 10 50 47 97 26 34 51 64
56 67 10 7 95 -8 120 -22z m-337 -65 c18 -42 36 -70 51 -77 32 -14 29 -41 -11
-84 l-33 -36 -36 22 c-37 23 -91 98 -102 142 -7 29 15 83 37 92 7 3 25 6 39 6
24 1 30 -7 55 -65z m-1071 15 c6 -23 0 -32 -35 -60 -22 -18 -51 -50 -62 -71
-21 -37 -42 -48 -113 -60 -11 -2 -26 -17 -34 -35 -21 -47 -64 -59 -117 -34
-49 24 -71 48 -77 86 -3 17 -8 44 -11 60 -6 26 -1 34 30 57 31 23 42 26 92 21
52 -4 59 -2 81 21 26 27 50 33 68 15 19 -19 70 -13 115 14 46 28 53 26 63 -14z
m3670 -136 c39 -42 79 -73 115 -90 l55 -26 -30 -13 c-16 -7 -35 -13 -41 -14
-6 0 -30 -17 -53 -37 -54 -46 -77 -38 -72 25 2 31 -3 47 -19 64 -48 52 -87
177 -62 202 4 4 16 -5 27 -20 11 -15 47 -56 80 -91z m-3524 74 c30 -13 36 -20
32 -40 -3 -16 4 -34 23 -56 17 -21 34 -59 45 -107 10 -42 31 -95 49 -122 17
-25 28 -52 26 -58 -3 -7 -8 -39 -11 -71 -6 -48 -3 -69 19 -127 37 -97 35 -124
-15 -165 -36 -30 -42 -32 -57 -18 -35 30 -60 27 -115 -14 -32 -24 -58 -37 -67
-33 -49 21 -112 -3 -129 -48 -10 -28 -21 -11 -27 44 -7 64 -25 139 -41 172
-10 19 -13 43 -9 75 6 46 4 68 -29 230 -14 70 -15 91 -5 127 8 29 18 44 29 44
23 0 57 39 76 87 19 48 61 81 118 92 23 5 44 8 47 7 3 -1 21 -10 41 -19z
m-2284 -39 c23 -22 24 -22 71 -5 46 18 46 18 64 -5 24 -31 23 -35 -14 -58 -38
-23 -59 -25 -104 -8 -30 10 -36 9 -81 -23 -87 -63 -204 -130 -214 -123 -41 25
-53 184 -14 184 7 0 18 7 25 15 9 11 16 13 24 5 18 -18 86 -6 141 27 32 19 76
15 102 -9z m3049 -13 c9 -20 37 -57 61 -82 l45 -45 -24 -27 c-132 -145 -205
-400 -158 -545 6 -16 10 -41 10 -55 0 -14 6 -38 14 -52 7 -14 16 -43 20 -63 7
-37 7 -37 -126 -169 -107 -105 -185 -167 -213 -167 -1 0 -5 10 -8 23 -30 135
-40 188 -52 282 -19 144 -19 317 1 412 30 148 90 245 218 353 50 41 113 96
140 122 28 26 52 48 53 48 1 0 10 -16 19 -35z m874 21 c0 -3 -19 -14 -42 -24
-50 -22 -85 -57 -69 -67 6 -3 35 0 64 8 139 40 416 48 577 17 108 -21 388 -29
498 -14 40 5 50 3 55 -10 12 -30 7 -35 -103 -105 -37 -24 -86 -41 -116 -41
-18 0 -45 -5 -61 -11 -15 -7 -69 -15 -118 -18 -71 -6 -97 -12 -120 -29 -28
-21 -101 -41 -224 -63 -71 -13 -91 -25 -91 -54 0 -32 12 -37 46 -21 16 8 49
17 74 20 25 3 70 13 100 21 86 23 82 1 -11 -45 -88 -45 -77 -90 23 -90 24 0
53 -3 66 -6 22 -6 20 -8 -20 -32 -96 -56 -111 -94 -49 -123 l34 -16 -62 -43
c-57 -38 -63 -45 -57 -70 5 -26 0 -32 -45 -59 -27 -17 -62 -31 -78 -31 -40 0
-91 -20 -91 -35 0 -27 -24 -33 -78 -23 -44 9 -59 8 -93 -7 -44 -21 -54 -16
-64 33 l-7 32 49 0 c81 0 128 20 193 84 33 32 57 63 54 68 -3 5 -13 3 -22 -6
-35 -31 -147 -76 -190 -76 -86 0 -174 82 -158 146 10 37 71 99 121 123 42 19
57 43 37 55 -13 8 -103 -41 -137 -74 -17 -17 -36 -30 -42 -30 -6 0 -13 19 -17
41 -8 48 13 89 44 89 10 0 35 21 57 48 40 50 70 82 76 82 3 0 7 -9 10 -20 8
-30 34 -24 58 13 22 32 94 93 138 117 20 10 25 10 33 -4 12 -21 32 -20 97 4
29 12 56 18 59 15 3 -3 -2 -19 -12 -36 -31 -52 -8 -45 49 14 77 81 93 117 42
97 -12 -4 -49 -16 -82 -25 -33 -10 -66 -20 -72 -22 -10 -4 -10 2 -2 27 6 17 9
34 5 37 -3 3 -32 -12 -63 -34 -32 -22 -79 -52 -105 -67 -43 -25 -47 -26 -56
-10 -9 16 -15 13 -58 -23 -27 -23 -71 -64 -99 -92 -27 -28 -52 -51 -56 -51 -9
0 -29 48 -29 70 0 12 -7 20 -17 20 -20 0 -53 -28 -53 -47 0 -7 -6 -13 -14 -13
-16 0 -26 -21 -26 -54 0 -13 -2 -25 -5 -28 -8 -7 -127 18 -172 37 -21 9 -57
36 -80 60 -23 24 -50 45 -59 47 -14 3 -13 7 6 31 17 21 20 35 16 65 -13 78 65
212 123 212 29 0 81 -17 126 -42 42 -22 78 -25 109 -9 37 20 35 51 -5 51 -16
0 -28 3 -25 8 5 8 216 17 216 8z m1147 -2 c-3 -3 -12 -4 -19 -1 -8 3 -5 6 6 6
11 1 17 -2 13 -5z m-150 -20 c-3 -3 -12 -4 -19 -1 -8 3 -5 6 6 6 11 1 17 -2
13 -5z m1080 -295 c41 -14 83 -108 113 -254 29 -144 23 -258 -20 -360 -5 -11
-16 -45 -26 -75 -43 -136 -172 -274 -304 -326 -25 -10 -54 -23 -65 -30 -25
-16 -90 -4 -90 16 0 22 -16 35 -55 46 -44 12 -75 58 -90 132 -7 31 -20 82 -30
112 -21 64 -22 63 66 86 110 28 279 188 312 294 6 19 18 58 27 85 9 28 19 94
22 148 7 105 8 108 72 128 36 10 34 10 68 -2z m-2686 -68 c-12 -8 -9 -12 15
-23 16 -7 50 -29 76 -49 38 -30 67 -42 145 -59 54 -12 102 -26 106 -30 5 -4 2
-18 -6 -31 -8 -13 -18 -39 -22 -57 -5 -24 -13 -33 -33 -37 -15 -3 -40 -10 -57
-16 -16 -6 -54 -20 -84 -30 -30 -11 -77 -33 -104 -51 -34 -22 -60 -31 -85 -30
-20 1 -54 -3 -75 -9 -22 -6 -41 -8 -44 -6 -2 3 8 22 22 43 24 36 26 44 20 111
l-7 71 47 51 c37 39 48 59 50 88 3 50 14 73 34 73 13 0 14 -2 2 -9z m1461
-303 c-17 -8 -26 -8 -34 0 -9 9 -4 12 23 11 32 0 33 -1 11 -11z m-4302 -28
c13 -31 11 -221 -6 -657 -7 -159 -7 -162 -30 -167 -35 -9 -31 -36 5 -36 18 0
41 11 61 30 26 24 29 32 21 49 -12 22 -5 590 8 652 4 19 14 35 23 37 31 6 40
-110 44 -547 3 -352 6 -417 19 -431 11 -12 15 -40 15 -106 l0 -89 -60 -88
c-65 -98 -88 -153 -72 -169 18 -18 40 -1 62 44 11 24 34 61 50 83 16 22 42 63
57 90 27 49 27 53 25 190 -3 126 -1 147 21 210 27 81 73 158 90 152 15 -5 23
-74 31 -252 3 -77 11 -176 18 -220 15 -99 15 -146 -1 -255 -22 -154 -69 -289
-137 -390 -60 -90 -76 -112 -98 -135 -37 -40 -76 -98 -76 -115 0 -9 -24 -43
-53 -76 -32 -35 -70 -93 -93 -142 -29 -62 -42 -81 -54 -76 -8 4 -39 10 -68 15
-117 17 -229 104 -290 225 -31 62 -40 106 -47 239 -2 46 -12 98 -22 120 -9 22
-18 54 -19 70 -2 17 -8 58 -14 92 -9 50 -8 79 4 151 11 62 14 127 11 208 -11
251 -11 345 -4 522 8 195 13 220 76 367 19 44 41 97 50 118 15 34 44 50 56 30
9 -14 22 -147 21 -208 -1 -74 -22 -345 -30 -402 -6 -39 -5 -43 14 -43 14 0 23
8 26 23 3 12 10 139 16 282 14 316 27 378 102 490 27 41 53 75 58 75 25 0 26
-103 5 -380 -8 -107 -14 -243 -13 -302 2 -115 -6 -138 -48 -138 -27 0 -42 -19
-24 -30 8 -5 37 -8 65 -7 l52 1 1 76 c1 144 12 396 22 500 5 58 9 126 8 151
-1 49 22 104 68 167 31 40 38 40 54 2z m4000 -39 c8 -16 18 -19 53 -15 23 2
121 7 218 10 152 6 183 4 230 -11 30 -10 60 -22 67 -28 8 -7 20 -7 36 1 19 8
32 5 78 -21 73 -43 118 -82 123 -109 3 -12 15 -33 29 -47 13 -14 28 -35 34
-46 17 -34 62 -178 62 -201 0 -11 11 -43 25 -69 14 -26 24 -50 21 -53 -3 -2
-44 -4 -91 -3 -69 0 -91 5 -111 20 -25 20 -56 18 -74 -4 -8 -10 -4 -21 17 -45
24 -26 38 -32 93 -39 l65 -8 -69 -33 c-43 -21 -86 -34 -115 -35 -62 -2 -91
-13 -91 -33 0 -35 35 -58 123 -82 26 -7 49 -16 51 -19 3 -4 -14 -33 -35 -66
-52 -79 -74 -126 -100 -221 -20 -71 -21 -86 -10 -147 12 -75 32 -121 65 -149
32 -28 136 -21 171 12 14 13 28 20 32 16 5 -4 7 -141 6 -304 -1 -164 2 -344 7
-402 10 -106 44 -267 61 -284 5 -6 9 -16 9 -23 0 -20 95 -208 127 -251 15 -21
57 -66 95 -102 l68 -65 -12 -37 c-6 -21 -19 -40 -29 -43 -28 -9 -59 -68 -59
-113 0 -33 -8 -49 -45 -93 -25 -29 -45 -58 -45 -64 0 -6 -14 -33 -31 -61 -33
-51 -40 -95 -25 -164 8 -34 6 -37 -29 -55 -51 -28 -65 -56 -72 -137 -6 -66
-10 -76 -60 -142 -50 -67 -53 -74 -53 -128 0 -51 -4 -64 -35 -103 -34 -45 -65
-127 -65 -172 0 -14 -10 -29 -27 -40 -66 -40 -113 -105 -113 -155 0 -13 -16
-41 -35 -62 -36 -42 -43 -57 -71 -150 -20 -67 -45 -100 -113 -150 -35 -26 -57
-53 -80 -101 -20 -41 -46 -75 -69 -92 -20 -15 -57 -44 -82 -63 -43 -34 -99
-60 -131 -60 -9 0 -33 -16 -55 -35 -47 -42 -76 -44 -112 -8 -29 30 -88 39
-144 22 -32 -9 -78 4 -78 21 0 6 -16 28 -35 48 -28 30 -35 45 -35 78 0 36 -6
46 -51 87 -46 41 -51 50 -49 84 5 69 0 92 -23 119 -19 21 -29 26 -49 21 -38
-10 -42 -35 -13 -77 19 -27 25 -49 25 -87 0 -45 4 -56 34 -85 18 -18 41 -39
50 -46 10 -8 16 -28 16 -55 0 -34 7 -49 35 -79 19 -20 35 -41 35 -45 0 -5 9
-19 20 -31 23 -24 74 -29 142 -13 31 7 40 5 54 -10 43 -47 137 -46 197 3 19
15 38 22 61 20 20 -2 37 3 45 12 8 9 19 16 25 16 6 0 32 17 58 38 25 20 69 53
96 72 28 19 58 50 66 68 9 17 24 48 33 68 9 20 26 44 38 54 104 91 114 104
145 195 22 65 41 100 68 128 32 33 37 44 38 87 1 62 22 94 81 122 39 19 49 29
56 58 22 94 30 112 72 168 41 57 44 64 42 121 -1 49 3 64 20 83 12 13 37 50
57 83 29 48 36 70 36 112 0 51 1 53 38 72 73 37 90 84 61 165 -12 32 -11 39 8
64 11 15 31 48 43 72 22 44 63 90 79 90 14 0 17 -20 20 -115 1 -49 4 -109 7
-132 3 -26 1 -43 -5 -43 -6 0 -18 -11 -26 -24 -13 -19 -13 -29 -4 -49 10 -21
7 -30 -15 -63 -18 -26 -26 -52 -26 -80 0 -32 -9 -55 -40 -100 -22 -33 -45 -76
-50 -96 -6 -20 -27 -58 -46 -84 -60 -79 -96 -144 -91 -164 3 -12 -7 -33 -28
-57 -44 -52 -55 -76 -55 -118 0 -48 -21 -95 -73 -165 -24 -32 -50 -80 -57
-106 -13 -47 -36 -89 -71 -127 -9 -10 -20 -41 -23 -69 -9 -69 -25 -96 -85
-146 -49 -42 -111 -126 -125 -169 -7 -22 -75 -83 -144 -128 -28 -18 -52 -46
-67 -76 -30 -58 -51 -73 -192 -138 -94 -43 -122 -51 -171 -51 -50 0 -62 4 -82
25 -21 22 -32 25 -83 24 -57 -2 -60 -1 -105 43 -51 50 -97 66 -125 46 -16 -12
-17 -23 -9 -110 8 -83 13 -101 36 -128 20 -24 26 -42 26 -79 0 -26 5 -52 12
-59 7 -7 35 -12 63 -12 46 0 55 -4 82 -35 27 -31 37 -35 80 -36 26 0 57 -2 68
-5 11 -2 34 -6 52 -10 23 -4 41 0 65 14 18 11 59 28 92 38 64 20 123 76 133
127 4 18 30 50 73 88 49 44 70 69 74 92 7 37 46 84 94 112 21 13 43 40 59 73
15 30 44 68 69 88 28 23 45 46 49 67 14 71 60 194 80 217 23 26 42 77 43 119
1 14 17 48 37 76 19 28 42 76 51 106 9 30 26 65 38 79 58 65 89 130 101 214 4
25 17 49 36 67 31 29 49 67 49 103 0 12 22 54 50 92 55 77 76 116 85 157 3 15
20 44 39 65 45 50 56 74 56 120 0 23 6 45 15 52 9 7 17 11 19 9 18 -21 86
-235 86 -272 0 -11 9 -32 21 -48 16 -23 19 -38 14 -62 -3 -18 -7 -53 -8 -78
-1 -31 -10 -56 -28 -80 -33 -43 -40 -73 -28 -109 8 -22 7 -36 -6 -59 -8 -17
-20 -31 -24 -31 -18 0 -51 -68 -51 -104 0 -26 -9 -48 -31 -75 -26 -34 -30 -45
-28 -94 2 -48 -2 -62 -27 -97 -48 -67 -55 -83 -51 -125 3 -35 -2 -44 -45 -88
-46 -47 -48 -52 -48 -104 0 -49 -5 -63 -47 -125 -40 -59 -48 -80 -54 -135 -6
-57 -11 -69 -43 -102 -38 -39 -56 -83 -56 -138 0 -26 -13 -46 -65 -102 -36
-37 -65 -74 -65 -80 0 -21 -48 -95 -69 -108 -11 -7 -28 -27 -37 -45 -26 -51
-199 -211 -247 -228 -27 -10 -47 -25 -55 -42 -7 -15 -29 -41 -50 -58 -34 -28
-43 -30 -112 -30 l-76 0 -21 -50 c-23 -55 -15 -52 -148 -55 -33 -1 -87 -11
-119 -23 -33 -12 -68 -20 -78 -17 -9 4 -33 25 -52 47 -35 40 -36 41 -88 35
l-52 -7 -46 50 c-26 28 -51 50 -57 50 -5 0 -18 -9 -28 -20 -18 -19 -17 -21 1
-56 10 -20 38 -52 61 -71 40 -33 46 -35 89 -28 43 6 47 4 89 -34 53 -49 88
-53 168 -17 35 15 59 21 68 15 43 -27 202 13 236 60 17 22 33 30 69 36 76 11
132 43 171 96 23 32 44 50 64 54 18 4 56 32 92 68 69 68 140 121 145 107 2 -5
-15 -32 -37 -60 -48 -60 -79 -126 -85 -180 -5 -44 -25 -85 -59 -126 -62 -74
-77 -106 -77 -161 0 -69 -15 -103 -84 -192 -51 -66 -86 -144 -86 -190 0 -22
-46 -88 -86 -123 -32 -28 -74 -118 -74 -158 0 -23 -44 -55 -65 -46 -10 4 -15
-1 -15 -14 0 -11 -8 -24 -18 -29 -10 -5 -35 -39 -56 -74 -32 -56 -44 -67 -80
-79 -41 -13 -44 -13 -62 6 -12 13 -34 22 -57 23 -56 4 -78 19 -71 48 10 40
-14 91 -67 141 -43 42 -49 54 -49 89 0 46 -23 128 -45 161 -8 13 -27 35 -42
49 -26 23 -28 32 -29 103 -2 95 -18 157 -49 184 -21 18 -24 29 -24 92 0 155
-6 190 -44 259 -36 63 -37 69 -37 165 0 88 4 111 31 184 17 46 33 102 36 126
4 36 1 47 -26 77 -64 73 -80 130 -84 302 -2 60 2 76 36 144 20 41 37 85 37 98
0 12 -11 44 -25 71 -53 105 -14 322 70 388 24 19 35 62 15 62 -15 0 -22 43
-11 73 7 18 18 27 33 27 46 0 64 12 92 63 54 96 47 237 -20 384 -13 28 -24 56
-24 62 0 5 -5 11 -11 13 -35 12 56 118 100 118 25 0 29 -5 51 -77 34 -111 30
-224 -18 -508 -4 -22 -7 -96 -7 -165 l0 -125 31 -3 c31 -3 31 -2 30 40 -1 24
-5 49 -10 57 -13 21 -10 84 13 254 41 305 41 400 -3 516 -9 24 -16 47 -16 52
0 14 141 76 200 88 135 26 163 31 191 31 16 0 64 13 107 29 42 16 106 39 141
52 35 12 84 38 108 56 39 29 43 31 43 13 0 -31 15 -24 60 28 63 72 116 190
144 317 13 61 25 115 26 120 2 6 0 18 -5 28 -4 10 -3 42 4 70 19 83 19 121 -1
125 -12 2 -22 -12 -38 -55 -12 -32 -24 -69 -26 -81 -16 -83 -102 -243 -173
-323 -73 -82 -263 -210 -379 -256 -37 -15 -76 -32 -87 -39 -11 -7 -40 -15 -65
-19 -146 -22 -366 -100 -417 -147 l-21 -20 -11 21 c-6 11 -14 42 -18 68 -4 29
-21 72 -43 108 -21 33 -46 78 -56 100 -22 46 -44 51 -58 13 -8 -22 -5 -38 14
-78 13 -28 29 -55 36 -61 6 -5 17 -31 24 -57 6 -26 15 -54 18 -62 16 -44 -2
-84 -51 -118 -41 -27 -42 -30 -48 -93 -4 -46 -14 -80 -32 -111 -33 -57 -91
-108 -121 -108 -13 0 -50 -14 -82 -31 -49 -25 -60 -28 -69 -16 -11 16 -51 29
-140 47 -33 6 -75 18 -93 26 -31 13 -132 100 -132 113 0 3 46 6 103 6 85 0
108 4 137 21 19 11 34 27 33 35 0 8 -3 25 -5 39 -2 17 2 25 15 28 14 3 16 0 8
-21 -7 -19 -6 -29 4 -37 17 -15 71 13 89 45 6 11 33 44 59 74 27 30 53 65 58
78 15 40 10 96 -11 122 -19 22 -22 22 -43 8 -13 -9 -36 -40 -50 -71 -27 -57
-54 -78 -140 -105 -34 -12 -87 -64 -87 -88 0 -18 -45 -50 -79 -57 -51 -9 -147
22 -216 70 -81 57 -245 88 -324 60 -86 -31 -184 -12 -213 42 -9 18 -13 63 -11
152 1 141 -9 111 130 385 114 223 130 282 167 610 29 251 39 634 20 730 -3 17
-8 46 -10 65 -3 19 -9 62 -15 95 -38 239 -52 528 -29 627 18 77 54 199 99 334
39 117 40 119 73 125 36 6 129 44 166 67 16 10 35 13 65 8 84 -14 139 -7 190
25 54 33 95 38 104 12 3 -10 13 -26 21 -36 13 -15 14 -23 3 -52 -10 -30 -9
-39 8 -73 11 -22 27 -42 36 -45 8 -4 15 -17 15 -29 0 -13 7 -33 15 -45 17 -24
111 -63 151 -63 13 0 42 -11 63 -24 38 -24 40 -24 104 -11 73 15 159 55 179
83 7 11 23 22 36 26 23 8 83 81 120 146 17 31 23 35 53 32 72 -7 139 8 174 40
24 21 40 28 55 23 11 -3 20 -10 20 -15 0 -17 41 -17 102 0 l64 18 27 -24 c45
-38 89 -45 184 -28 87 15 117 12 168 -15 59 -31 97 -39 171 -37 77 2 99 12 89
39 -10 23 -31 28 -81 17 -38 -9 -53 -7 -97 11 -29 11 -62 25 -75 30 -30 12
-116 11 -181 -1 -59 -11 -102 1 -135 39 -23 26 -45 26 -116 2 l-55 -19 -23 24
c-13 13 -26 24 -30 25 -4 0 -18 2 -32 4 -29 3 -70 -19 -70 -40 0 -24 -30 -45
-65 -45 -43 0 -65 9 -65 26 0 8 -6 14 -12 14 -20 0 -98 -84 -103 -111 -5 -23
-75 -103 -83 -94 -9 8 -32 -17 -32 -34 0 -30 -126 -91 -188 -91 -19 0 -49 11
-70 25 -20 14 -50 25 -67 25 -38 0 -115 35 -116 52 -1 7 -1 22 0 33 1 13 -10
26 -28 37 -38 21 -49 60 -29 102 17 35 14 56 -8 56 -8 0 -14 10 -14 26 0 14
-5 35 -11 46 -10 19 -17 20 -76 14 -50 -5 -74 -13 -102 -35 -51 -41 -70 -44
-133 -22 -53 18 -58 18 -86 3 -124 -69 -138 -75 -196 -77 -76 -3 -91 11 -69
64 30 72 50 91 97 91 27 0 48 6 56 15 7 8 19 15 28 15 9 0 60 25 114 56 l99
57 80 -6 c104 -7 141 4 194 59 36 38 53 48 106 60 48 11 73 24 99 49 32 31 42
35 90 35 29 0 67 -4 84 -9 17 -5 44 -13 61 -18 20 -6 37 -22 54 -52 22 -41 25
-43 60 -37 20 4 64 9 98 12 61 6 63 5 104 -30 46 -39 65 -42 132 -25 40 11 45
10 86 -17 94 -63 101 -66 175 -59 66 6 70 5 115 -27 44 -32 49 -33 129 -30 82
2 82 2 118 -33 38 -39 38 -39 144 -35 66 1 80 -1 112 -23 32 -22 40 -24 62
-14 31 14 34 42 5 57 -59 32 -162 50 -174 30 -3 -5 -21 -10 -39 -10 -27 0 -39
7 -60 35 -34 44 -83 59 -144 43 -43 -11 -45 -10 -103 31 -59 42 -61 42 -123
36 -58 -6 -67 -5 -118 24 -31 18 -59 38 -62 46 -7 18 -32 19 -107 3 -46 -9
-61 -9 -73 1 -24 20 -19 40 10 51 150 58 265 148 234 185 -9 11 -5 18 22 35
41 25 45 25 58 1z m-1960 -47 c10 -26 -4 -122 -20 -138 -9 -9 -36 0 -71 25
-13 10 -27 5 -73 -25 -57 -36 -89 -44 -115 -27 -10 6 -25 4 -42 -5 -16 -8 -34
-14 -41 -14 -26 1 -51 30 -57 67 -6 35 -4 39 26 56 26 14 41 15 74 8 40 -9 43
-8 80 30 44 45 52 46 97 19 43 -26 53 -25 87 10 31 32 41 31 55 -6z m1140 -5
c19 -34 6 -46 -61 -52 -55 -5 -67 -10 -95 -40 -25 -27 -46 -37 -92 -46 -49
-10 -68 -19 -103 -55 -62 -61 -82 -70 -133 -57 -53 13 -160 -13 -223 -55 -20
-12 -23 -12 -23 0 0 21 184 189 222 203 18 7 53 12 78 12 29 1 63 10 90 25 93
51 132 66 154 60 14 -3 27 1 35 10 10 12 32 16 77 16 54 0 65 -3 74 -21z m108
-29 c44 -45 40 -58 -11 -36 -23 9 -36 22 -39 40 -4 22 -1 36 7 36 2 0 21 -18
43 -40z m5355 -60 c7 0 21 -16 31 -34 10 -19 29 -45 42 -57 20 -19 21 -24 9
-43 -11 -16 -11 -30 -3 -61 9 -35 8 -45 -12 -77 -12 -21 -26 -38 -30 -38 -16
0 -50 -68 -50 -100 0 -24 -9 -40 -37 -66 -52 -48 -73 -84 -73 -127 0 -31 -8
-47 -43 -85 -84 -92 -97 -112 -97 -150 0 -42 -20 -78 -75 -137 -66 -70 -75
-86 -75 -127 0 -35 -7 -47 -62 -104 -35 -35 -74 -85 -88 -111 -14 -26 -30 -48
-36 -50 -7 -2 -25 17 -40 42 -16 26 -42 62 -58 81 -28 34 -29 36 -14 67 9 18
37 56 62 85 26 30 50 71 57 95 18 68 24 79 76 142 61 74 73 95 73 134 0 24 13
45 57 91 81 86 90 103 98 186 6 71 11 79 41 75 7 -1 29 21 49 49 31 42 39 63
44 113 5 47 15 75 39 111 31 46 36 76 12 76 -14 0 -2 50 18 73 15 16 17 15 44
-18 16 -19 35 -35 41 -35z m-1465 -34 c66 17 77 5 20 -24 -85 -44 -106 -112
-34 -112 19 0 46 4 60 10 23 8 26 7 26 -10 0 -14 -16 -28 -55 -47 -46 -23 -55
-32 -55 -53 0 -21 7 -29 35 -39 37 -13 52 -9 112 29 25 16 28 14 37 -16 6 -18
0 -24 -33 -38 -40 -16 -78 -57 -67 -74 9 -15 77 -22 98 -11 30 16 33 4 9 -41
-24 -46 -26 -71 -9 -88 21 -21 48 -14 59 16 22 60 42 90 58 84 42 -16 51 -48
26 -92 -8 -14 -14 -37 -15 -51 0 -28 -32 -49 -76 -49 -14 0 -44 -4 -67 -9 -59
-14 -274 -42 -322 -42 -22 0 -64 -5 -93 -11 -32 -7 -56 -8 -62 -2 -5 5 6 33
27 69 52 87 62 116 52 143 -5 13 -18 26 -29 29 -26 7 -26 10 15 63 87 112 89
117 71 145 -9 14 -21 25 -26 25 -20 0 -9 26 28 66 20 23 59 67 86 98 47 55 49
57 68 40 15 -15 25 -16 56 -8z m1691 -60 c7 -8 27 -18 44 -22 18 -3 70 -24
116 -45 46 -22 87 -39 92 -39 4 0 37 -13 72 -30 36 -16 68 -30 71 -30 3 0 35
-13 71 -30 36 -16 70 -30 75 -30 26 0 16 -22 -17 -39 -44 -23 -195 -174 -244
-245 -19 -27 -52 -74 -73 -105 -81 -117 -113 -169 -153 -251 -72 -150 -131
-312 -185 -505 -17 -60 -38 -132 -48 -160 -10 -27 -30 -97 -45 -155 -15 -58
-34 -118 -41 -135 -7 -16 -29 -73 -49 -125 -69 -179 -123 -279 -177 -330 -25
-23 -43 -26 -35 -7 4 11 -19 114 -36 157 -8 21 -70 291 -72 315 -1 6 -5 48 -9
95 -13 155 -28 222 -67 302 -21 42 -43 79 -49 83 -7 4 -1 18 15 37 14 16 25
39 25 50 0 18 52 94 85 123 36 32 65 85 65 118 0 30 8 45 43 79 74 74 95 106
102 156 4 33 16 59 36 83 86 97 99 118 110 167 7 34 23 67 46 94 41 49 53 77
53 122 0 24 9 41 36 67 54 52 78 104 65 141 -16 45 -14 65 11 88 26 24 51 26
67 6z m-6909 -18 c25 -18 33 -20 55 -10 36 17 45 15 45 -8 0 -11 9 -47 19 -78
11 -32 22 -79 26 -106 3 -26 10 -57 16 -68 8 -15 8 -27 0 -45 -17 -37 -13 -95
9 -131 19 -31 19 -36 5 -90 -8 -31 -24 -84 -35 -117 -35 -101 -90 -324 -90
-365 0 -59 -7 -70 -42 -63 -21 4 -37 0 -60 -17 l-30 -22 -20 20 -21 20 -38
-20 c-48 -25 -104 -29 -105 -8 0 8 -5 24 -10 35 -9 19 -11 165 -3 255 3 33 -3
58 -20 92 -21 41 -23 56 -18 120 3 41 1 82 -5 91 -16 29 -16 132 -1 189 14 52
13 96 -5 221 l-8 58 28 -7 c19 -4 37 0 54 10 18 12 29 14 43 6 35 -18 68 -11
111 25 49 41 61 42 100 13z m4950 -31 c0 -8 -9 -22 -20 -32 -31 -28 -37 -81
-11 -109 28 -29 27 -35 -13 -78 -90 -97 -99 -147 -32 -159 31 -6 29 -23 -9
-75 -61 -84 -74 -106 -69 -118 6 -16 -22 -39 -66 -56 -74 -29 -258 -124 -313
-163 -31 -22 -59 -38 -61 -36 -2 2 2 33 9 68 14 66 11 91 -10 91 -21 0 -32
-22 -53 -110 -20 -83 -63 -209 -101 -300 -27 -63 -67 -201 -86 -294 -18 -90
-11 -167 25 -269 20 -56 50 -184 50 -213 0 -22 -18 -16 -25 9 -7 21 -19 51
-110 270 -45 109 -86 180 -164 282 -34 43 -61 82 -61 86 0 4 7 14 15 22 7 8
17 28 21 43 8 34 128 364 150 411 8 17 14 34 14 39 0 21 149 297 186 344 51
65 144 150 210 192 80 51 302 129 420 148 31 5 59 12 62 15 11 11 42 5 42 -8z
m1510 -67 c0 -59 -1 -60 -60 -123 -53 -57 -61 -72 -74 -130 -12 -58 -22 -76
-80 -145 -53 -65 -67 -89 -72 -125 -5 -34 -15 -54 -41 -79 -48 -47 -78 -95
-97 -158 -12 -40 -32 -72 -74 -118 l-58 -63 -40 27 c-67 46 -142 76 -164 64
-10 -5 -35 -10 -54 -10 -32 0 -36 3 -36 25 0 42 -37 75 -85 75 -22 0 -49 6
-60 13 -29 20 -155 20 -176 1 -9 -8 -34 -17 -55 -20 -59 -9 -124 -35 -124 -50
0 -7 -6 -11 -14 -8 -8 3 -19 -3 -26 -15 -6 -12 -17 -21 -25 -21 -9 0 -24 -15
-35 -32 -19 -33 -21 -33 -128 -44 -118 -13 -148 -26 -199 -84 -44 -51 -54 -75
-51 -120 1 -31 -4 -46 -25 -67 -16 -18 -29 -45 -33 -73 -4 -25 -15 -56 -24
-70 -10 -14 -21 -41 -25 -60 -4 -19 -18 -48 -31 -63 -13 -16 -24 -34 -24 -40
0 -7 -12 -24 -27 -38 -63 -60 -125 -206 -107 -253 3 -8 0 -17 -6 -21 -6 -4
-17 9 -26 32 -9 21 -37 83 -63 138 -67 140 -76 188 -56 309 17 110 50 236 97
380 l33 99 90 48 c129 69 380 193 450 222 50 20 82 25 190 30 119 5 328 35
400 57 17 5 54 17 84 26 29 9 62 25 72 35 23 23 38 24 67 3 37 -26 62 -10 62
40 0 40 2 43 28 44 26 0 30 -4 41 -49 15 -57 47 -75 81 -44 25 23 25 41 1 48
-27 7 -34 65 -9 78 35 19 62 7 69 -30 9 -43 27 -60 72 -68 49 -8 60 17 23 52
-34 32 -33 43 9 60 22 10 43 31 60 59 26 45 62 66 113 66 14 0 34 7 44 16 16
16 18 16 24 0 7 -19 39 -21 50 -4 4 7 7 31 5 55 -2 35 2 47 23 66 14 14 26 28
26 32 0 25 37 85 53 85 14 0 17 -9 17 -60z m-8230 -1 c0 -6 33 -48 74 -93 62
-71 74 -90 80 -131 4 -26 10 -53 13 -61 3 -7 -9 -20 -27 -29 -18 -9 -43 -29
-56 -43 -26 -28 -84 -142 -84 -164 0 -10 -2 -10 -9 1 -13 20 -14 544 -1 536 5
-3 10 -11 10 -16z m7440 -330 c0 -12 -40 -36 -72 -44 -23 -6 -28 -4 -28 11 0
30 13 42 45 46 35 4 55 0 55 -13z m-2444 -25 c66 -39 84 -76 89 -181 3 -87 4
-88 39 -116 36 -29 45 -54 25 -74 -16 -16 68 -145 149 -228 37 -38 101 -97
142 -130 116 -94 237 -262 319 -445 112 -248 162 -426 191 -675 5 -49 14 -128
20 -175 17 -143 30 -336 35 -535 5 -145 10 -193 21 -206 20 -22 18 -29 -9 -29
-34 0 -135 70 -182 126 -103 122 -285 286 -380 341 -73 43 -189 137 -289 235
-32 32 -62 58 -66 58 -16 0 -121 159 -155 234 -55 121 -126 390 -110 416 10
16 31 12 50 -10 22 -24 60 -26 69 -4 4 9 9 64 13 123 3 58 11 118 17 133 l11
27 60 -29 c33 -16 90 -43 127 -60 37 -17 103 -58 148 -91 134 -102 289 -329
340 -499 13 -46 22 -58 54 -75 35 -19 38 -19 50 -2 17 23 2 74 -67 228 -36 79
-143 240 -212 317 -78 88 -249 197 -372 237 -47 15 -173 96 -181 116 -2 4 -13
20 -24 34 l-20 26 -25 -22 c-13 -13 -22 -28 -19 -34 6 -15 -11 -42 -20 -32 -4
4 -6 34 -5 67 1 33 -1 66 -6 73 -4 6 -9 23 -11 37 -1 14 -7 37 -13 52 -6 15
-9 35 -5 43 3 9 -11 65 -31 126 -36 108 -37 111 -25 180 7 39 23 90 37 113 21
37 35 47 95 70 64 26 92 28 139 15 8 -2 18 8 23 24 14 38 -5 56 -68 68 -54 10
-82 3 -146 -39 -24 -15 -44 -22 -57 -17 -30 9 -81 63 -75 79 3 9 -3 14 -19 14
-27 0 -87 23 -87 33 0 4 46 27 103 53 102 47 102 47 185 41 65 -4 94 -11 128
-31z m-4754 -21 c14 -13 18 -31 18 -87 0 -53 5 -82 21 -111 12 -23 22 -65 24
-100 2 -33 11 -80 21 -105 9 -25 22 -76 29 -115 7 -38 15 -78 19 -87 6 -13 1
-19 -21 -23 -15 -4 -44 -15 -65 -25 l-36 -18 -5 111 c-3 62 -9 148 -15 192
-12 92 -23 385 -14 385 3 0 14 -7 24 -17z m4431 -206 l38 -33 -28 -59 c-25
-53 -28 -71 -28 -155 1 -63 7 -110 18 -140 16 -43 16 -45 -5 -67 -15 -16 -33
-23 -58 -23 -99 0 -144 118 -104 272 24 96 98 239 122 238 4 -1 24 -15 45 -33z
m931 -142 c11 -8 28 -15 38 -15 26 0 23 -21 -22 -159 -22 -67 -40 -127 -40
-134 0 -7 -6 -21 -13 -31 -13 -17 -19 -14 -93 46 -112 91 -224 212 -224 244 0
6 24 16 53 22 218 46 270 51 301 27z m1595 -84 c13 -7 40 -13 60 -13 20 0 39
-5 43 -11 15 -23 8 -37 -19 -37 -38 0 -78 -22 -78 -42 0 -9 -4 -20 -8 -24 -30
-30 49 -96 162 -136 74 -26 211 -100 211 -114 0 -12 -43 -34 -68 -34 -31 0
-219 -100 -259 -137 -41 -39 -70 -106 -75 -173 -2 -26 2 -37 17 -45 18 -8 20
-15 13 -45 -20 -91 -20 -107 1 -113 19 -5 19 -6 4 -48 -16 -45 -23 -142 -11
-154 3 -4 14 -8 25 -9 15 -3 17 -11 15 -52 -2 -27 2 -71 8 -99 9 -40 9 -61 -3
-105 -9 -34 -11 -61 -6 -72 13 -25 11 -78 -6 -123 -18 -52 -18 -105 0 -129 18
-23 21 -161 5 -216 -16 -57 -15 -154 3 -181 21 -32 22 -64 2 -184 -16 -96 -15
-103 5 -204 20 -95 21 -114 10 -198 -8 -65 -8 -98 -1 -112 6 -11 8 -39 5 -65
-4 -29 -2 -58 8 -83 12 -31 13 -53 5 -120 -10 -77 -9 -86 12 -132 22 -45 23
-54 12 -113 -15 -87 -14 -119 5 -175 14 -41 14 -53 3 -83 -7 -19 -14 -69 -15
-110 -1 -41 -5 -101 -9 -134 -7 -48 -5 -65 10 -92 19 -35 19 -31 -16 -151 -11
-36 -10 -47 6 -82 16 -37 17 -47 5 -95 -13 -56 -11 -78 11 -133 11 -27 10 -40
-4 -86 -21 -65 -21 -104 -3 -148 12 -28 12 -39 0 -72 -18 -52 -18 -86 2 -144
19 -54 19 -110 3 -196 -10 -49 -9 -64 6 -103 13 -35 15 -51 7 -72 -18 -47 -24
-127 -12 -171 9 -33 8 -54 -6 -108 -11 -46 -15 -91 -12 -152 5 -80 3 -89 -24
-137 -30 -54 -34 -84 -17 -132 9 -25 6 -41 -15 -94 -14 -36 -26 -79 -26 -97 0
-37 -17 -47 -57 -33 -20 7 -27 15 -26 31 2 15 -3 21 -16 21 -35 0 -54 34 -46
87 6 43 3 52 -19 76 -23 25 -24 33 -23 124 2 86 -1 103 -22 141 -22 40 -23 48
-13 94 16 65 15 98 -2 139 -8 21 -10 42 -5 54 13 33 10 138 -5 158 -9 12 -11
29 -6 57 4 22 5 51 2 65 -2 14 1 39 8 55 10 25 9 39 -5 82 -9 29 -13 54 -8 55
14 5 8 542 -7 591 -10 33 -11 50 -2 81 16 53 15 71 -8 124 -18 39 -19 52 -10
94 9 36 8 59 -1 92 -8 29 -9 46 -3 48 6 2 9 34 7 76 -5 99 -4 207 2 216 2 5 1
47 -3 94 -7 73 -5 98 12 153 17 58 18 73 7 127 -17 87 -16 113 4 190 16 59 16
74 5 122 -10 41 -10 67 -2 107 10 54 7 104 -9 114 -14 8 -10 96 7 153 13 45
13 61 3 102 -10 39 -10 57 0 96 7 26 13 64 12 83 -1 19 -1 71 0 115 2 155 1
210 -6 253 -5 31 -2 56 11 90 20 53 22 128 5 161 -9 16 -8 37 3 94 15 69 14
74 -6 116 -21 44 -21 45 -3 110 29 103 30 145 6 185 -23 37 -23 39 24 142 30
66 31 88 4 138 -19 36 -19 39 -4 56 9 10 23 16 31 13 18 -7 18 17 -1 91 -13
51 -14 62 -1 80 16 25 5 56 -19 56 -21 0 -19 4 15 41 27 30 33 32 87 30 49 -2
62 -7 87 -32 33 -34 56 -25 56 22 0 28 -15 49 -54 74 -31 21 -128 8 -172 -21
-19 -13 -39 -24 -43 -24 -5 0 -18 28 -31 62 -12 33 -33 72 -46 85 -13 13 -24
27 -24 32 0 10 -49 62 -84 89 -16 12 -23 22 -16 22 13 0 80 66 80 79 1 12 76
41 122 47 26 4 58 14 72 23 29 19 102 15 145 -8z m340 -112 c52 -27 156 -127
224 -216 26 -34 53 -66 60 -70 16 -10 67 -79 67 -90 0 -4 12 -31 27 -58 32
-61 42 -97 53 -200 14 -125 29 -225 39 -259 6 -17 22 -78 36 -136 14 -58 33
-130 42 -160 8 -30 15 -74 14 -97 -2 -57 13 -91 43 -99 18 -4 34 -25 64 -87
38 -80 39 -84 34 -167 -4 -78 -8 -90 -43 -142 -22 -31 -39 -61 -39 -65 0 -19
-71 -77 -97 -79 -16 -1 -45 -10 -67 -19 -36 -15 -42 -15 -97 1 -33 10 -59 21
-59 26 0 4 -6 5 -13 2 -8 -3 -20 2 -27 11 -7 8 -27 15 -44 15 -39 0 -46 6 -76
54 -21 35 -22 42 -11 85 20 80 21 93 5 130 -10 24 -13 50 -9 78 7 51 -10 115
-40 147 -27 29 -44 108 -34 156 20 92 21 189 5 264 -10 42 -25 83 -33 92 -24
23 -95 11 -222 -37 -66 -25 -108 -36 -114 -30 -11 11 8 96 26 118 5 7 7 22 4
32 -4 16 6 22 62 40 105 32 267 56 294 44 31 -15 57 1 57 34 l0 26 -100 -7
c-107 -7 -199 -24 -280 -51 -28 -9 -53 -15 -56 -13 -2 3 3 28 12 56 12 35 23
52 38 55 11 3 48 15 81 27 59 20 215 48 251 45 11 -2 27 -6 36 -9 12 -5 22 0
34 19 17 26 17 28 -1 41 -11 8 -26 12 -35 8 -8 -3 -53 -8 -100 -11 -63 -4
-119 -17 -215 -48 -71 -24 -131 -42 -133 -41 -1 2 7 24 19 50 13 30 36 58 62
77 55 40 186 102 262 123 78 23 89 29 93 53 3 21 -53 93 -72 93 -6 0 -38 18
-71 40 -33 22 -65 40 -72 40 -24 0 -139 60 -162 84 l-24 25 24 5 c13 3 44 10
69 15 67 15 158 6 209 -20z m-807 -58 c7 -6 33 -27 58 -47 55 -45 85 -84 107
-143 9 -25 21 -52 26 -58 5 -7 6 -20 3 -29 -5 -14 -10 -13 -39 6 -94 63 -164
87 -284 100 -65 7 -119 14 -121 15 -9 7 31 75 64 110 29 31 49 42 88 51 57 11
79 10 98 -5z m-4928 -100 c7 -14 12 -46 12 -71 -1 -43 -2 -45 -33 -48 -17 -2
-37 -10 -43 -18 -17 -20 -48 -17 -55 5 -9 28 -24 30 -85 10 -79 -26 -92 -25
-80 7 6 14 10 40 10 57 0 18 7 42 15 54 18 25 72 40 88 24 15 -15 69 -14 91 2
27 19 65 9 80 -22z m-1405 -10 c20 -74 19 -74 -26 -82 -23 -4 -55 -15 -72 -24
-17 -8 -43 -20 -57 -25 l-27 -11 7 43 c4 24 15 55 26 70 11 15 20 31 20 36 0
19 25 30 71 29 48 -1 50 -2 58 -36z m6238 -105 c132 -20 232 -87 247 -163 3
-18 9 -47 12 -63 6 -30 5 -31 -22 -24 -16 3 -42 19 -59 34 -81 73 -182 110
-302 110 -82 0 -93 2 -93 18 1 30 26 64 61 83 41 22 42 22 156 5z m-6272 -57
c5 -14 12 -18 29 -13 54 13 99 -66 112 -196 3 -39 14 -76 25 -92 23 -33 24
-71 4 -128 -22 -64 -19 -100 16 -155 30 -47 31 -50 20 -105 -6 -31 -9 -70 -5
-87 6 -28 4 -30 -23 -26 -21 3 -42 -5 -80 -31 -56 -38 -72 -42 -105 -25 -47
25 -86 19 -138 -23 -27 -22 -50 -44 -50 -49 0 -6 -4 -7 -10 -4 -13 8 -13 111
0 135 8 15 6 22 -12 34 -19 13 -21 24 -21 93 1 58 -5 96 -24 151 -20 57 -24
85 -20 125 11 91 24 140 54 207 17 36 38 85 47 110 14 41 22 48 83 76 72 33
89 34 98 3z m1286 -13 c20 -26 44 -25 84 0 13 8 35 11 56 8 l36 -6 18 -122 c9
-66 21 -146 26 -176 5 -30 11 -71 14 -90 3 -19 8 -53 11 -74 3 -22 3 -113 -1
-203 l-7 -164 -34 -14 c-29 -12 -37 -12 -66 2 -29 15 -36 15 -77 0 -44 -16
-46 -15 -68 5 -19 18 -30 20 -80 15 -32 -3 -63 -3 -70 1 -6 4 -16 41 -22 83
-12 79 -8 120 26 222 14 43 15 74 5 251 -6 112 -8 213 -5 225 6 25 71 60 112
61 13 0 31 -11 42 -24z m4981 -93 c39 -15 85 -43 175 -106 17 -12 36 -32 42
-45 15 -31 14 -69 -1 -74 -12 -4 -68 23 -164 80 -72 42 -149 62 -242 62 -78 0
-80 1 -74 23 9 36 32 66 55 70 58 11 169 6 209 -10z m-7417 -235 c14 -142 33
-205 87 -284 65 -98 192 -177 303 -190 54 -7 56 -8 38 -24 -10 -9 -46 -27 -79
-39 -54 -20 -67 -30 -110 -87 -27 -35 -55 -64 -64 -64 -8 1 -40 9 -70 20 -30
11 -62 19 -71 20 -9 0 -32 18 -52 40 -33 37 -39 40 -74 34 -43 -7 -59 5 -72
53 -5 18 -19 34 -42 44 -33 17 -34 18 -34 80 0 62 -1 64 -37 88 -36 23 -38 27
-38 75 0 48 6 64 52 144 14 24 15 35 6 64 -24 80 10 123 115 142 42 8 85 19
95 25 9 5 21 6 25 2 4 -4 14 -69 22 -143z m5635 132 c0 -11 -4 -20 -10 -20 -5
0 -10 9 -10 20 0 11 5 20 10 20 6 0 10 -9 10 -20z m2110 -20 c0 -3 -8 -16 -17
-29 -16 -23 -17 -23 -24 -5 -14 34 -10 44 16 42 14 -1 25 -5 25 -8z m-360 -33
c74 -34 120 -68 120 -89 0 -11 12 -40 26 -64 33 -56 60 -57 57 -1 -2 33 0 37
21 37 13 0 29 6 35 13 27 34 101 -14 101 -65 0 -16 -11 -50 -24 -77 -29 -55
-45 -151 -27 -151 6 0 16 -12 22 -26 7 -21 4 -47 -16 -115 -30 -106 -31 -119
-5 -152 26 -32 27 -62 3 -52 -10 4 -30 10 -45 13 -15 2 -33 10 -39 18 -14 17
-59 18 -93 2 -21 -9 -29 -8 -43 4 -31 26 -54 29 -84 11 -26 -16 -31 -16 -39
-3 -15 23 -12 46 11 85 21 36 21 37 4 101 -17 61 -17 70 -1 149 20 102 12 131
-35 121 -24 -5 -29 -2 -29 14 0 25 41 27 136 4 55 -12 69 -13 80 -2 18 18 4
38 -32 44 -16 2 -43 9 -61 15 -17 5 -79 11 -138 12 -94 2 -109 0 -119 -16 -9
-14 -8 -21 5 -30 13 -10 14 -15 4 -24 -10 -9 -7 -29 15 -95 23 -66 37 -90 68
-118 25 -22 45 -52 52 -77 11 -37 10 -46 -9 -85 -25 -53 -26 -80 -5 -114 15
-22 15 -32 5 -79 -9 -41 -9 -59 -1 -76 17 -31 -1 -63 -43 -76 -52 -16 -83 -6
-106 33 -13 21 -30 36 -48 39 -43 9 -57 19 -72 51 -8 16 -22 39 -32 52 -13 18
-15 30 -9 54 13 42 12 91 0 168 -6 36 -12 133 -13 215 -2 168 3 184 84 270 20
22 39 49 41 60 3 16 13 21 58 25 88 8 171 -1 220 -23z m-6571 -184 c-1 -51 5
-80 21 -117 16 -36 23 -71 24 -136 2 -59 7 -95 18 -111 10 -16 12 -31 7 -44
-15 -40 -9 -115 13 -158 12 -23 26 -51 32 -62 10 -22 19 -94 18 -164 0 -57
-22 -77 -61 -57 -14 8 -46 17 -70 21 -125 21 -360 155 -419 240 -12 17 -33 44
-48 62 l-26 32 56 16 c78 23 176 110 176 157 0 37 60 139 112 191 42 42 58 65
58 85 0 25 64 111 83 112 4 0 7 -30 6 -67z m7513 -218 c19 -60 19 -111 2 -277
-6 -55 -8 -58 -34 -58 -19 0 -33 -8 -44 -25 -22 -33 -35 -32 -75 10 -32 34
-64 45 -76 25 -3 -5 -10 -10 -16 -10 -11 0 -12 57 0 64 16 10 19 61 5 95 -18
44 -17 85 4 145 16 46 21 50 77 71 33 13 78 22 99 22 40 -2 40 -2 58 -62z
m-6998 -236 l18 -21 22 21 c29 27 31 27 46 -8 22 -54 10 -83 -45 -110 -92 -45
-118 -51 -136 -35 -22 20 -78 10 -124 -21 -18 -13 -48 -25 -66 -27 -29 -3 -34
1 -42 27 -5 17 -16 42 -24 57 -12 24 -12 32 2 65 25 59 54 67 117 34 42 -23
92 -15 123 19 25 28 85 27 109 -1z m1073 -9 c18 -26 56 -26 93 1 l28 22 30
-22 c35 -24 59 -26 86 -6 10 8 23 12 28 9 8 -5 3 -77 -8 -115 -6 -21 -72 -19
-104 4 -31 22 -48 22 -101 -2 -44 -20 -44 -20 -66 1 -24 22 -60 27 -107 15
-24 -7 -28 -5 -22 8 3 9 6 32 6 50 0 27 6 38 28 50 35 20 90 12 109 -15z
m5265 -160 c25 0 26 -2 18 -31 -5 -18 -11 -33 -12 -35 -2 -1 -25 4 -51 13 -39
13 -53 13 -74 4 -22 -10 -29 -9 -49 10 -22 21 -44 22 -86 4 -26 -11 -46 44
-22 62 13 9 24 9 54 -3 35 -14 41 -14 81 4 l43 20 35 -24 c20 -13 48 -24 63
-24z m-835 25 c0 -8 -4 -15 -9 -15 -10 0 -11 14 -1 23 9 10 10 9 10 -8z m2264
-38 c7 -18 24 -33 42 -39 19 -7 34 -23 43 -44 8 -18 23 -38 34 -44 11 -6 27
-25 36 -43 19 -36 48 -60 83 -67 13 -3 29 -14 35 -24 6 -11 23 -40 39 -65 31
-51 34 -86 12 -138 -9 -20 -13 -44 -10 -54 4 -12 -12 -45 -46 -94 -56 -81 -79
-100 -110 -92 -14 4 -30 -7 -57 -41 -84 -103 -105 -122 -146 -134 -22 -6 -54
-22 -69 -35 -43 -35 -67 -30 -142 34 -21 18 -64 43 -95 54 -51 19 -59 25 -83
73 -18 38 -42 66 -84 98 -42 32 -59 51 -61 71 l-3 27 37 -25 c20 -14 49 -25
64 -25 14 0 48 -7 74 -16 46 -16 48 -16 105 10 39 17 68 24 87 20 37 -7 73 29
144 146 68 111 71 120 76 223 4 86 3 90 -37 174 -31 64 -38 88 -28 93 17 11
46 -9 60 -43z m-6761 17 c27 -32 48 -35 89 -14 50 25 66 25 100 0 16 -10 50
-21 77 -23 59 -5 58 18 13 -252 -14 -86 -54 -204 -91 -270 -69 -122 -161 -326
-169 -373 -14 -85 -11 -247 4 -285 l14 -32 -54 0 c-43 0 -58 4 -71 21 -9 12
-25 24 -34 27 -15 5 -17 19 -17 91 1 46 -2 90 -6 96 -4 7 -2 16 6 20 10 7 9
16 -5 47 -16 37 -16 44 0 138 10 55 19 153 20 218 2 65 9 135 16 155 9 25 13
96 13 222 1 210 1 213 15 205 5 -3 20 1 32 9 28 20 32 20 48 0z m4609 -3 c11
-7 14 -33 12 -119 -2 -75 3 -129 14 -172 20 -76 32 -96 65 -110 16 -7 35 -29
48 -56 26 -54 74 -79 134 -71 21 3 38 1 38 -3 0 -5 2 -14 5 -22 4 -10 -12 -14
-66 -16 -63 -3 -74 -1 -105 23 -63 48 -89 5 -33 -53 33 -34 37 -35 109 -36 60
-1 68 -28 15 -50 -24 -11 -40 -26 -48 -46 -6 -16 -15 -30 -19 -30 -4 0 -20
-13 -35 -30 -33 -37 -67 -39 -117 -5 -20 14 -43 25 -49 25 -25 0 -34 21 -27
65 6 40 5 45 -12 45 -15 0 -18 8 -19 53 0 63 -16 352 -25 458 -6 72 -5 78 20
102 27 27 67 57 76 57 3 0 11 -4 19 -9z m1206 -11 c24 -26 73 -26 101 1 16 15
30 20 46 16 24 -6 68 -42 68 -55 0 -10 -82 -52 -102 -52 -9 0 -19 4 -23 9 -9
16 -95 24 -132 13 l-35 -11 6 41 c4 23 9 45 12 50 9 15 40 9 59 -12z m-6747
-11 c7 -11 10 -29 7 -40 -5 -14 4 -33 29 -63 32 -40 34 -47 26 -77 -14 -49
-12 -101 5 -136 18 -36 20 -72 10 -178 -6 -66 -5 -87 9 -113 14 -27 15 -41 5
-104 -8 -54 -8 -85 1 -125 8 -39 8 -57 0 -73 -13 -25 -6 -104 20 -207 18 -72
15 -88 -10 -58 -16 19 -52 13 -86 -14 -17 -13 -41 -21 -66 -21 -21 0 -59 -5
-84 -11 -37 -10 -48 -9 -70 6 -21 13 -31 14 -56 6 -17 -6 -33 -11 -34 -11 -2
0 -4 30 -4 67 0 59 -3 70 -27 96 -26 26 -28 34 -27 110 0 45 4 125 8 177 8 89
7 100 -19 174 -29 84 -29 101 1 207 l18 66 -33 49 c-24 37 -30 55 -25 74 8 27
12 60 13 102 1 21 11 33 55 57 68 40 108 48 125 27 19 -22 44 -20 99 9 57 31
93 32 110 4z m6074 -86 c15 -14 24 -14 57 -5 52 16 80 15 87 -3 9 -23 43 -29
64 -10 17 15 19 15 25 -4 3 -12 -3 -51 -15 -90 -16 -48 -20 -82 -16 -110 3
-23 9 -60 12 -83 4 -23 1 -73 -7 -111 -10 -54 -10 -81 -1 -124 9 -45 8 -67 -5
-123 -14 -59 -15 -75 -3 -109 7 -21 10 -51 6 -66 -6 -23 -10 -25 -40 -19 -19
3 -42 2 -51 -4 -12 -6 -27 -6 -46 1 -20 8 -35 8 -54 -1 -21 -10 -30 -10 -42 0
-8 6 -36 12 -61 13 -44 2 -47 4 -44 26 2 13 8 29 12 34 14 17 14 68 1 123 -10
40 -11 63 -2 97 11 45 9 56 -30 153 -13 30 -11 36 19 91 17 32 32 66 32 74 0
9 -11 41 -25 71 -14 30 -25 60 -25 65 0 6 12 33 27 60 36 64 89 87 125 54z
m-400 -28 c15 -4 34 -18 43 -31 18 -28 56 -49 108 -58 20 -4 37 -13 37 -20 0
-7 11 -34 25 -60 l25 -48 -30 -53 -30 -53 -48 6 c-55 5 -69 14 -86 57 -8 18
-30 42 -49 54 -43 27 -57 63 -57 153 0 61 2 69 18 64 9 -3 29 -8 44 -11z
m1279 -5 c10 -6 19 -20 19 -31 0 -11 7 -34 16 -51 14 -27 14 -36 0 -99 -14
-63 -14 -73 0 -108 13 -33 14 -56 6 -136 -10 -98 -7 -129 11 -153 18 -23 -12
-179 -36 -187 -7 -2 -25 -6 -40 -10 -16 -3 -40 -17 -53 -30 -29 -29 -59 -32
-73 -8 -8 16 -13 16 -65 -2 -30 -10 -59 -16 -63 -12 -11 11 -6 209 6 240 17
43 13 102 -8 139 -21 36 -21 42 -1 240 12 115 11 129 -4 152 -25 39 -18 74 10
46 6 -6 25 -5 52 2 36 9 50 8 78 -5 31 -15 36 -15 76 3 53 23 46 22 69 10z
m-7607 -121 c6 -5 11 -14 12 -21 1 -7 6 -28 10 -47 l7 -34 -33 6 c-18 4 -41 7
-51 7 -13 0 -19 7 -19 24 0 14 -4 36 -9 49 -6 14 -7 28 -4 31 8 8 75 -4 87
-15z m5270 -42 c28 -24 91 -70 141 -102 110 -71 183 -134 345 -296 151 -153
191 -180 277 -187 62 -4 63 -4 80 27 21 36 36 39 60 11 10 -11 23 -20 31 -20
24 0 -87 -89 -180 -144 -252 -148 -478 -239 -593 -239 -114 0 -119 3 -154 101
-32 92 -57 185 -71 267 -5 28 -13 64 -18 80 -9 27 -21 151 -28 295 -4 94 29
250 53 250 3 0 29 -20 57 -43z m1268 -302 c12 -26 4 -46 -11 -29 -5 5 -12 19
-16 32 -9 31 12 29 27 -3z m-4 -164 c27 -61 28 -80 1 -131 -15 -29 -18 -44
-11 -53 21 -24 25 -90 8 -122 -21 -40 -20 -68 5 -116 l20 -40 -22 -45 c-17
-37 -20 -54 -14 -92 4 -26 6 -63 6 -82 -1 -19 -3 -80 -5 -135 -1 -55 -6 -130
-11 -166 -6 -53 -4 -78 10 -123 15 -47 16 -63 6 -95 -14 -49 -14 -114 0 -128
17 -17 12 -91 -10 -151 -41 -111 -115 -199 -260 -307 -164 -123 -224 -177
-273 -247 -37 -52 -43 -57 -52 -41 -26 45 -4 352 43 607 18 96 112 414 131
441 3 6 15 33 24 60 10 28 24 65 33 83 23 53 68 183 103 302 12 41 28 88 36
103 15 31 12 168 -8 270 -10 53 -9 60 9 78 18 18 34 21 113 20 28 -1 74 29 78
51 1 8 -8 30 -21 50 l-24 35 26 10 c14 6 28 11 31 12 3 1 15 -21 28 -48z
m1077 -225 c42 -18 46 -46 10 -81 -27 -28 -62 -32 -91 -10 -24 18 -48 19 -82
1 -15 -7 -41 -16 -58 -19 -31 -6 -32 -5 -37 31 -8 65 46 102 90 60 l25 -23 46
27 c56 32 54 32 97 14z m-938 -29 c15 -25 56 -28 79 -6 19 17 22 18 34 4 16
-19 39 -19 61 1 11 10 25 13 38 9 18 -5 21 -15 21 -61 0 -60 -7 -64 -50 -33
-28 21 -30 21 -63 5 -44 -20 -61 -20 -92 0 -21 14 -26 14 -54 0 -32 -17 -61
-21 -61 -8 0 11 24 75 33 90 11 16 44 15 54 -1z m841 -134 c28 -16 32 -16 72
2 l42 19 20 -24 c20 -25 20 -27 2 -148 -5 -34 -1 -52 17 -87 20 -38 22 -48 12
-77 -15 -41 -16 -370 -2 -415 7 -22 7 -44 0 -70 -9 -30 -8 -49 6 -92 13 -42
14 -62 6 -95 -10 -39 -9 -157 2 -203 7 -28 -2 -29 -35 -3 -32 25 -85 25 -117
0 -31 -24 -46 -25 -64 -4 -15 19 -63 12 -91 -13 -17 -15 -18 -14 -18 33 0 27
4 64 10 82 5 20 6 52 1 79 -7 36 -5 58 10 102 18 51 18 58 4 93 -18 46 -19
127 -3 197 10 44 9 56 -10 101 -20 47 -20 58 -11 131 10 69 9 86 -7 129 -14
40 -16 57 -8 79 9 21 8 34 -3 55 -10 20 -13 42 -8 78 6 44 9 49 29 45 11 -3
35 0 51 8 41 18 58 18 93 -2z m-819 -7 c21 -12 32 -12 74 1 43 13 51 12 71 -1
13 -8 39 -18 60 -21 20 -4 36 -9 36 -11 0 -1 -5 -26 -11 -55 -10 -44 -8 -60 6
-104 17 -49 17 -56 2 -118 -20 -78 -22 -157 -5 -203 10 -27 8 -49 -10 -125
-11 -51 -19 -96 -16 -101 3 -5 7 -100 10 -211 l4 -202 -30 -34 c-28 -33 -30
-34 -67 -23 -21 6 -63 14 -93 16 -99 10 -105 11 -113 24 -4 6 -15 12 -22 12
-19 0 -19 15 0 76 20 65 19 116 -2 152 -16 28 -16 33 1 83 18 53 18 56 -1 134
-15 63 -17 90 -10 130 11 59 12 324 2 377 -6 28 -2 47 14 82 16 32 20 54 16
78 -6 29 -3 36 17 45 30 15 38 15 67 -1z m-5872 -18 c-3 -8 -6 -5 -6 6 -1 11
2 17 5 13 3 -3 4 -12 1 -19z m-102 -69 c4 -5 18 -15 32 -20 23 -8 25 -13 19
-47 -3 -20 -6 -45 -6 -54 0 -23 -31 -23 -71 -2 -29 15 -32 14 -80 -17 -40 -25
-55 -30 -82 -25 -51 11 -75 9 -113 -9 -19 -9 -41 -14 -48 -12 -18 7 -40 91
-32 121 10 40 53 46 98 14 14 -10 27 -9 65 5 29 10 62 15 83 11 27 -4 43 0 70
20 38 28 55 32 65 15z m750 -39 c3 -5 27 -10 53 -11 26 0 67 -4 91 -7 41 -7
44 -9 47 -42 2 -19 15 -56 28 -81 14 -28 20 -52 16 -60 -5 -8 -10 -129 -13
-270 -4 -249 -5 -257 -28 -288 -23 -31 -61 -42 -75 -20 -4 7 -23 9 -52 5 -38
-5 -50 -2 -78 19 -18 14 -38 25 -44 25 -9 0 -11 21 -8 70 2 38 0 71 -5 73 -4
1 -8 32 -8 67 0 215 1 253 10 290 6 22 16 58 21 80 12 45 23 48 77 21 64 -32
91 -34 104 -10 13 25 -1 39 -37 39 -12 0 -27 7 -34 15 -7 8 -30 20 -51 27 -33
9 -39 15 -39 40 0 28 13 37 25 18z m4075 -80 c-1 -19 -12 -57 -25 -85 -28 -57
-30 -80 -10 -115 8 -14 14 -36 15 -49 0 -27 -44 -111 -98 -184 l-35 -49 7
-114 6 -115 -47 -82 c-46 -78 -48 -85 -47 -157 0 -41 3 -88 6 -105 6 -36 -2
-57 -64 -157 -64 -103 -78 -141 -85 -223 -6 -61 -10 -73 -38 -100 -45 -42 -85
-125 -85 -177 0 -36 -5 -46 -29 -63 -47 -31 -74 -88 -67 -139 6 -39 3 -47 -36
-96 -40 -50 -43 -58 -43 -114 0 -52 -5 -68 -33 -108 -18 -26 -37 -50 -42 -53
-22 -13 -50 -86 -50 -128 0 -48 -21 -84 -84 -138 -44 -39 -76 -104 -76 -155 0
-42 -29 -103 -70 -144 -21 -22 -30 -40 -30 -65 0 -52 -17 -85 -70 -140 -36
-37 -53 -64 -65 -106 -10 -38 -29 -71 -56 -100 -23 -24 -51 -67 -64 -96 -15
-33 -34 -57 -52 -66 -39 -21 -69 -56 -82 -98 -14 -43 -45 -74 -86 -83 -16 -4
-49 -27 -71 -52 -23 -24 -49 -44 -59 -44 -15 0 -47 -15 -147 -66 -14 -8 -44
-14 -67 -14 -29 0 -47 -7 -65 -25 -30 -30 -65 -32 -99 -5 -14 11 -34 20 -46
20 -41 0 -71 22 -83 63 -10 32 -19 43 -53 57 -43 19 -55 35 -55 75 0 13 -7 30
-15 38 -12 12 -12 26 -5 73 14 83 15 78 -40 141 -72 82 -70 79 -87 129 -15 44
-14 103 3 250 5 45 2 59 -25 110 -26 51 -32 75 -37 162 -4 61 -3 102 2 102 17
0 74 -83 75 -109 0 -14 4 -34 8 -45 4 -10 4 -40 1 -67 -7 -55 5 -84 55 -129
41 -38 55 -73 55 -141 0 -72 22 -116 74 -149 37 -22 58 -62 61 -115 3 -46 17
-60 83 -85 30 -12 61 -28 68 -38 10 -14 18 -15 65 -4 73 17 114 47 150 110 19
32 52 68 86 93 60 45 90 86 99 139 8 42 31 90 43 90 5 0 29 27 54 59 31 42 49
79 61 126 21 83 33 108 84 165 53 61 68 94 75 168 7 69 14 84 61 146 18 24 38
58 45 77 7 19 16 41 21 49 4 9 11 31 15 50 4 19 14 44 21 55 8 11 14 25 14 32
0 6 12 25 26 40 45 48 84 111 84 134 0 33 19 85 63 172 21 43 36 81 33 84 -3
3 10 24 29 45 44 52 65 98 65 142 0 27 9 46 36 76 38 42 64 110 64 169 0 27
11 51 41 91 51 68 59 88 59 150 0 45 3 52 40 81 46 37 65 84 51 122 -8 21 -6
29 13 49 40 40 66 103 66 158 0 45 4 55 30 77 44 37 53 57 41 99 -9 33 -7 39
22 71 39 42 56 96 46 143 -6 24 -4 39 5 50 31 35 57 102 51 130 -4 16 -1 38 5
49 9 18 21 21 88 22 42 1 91 4 107 8 36 8 45 -2 45 -49z m-2410 42 c0 -4 -11
-24 -25 -44 -14 -20 -25 -41 -25 -46 0 -13 -39 -46 -46 -39 -9 9 23 82 34 80
6 -1 15 11 22 27 11 27 40 43 40 22z m-2455 -112 c22 -11 47 -18 56 -15 9 3
22 -2 29 -11 17 -19 17 -122 0 -183 -8 -31 -8 -47 -1 -54 6 -6 11 -27 11 -47
0 -20 9 -72 20 -115 23 -90 26 -168 7 -184 -9 -7 -24 -8 -44 -2 -26 8 -38 4
-74 -20 -36 -24 -45 -26 -52 -14 -12 23 -60 18 -101 -10 -44 -30 -46 -30 -46
-5 0 18 -7 20 -61 20 l-61 0 6 28 c16 73 19 163 5 189 -19 34 -18 195 0 290
18 92 37 108 117 98 50 -6 58 -4 96 24 23 17 45 31 48 31 3 0 23 -9 45 -20z
m1635 -90 c0 -12 114 -87 157 -102 18 -7 33 -16 33 -21 0 -9 -86 1 -110 13 -8
4 -34 11 -58 15 -48 8 -61 27 -54 76 4 26 32 43 32 19z m-484 -31 c3 -5 18 -9
33 -9 15 0 31 -4 37 -9 5 -5 27 -14 49 -20 22 -7 49 -16 60 -21 11 -4 72 -24
137 -44 100 -32 153 -44 311 -73 35 -7 43 -20 23 -42 -13 -15 -14 -26 -6 -71
6 -29 14 -58 19 -64 5 -6 12 -36 16 -66 4 -30 13 -80 21 -110 25 -102 35 -203
39 -395 3 -104 9 -325 14 -490 8 -272 5 -445 -10 -459 -3 -3 -37 -1 -75 5 -64
10 -98 11 -167 8 -21 -1 -41 12 -86 55 -66 62 -99 70 -160 40 -26 -13 -49 -15
-110 -10 -68 6 -80 5 -101 -12 -23 -19 -23 -20 -4 -29 10 -6 36 -13 57 -17 38
-7 38 -7 22 -32 -14 -22 -15 -54 -6 -322 19 -551 21 -821 4 -837 -10 -11 -19
-12 -33 -5 -20 11 -45 74 -35 90 11 18 -23 22 -48 5 -15 -9 -28 -12 -31 -6
-20 32 -41 294 -41 516 0 244 6 339 29 478 14 89 9 143 -29 282 -13 50 -27
119 -30 155 -12 133 -11 541 2 715 20 280 35 539 37 671 2 66 6 126 9 131 8
12 44 6 53 -8z m-312 -578 c22 0 64 -3 91 -8 l50 -8 2 -47 c2 -40 -1 -50 -24
-68 -33 -26 -53 -25 -87 1 -24 19 -31 20 -51 9 -28 -15 -68 -7 -95 20 -11 11
-25 20 -31 20 -14 0 -7 39 15 92 l16 37 36 -24 c25 -17 50 -25 78 -24z m-774
24 c18 -10 30 -23 30 -36 0 -11 7 -48 16 -83 13 -51 13 -72 4 -117 -23 -108
-23 -117 0 -163 19 -39 20 -55 15 -128 -7 -80 -6 -85 25 -143 28 -53 31 -68
29 -130 -3 -99 -2 -101 30 -137 41 -48 48 -95 20 -142 -12 -21 -18 -41 -13
-45 5 -5 38 -11 74 -14 54 -5 69 -3 90 13 14 11 29 20 33 20 5 0 26 18 47 40
21 22 45 40 54 40 8 0 17 9 21 19 3 11 12 22 20 25 8 3 15 10 15 16 0 6 -4 8
-10 5 -12 -8 -13 7 -1 20 17 19 28 90 17 107 -7 12 -7 27 3 53 7 20 14 47 16
58 1 12 7 49 13 82 6 33 14 76 17 95 3 19 10 53 15 75 5 22 12 74 14 115 3 41
11 92 18 113 12 36 15 38 43 31 17 -4 50 -8 75 -8 25 -1 56 -7 69 -14 23 -14
58 -12 94 3 16 7 17 -4 11 -176 -3 -101 -9 -202 -14 -224 -5 -22 -14 -96 -20
-165 -14 -161 -24 -203 -65 -270 -19 -31 -40 -78 -47 -104 -9 -36 -22 -55 -48
-74 -56 -41 -110 -95 -126 -124 -12 -22 -22 -28 -49 -28 -28 0 -37 -6 -49 -29
-9 -16 -12 -31 -9 -35 4 -4 7 -46 8 -94 0 -73 5 -95 27 -137 22 -42 26 -66 29
-148 4 -88 2 -100 -15 -113 -11 -8 -29 -14 -40 -14 -11 0 -30 -10 -43 -22 -21
-20 -26 -20 -77 -9 -30 7 -70 9 -88 6 -28 -5 -39 -2 -65 24 -31 29 -34 30
-100 24 l-68 -6 28 30 c25 26 26 31 12 43 -19 16 -19 39 -1 66 9 13 15 56 18
124 3 90 6 111 27 144 34 54 35 80 5 96 -13 7 -36 31 -50 52 -33 47 -63 69
-127 93 -26 10 -61 33 -77 51 -29 34 -32 47 -45 183 -8 78 -21 105 -74 153
-46 41 -44 28 -45 243 -1 146 -2 151 -30 200 -26 44 -29 59 -27 125 3 115 2
114 49 121 22 3 47 11 55 18 11 8 33 10 76 5 40 -4 65 -3 75 5 7 6 35 10 62 9
51 -3 54 1 45 54 0 4 -16 10 -35 13 -26 5 -41 2 -64 -15 -24 -18 -34 -20 -50
-11 -27 14 -79 14 -88 0 -5 -9 -56 -9 -121 1 -2 0 -3 7 -3 15 0 9 -7 30 -16
46 -14 29 -14 32 3 45 16 12 21 11 41 -12 25 -28 51 -26 89 8 19 17 26 19 56
9 39 -13 72 -4 101 28 23 25 28 26 66 6z m97 -182 c-3 -10 -5 -2 -5 17 0 19 2
27 5 18 2 -10 2 -26 0 -35z m3523 -103 c0 -20 -7 -33 -21 -41 -19 -10 -20 -9
-14 13 4 12 9 31 11 41 8 28 24 20 24 -13z m3320 -1 c0 -9 -3 -37 -6 -62 -8
-56 -31 -69 -70 -38 -33 26 -45 26 -77 1 -34 -27 -51 -25 -72 6 -12 19 -23 25
-41 21 -20 -4 -24 0 -24 22 0 47 13 56 53 38 47 -23 63 -21 84 7 16 23 24 25
85 23 55 -2 68 -5 68 -18z m-1024 -4 c34 -17 60 -19 69 -5 10 16 43 11 57 -8
20 -28 48 -34 75 -17 27 18 38 14 46 -15 5 -20 -6 -25 -42 -21 -7 2 -31 -5
-52 -13 -50 -20 -78 -20 -101 1 -16 14 -24 14 -59 4 -48 -15 -59 -7 -59 46 0
22 5 33 18 36 9 3 18 5 18 6 1 0 15 -6 30 -14z m-2403 -117 c-4 -7 -12 -25
-18 -39 -5 -15 -35 -46 -65 -70 -37 -30 -64 -62 -81 -97 -17 -34 -50 -75 -92
-114 -52 -46 -67 -66 -67 -87 0 -36 -34 -67 -96 -87 -27 -9 -55 -21 -62 -27
-16 -13 -151 -11 -186 3 -15 5 -31 21 -36 34 -9 24 -24 30 -100 38 -20 2 -26
9 -28 33 -4 52 -22 103 -37 109 -19 7 -20 36 -1 36 7 0 29 -7 48 -15 21 -8 50
-12 71 -8 26 4 42 0 65 -17 24 -18 44 -22 94 -22 97 0 192 31 319 105 83 48
93 57 129 115 17 29 46 60 63 68 16 9 39 25 50 35 23 21 42 26 30 7z m2446
-22 c20 -18 23 -18 66 -1 39 14 51 15 76 5 47 -20 70 -75 69 -168 -1 -42 0
-203 2 -356 3 -267 2 -281 -17 -298 -11 -11 -26 -16 -35 -12 -35 15 -59 15
-89 -1 -26 -13 -39 -14 -66 -5 -18 6 -45 8 -60 4 -26 -6 -27 -5 -21 20 5 19 3
26 -8 26 -23 0 -29 53 -15 135 10 61 9 80 -2 107 -9 21 -13 59 -11 103 2 39 3
90 3 115 -4 324 -6 302 23 327 30 26 56 25 85 -1z m773 -36 c14 0 36 9 49 19
23 19 24 19 49 -1 18 -14 33 -18 56 -13 l32 6 6 -68 c3 -37 5 -79 4 -93 0 -14
0 -51 1 -82 2 -110 2 -164 -3 -332 -3 -93 -7 -175 -11 -183 -4 -12 -15 -14
-48 -9 -37 6 -47 3 -71 -19 -33 -31 -59 -32 -79 -2 -12 18 -18 20 -28 10 -22
-22 -36 -15 -53 27 -19 48 -20 94 -4 155 10 36 10 50 0 65 -16 26 -15 70 2
154 13 61 13 72 -2 102 -14 30 -14 45 -5 112 10 65 9 81 -3 100 -36 56 14 113
62 70 11 -10 32 -18 46 -18z m-5341 -806 c15 -18 13 -10 34 -174 15 -122 15
-346 -1 -600 -8 -140 -13 -383 -7 -418 7 -45 25 -49 84 -22 47 23 51 23 84 7
19 -9 45 -32 57 -52 21 -31 27 -35 68 -35 25 1 56 7 70 15 33 19 60 19 60 0 0
-26 30 -75 45 -75 8 0 15 -6 16 -12 2 -27 8 -153 19 -398 10 -223 9 -263 -5
-323 -8 -37 -21 -78 -27 -92 -16 -36 -56 -32 -70 6 -5 12 -32 21 -92 32 -47 9
-106 26 -131 37 -25 11 -60 23 -78 26 -57 10 -87 26 -93 50 -6 22 -7 22 -39 7
-30 -15 -35 -14 -58 3 -14 11 -37 42 -51 71 -35 70 -66 93 -127 93 -39 0 -50
4 -60 21 -6 12 -12 89 -14 188 -1 91 -6 216 -10 277 l-8 111 89 0 c181 -1 224
2 228 15 3 7 7 27 10 45 l5 32 -47 -6 -47 -5 -3 243 c-5 470 -12 795 -18 860
-6 59 -4 68 12 78 29 16 90 13 105 -5z m5477 -20 c21 -6 23 -11 17 -48 -8 -51
-35 -81 -63 -72 -12 4 -24 16 -27 27 -8 23 -23 24 -52 4 -12 -9 -35 -15 -50
-14 -15 1 -32 0 -38 -2 -14 -6 -17 7 -10 40 9 40 28 56 45 36 19 -22 61 -18
95 10 32 26 45 29 83 19z m-923 -24 c8 -13 81 -13 106 0 13 7 25 8 37 1 14 -8
11 -12 -23 -26 -37 -16 -38 -18 -20 -31 10 -8 23 -14 28 -14 5 0 4 -7 -4 -16
-9 -11 -22 -14 -43 -9 -87 18 -94 17 -116 -5 -20 -20 -24 -21 -38 -6 -13 13
-14 20 -2 56 17 51 58 78 75 50z m-4213 -68 l88 -3 8 -37 c5 -20 15 -62 22
-92 6 -30 18 -75 26 -99 25 -74 28 -214 9 -316 -33 -176 -32 -225 15 -395 29
-103 36 -180 17 -180 -8 0 -20 7 -27 15 -17 21 -53 19 -100 -5 -52 -27 -62
-25 -88 10 -33 43 -78 63 -146 63 l-58 0 6 171 c4 94 12 245 19 336 14 189 15
359 2 474 -7 67 -6 78 6 74 8 -3 23 -2 34 2 11 4 34 2 50 -3 17 -6 69 -12 117
-15z m4456 -70 c15 -19 15 -36 2 -81 -8 -28 -6 -40 11 -68 16 -25 19 -42 14
-66 -15 -73 -17 -120 -5 -142 7 -13 10 -40 7 -61 -3 -22 -9 -61 -13 -87 -6
-42 -4 -53 17 -80 22 -30 24 -40 22 -138 -3 -101 -2 -107 22 -129 22 -21 24
-29 19 -75 -6 -49 -4 -55 25 -85 17 -18 31 -40 31 -49 1 -56 71 -67 150 -23
47 25 49 29 44 59 -4 23 1 47 16 80 28 58 37 132 20 163 -10 19 -7 29 21 73
32 51 33 54 30 153 -1 65 4 127 14 172 12 52 14 76 6 91 -16 29 -13 123 4 166
9 20 13 45 10 56 -3 10 -8 29 -11 40 -5 19 -3 21 16 16 13 -3 36 1 52 9 26 13
32 14 46 1 27 -23 46 -26 73 -11 13 7 37 13 52 14 l28 0 -7 -109 c-5 -89 -4
-118 11 -164 17 -56 17 -57 -5 -116 -25 -67 -27 -107 -10 -169 10 -37 8 -50
-11 -100 -18 -48 -20 -69 -15 -134 6 -67 3 -87 -19 -150 -19 -52 -26 -91 -24
-133 1 -33 1 -68 0 -78 0 -9 -30 -47 -66 -85 -36 -37 -69 -70 -73 -75 -24 -26
-104 -77 -121 -77 -11 0 -23 -5 -27 -11 -4 -7 -24 -9 -55 -5 -32 4 -55 2 -69
-6 -16 -10 -24 -10 -38 -1 -52 37 -75 45 -99 34 -27 -12 -51 -4 -87 31 -12 11
-35 31 -52 44 -28 22 -32 32 -38 94 -7 64 -10 71 -37 85 -28 15 -29 18 -29 89
0 66 -3 77 -30 111 -26 33 -30 46 -30 99 0 42 -5 69 -17 86 -12 16 -18 46 -19
85 -1 33 -9 79 -18 103 -12 31 -13 48 -6 62 15 28 12 70 -10 117 -18 40 -18
45 -3 99 15 53 15 59 0 86 -19 32 -22 103 -8 141 11 29 37 39 116 42 33 1 74
9 90 18 33 18 63 14 83 -11z m-6019 -576 c6 -7 29 -21 51 -31 34 -15 44 -16
65 -5 18 10 34 10 69 1 46 -11 83 -3 113 26 8 7 23 9 40 4 24 -6 29 -14 34
-50 5 -39 3 -43 -24 -58 -32 -16 -83 -14 -133 7 -27 12 -37 11 -88 -11 l-58
-23 -53 28 c-46 25 -59 28 -107 23 -81 -10 -119 26 -88 82 7 15 23 18 89 19
54 1 83 -3 90 -12z m-7 -177 l61 -31 62 21 c59 20 64 20 101 5 46 -19 110 -13
167 17 22 11 40 19 42 17 4 -6 52 -114 63 -143 21 -56 19 -135 -3 -135 -14 0
-35 -56 -35 -96 0 -41 -22 -85 -51 -99 -16 -9 -81 -27 -146 -41 -127 -27 -250
-29 -343 -4 -25 6 -61 16 -81 21 -31 8 -40 17 -73 83 -32 63 -38 85 -42 157
-4 74 -1 88 22 133 39 76 71 106 113 107 20 0 45 4 56 9 11 5 21 9 23 9 1 1
30 -13 64 -30z m6178 -714 c36 -27 69 -32 87 -14 9 9 25 7 63 -5 28 -9 60 -14
70 -11 17 5 18 2 13 -30 -4 -28 0 -44 23 -78 29 -43 33 -79 19 -144 -5 -25 -2
-39 15 -62 26 -37 19 -71 -13 -71 -13 0 -30 -9 -40 -20 -20 -23 -42 -25 -77
-6 -21 12 -29 12 -62 -5 -52 -26 -73 -24 -98 11 -19 27 -25 29 -59 24 -51 -8
-69 13 -41 49 28 36 35 79 17 113 -14 27 -13 32 10 78 23 46 24 52 10 75 -15
28 -13 46 10 72 7 9 13 20 12 25 -5 30 0 29 41 -1z m-3797 -68 c30 -10 37 -17
37 -37 0 -39 14 -53 77 -76 l58 -22 -3 -39 c-2 -21 -10 -48 -18 -60 -8 -12
-14 -29 -14 -38 0 -8 -15 -35 -34 -60 -19 -24 -37 -54 -41 -65 -3 -11 -12 -20
-19 -20 -29 0 -48 31 -72 115 -25 87 -56 301 -47 318 3 5 12 5 22 2 9 -4 33
-12 54 -18z m318 -179 c20 -25 25 -53 10 -62 -5 -4 -31 -9 -57 -13 l-47 -6 6
39 c10 62 53 83 88 42z m20 -161 c42 -28 62 -79 84 -212 10 -55 23 -129 30
-165 7 -36 12 -66 10 -68 -2 -2 -31 2 -64 9 -89 17 -238 6 -331 -25 -41 -14
-81 -26 -89 -26 -22 0 -5 59 34 116 19 28 35 57 35 65 1 8 9 39 20 69 11 30
19 68 20 83 0 15 11 45 25 65 14 20 25 42 25 48 0 20 53 48 105 55 28 3 53 7
56 8 3 0 21 -9 40 -22z m-301 -117 c0 -11 -7 -20 -15 -20 -8 0 -15 9 -15 20 0
11 7 20 15 20 8 0 15 -9 15 -20z m257 -420 c0 -14 4 -34 8 -45 8 -25 -38 -55
-82 -55 -30 0 -74 37 -86 72 -12 33 33 55 113 54 41 -1 45 -3 47 -26z"/>
<path d="M2851 14491 c-32 -32 -48 -72 -56 -137 -6 -56 -5 -63 20 -92 22 -26
32 -31 53 -26 15 4 32 11 38 16 6 4 19 5 28 2 10 -4 26 1 39 13 12 11 30 23
40 26 19 7 37 46 37 82 0 32 -20 75 -35 75 -7 0 -23 9 -37 19 -13 11 -38 21
-55 24 -18 3 -36 8 -42 11 -6 4 -19 -2 -30 -13z"/>
<path d="M2368 14412 c-59 -2 -78 -6 -78 -17 0 -20 178 -26 203 -6 31 25 15
28 -125 23z"/>
<path d="M2666 14063 c-4 -5 -12 -8 -17 -8 -5 0 -15 -11 -22 -24 -14 -28 -36
-36 -164 -55 -61 -10 -104 -11 -130 -5 -47 11 -62 11 -47 1 6 -4 13 -15 17
-24 14 -39 168 -31 284 15 41 16 62 32 79 59 13 21 24 40 24 43 0 8 -16 6 -24
-2z"/>
<path d="M2906 13332 c-133 -133 -193 -219 -169 -243 8 -8 17 2 31 35 12 26
56 82 105 133 l84 87 35 -17 c86 -41 168 -191 168 -309 0 -21 4 -38 9 -38 6 0
30 21 54 47 38 40 47 45 60 34 19 -15 47 -95 47 -132 0 -35 19 -48 36 -24 26
36 75 85 84 85 16 0 29 -34 31 -83 4 -67 12 -76 46 -49 15 12 43 32 61 43 35
23 40 36 16 46 -9 3 -26 -5 -43 -21 -25 -24 -59 -37 -47 -18 7 12 -24 115 -40
132 -12 12 -20 8 -63 -34 -48 -47 -49 -48 -56 -25 -14 47 -55 127 -67 132 -7
2 -29 -9 -49 -24 -20 -16 -39 -29 -43 -29 -3 0 -10 19 -16 41 -32 118 -94 206
-177 252 l-50 26 -47 -47z"/>
<path d="M2940 13168 c-18 -13 -42 -38 -52 -57 -48 -86 -28 -268 27 -247 17 6
17 7 0 26 -20 22 -31 101 -21 155 7 37 68 115 90 115 15 0 42 -46 51 -88 4
-18 1 -55 -5 -82 -9 -39 -22 -59 -58 -90 -33 -29 -42 -44 -35 -51 8 -8 23 -2
53 22 53 43 69 73 76 146 5 49 2 67 -19 116 -30 66 -51 73 -107 35z"/>
<path d="M2570 13005 c-7 -14 -13 -48 -13 -77 0 -41 4 -55 23 -70 29 -24 36
-23 55 6 12 17 14 37 9 79 -8 64 -12 72 -40 81 -15 5 -24 0 -34 -19z m47 -60
c8 -25 8 -38 -2 -51 -27 -37 -41 8 -26 84 1 1 5 2 9 2 5 0 13 -16 19 -35z"/>
<path d="M3205 12959 c-24 -46 -31 -131 -12 -147 31 -26 74 25 78 94 3 45 -3
59 -31 74 -16 9 -22 5 -35 -21z m30 -66 c-3 -16 -11 -32 -17 -38 -8 -7 -9 -2
-4 15 3 14 6 31 6 38 0 6 5 12 11 12 7 0 9 -10 4 -27z"/>
<path d="M2350 12925 c-11 -13 -10 -23 1 -58 8 -23 23 -51 33 -61 19 -19 20
-19 31 15 14 38 3 69 -33 102 -17 16 -20 16 -32 2z m41 -78 c-8 -8 -11 -3 -11
19 1 25 2 27 11 11 8 -14 8 -22 0 -30z"/>
<path d="M3396 12865 c-29 -37 -34 -86 -11 -105 19 -16 29 -8 57 43 26 47 26
67 -1 84 -17 10 -23 7 -45 -22z"/>
<path d="M2180 12824 c-11 -12 -10 -21 3 -49 19 -39 57 -49 57 -16 0 11 2 25
5 33 3 8 -7 21 -24 31 -26 15 -30 15 -41 1z"/>
<path d="M3467 12799 c-21 -12 -14 -29 13 -29 14 0 20 -8 22 -32 2 -24 8 -34
24 -36 23 -3 42 26 46 73 3 29 1 30 -42 32 -25 2 -53 -2 -63 -8z"/>
<path d="M2003 12714 c-12 -31 27 -104 55 -104 15 0 27 70 15 89 -14 22 -63
33 -70 15z"/>
<path d="M1894 12533 c14 -56 77 -82 84 -35 4 30 -14 51 -37 45 -10 -3 -22 0
-25 6 -14 22 -28 11 -22 -16z"/>
<path d="M8729 12338 c0 -7 -19 -27 -42 -43 -24 -18 -60 -60 -84 -100 -36 -59
-43 -79 -44 -126 -1 -31 2 -62 5 -68 15 -23 21 -9 18 39 -6 80 53 183 134 237
22 14 26 13 81 -29 60 -45 103 -110 103 -158 0 -14 5 -32 10 -40 8 -13 12 -12
25 8 18 24 65 52 89 52 11 0 18 -13 22 -40 8 -51 17 -56 53 -29 42 31 63 22
81 -33 19 -59 24 -63 52 -44 12 9 30 16 40 16 27 0 86 -57 99 -97 16 -50 72
-143 85 -143 6 0 17 6 23 14 9 11 6 18 -18 35 -16 12 -44 50 -61 85 -18 35
-49 81 -68 101 -32 33 -40 36 -81 33 -44 -3 -45 -2 -55 31 -12 42 -46 59 -87
44 -28 -11 -30 -10 -47 25 -20 42 -43 45 -99 11 l-31 -20 -26 56 c-17 37 -50
80 -96 125 -40 39 -73 70 -76 70 -2 0 -4 -6 -5 -12z"/>
<path d="M8733 12016 c-26 -22 -28 -30 -28 -94 0 -55 4 -74 19 -91 37 -41 101
-18 122 44 23 66 18 103 -17 136 -38 35 -59 36 -96 5z m80 -18 c38 -28 22
-121 -26 -152 -44 -30 -67 -4 -67 77 0 27 7 45 25 62 27 28 43 31 68 13z"/>
<path d="M2240 12140 c-41 -16 -87 -29 -102 -29 -15 -1 -30 -6 -33 -11 -4 -6
-10 -8 -15 -5 -14 9 -23 -16 -11 -28 8 -8 18 -7 39 5 58 33 125 49 172 39 65
-13 306 -80 344 -96 24 -10 36 -11 44 -3 15 15 -14 65 -42 74 -11 4 -28 16
-37 28 -10 11 -28 22 -41 22 -12 1 -57 9 -98 18 -100 21 -132 19 -220 -14z"/>
<path d="M2252 11941 c-19 -10 -33 -21 -32 -27 3 -13 -82 -55 -102 -50 -21 5
-31 -20 -18 -45 14 -25 35 -24 118 6 40 15 84 24 103 21 32 -3 34 -6 41 -52 4
-27 5 -50 3 -52 -2 -3 -23 5 -45 17 -42 22 -60 21 -60 -3 0 -19 21 -34 56 -40
17 -3 49 -12 71 -20 37 -13 50 -12 128 5 47 11 90 17 95 14 5 -3 13 3 19 13
13 24 -37 105 -76 125 -32 16 -129 30 -221 31 -50 1 -62 4 -60 16 4 22 102 25
176 5 33 -8 67 -12 76 -9 29 11 17 33 -21 39 -21 4 -60 11 -86 16 -68 13 -127
9 -165 -10z m316 -183 c-3 -7 -13 -15 -24 -17 -16 -3 -17 -1 -5 13 16 19 34
21 29 4z"/>
<path d="M1454 11806 l-34 -34 0 -101 c0 -92 3 -110 34 -189 19 -48 37 -95 40
-104 3 -10 10 -18 16 -18 19 0 10 47 -22 121 -26 61 -32 91 -36 167 -5 105 4
134 50 158 16 8 26 19 23 24 -12 19 -37 10 -71 -24z"/>
<path d="M1509 11626 c-9 -18 -7 -30 5 -55 9 -17 21 -29 26 -26 6 4 6 14 -1
26 -6 11 -8 27 -5 35 7 19 52 14 48 -4 -3 -16 18 -56 25 -48 3 3 7 19 8 36 5
56 -84 86 -106 36z"/>
<path d="M2663 11273 c-7 -3 -13 -16 -13 -29 0 -30 38 -47 85 -38 45 8 70 -2
72 -27 1 -12 3 -23 5 -24 2 -2 36 6 77 16 40 10 78 16 83 13 5 -3 20 2 34 11
21 14 23 19 12 32 -10 12 -26 14 -71 10 -37 -3 -77 0 -106 9 -25 7 -69 14 -96
14 -28 0 -55 4 -60 9 -6 5 -16 6 -22 4z"/>
<path d="M2695 11038 c-46 -25 -134 -30 -159 -9 -20 17 -46 7 -46 -17 0 -32
27 -46 83 -43 84 5 99 5 157 -3 102 -13 127 -23 133 -54 8 -43 -18 -65 -70
-57 -41 6 -43 5 -43 -19 0 -19 6 -26 29 -31 60 -13 181 64 181 115 0 34 12 50
39 50 33 1 61 22 61 46 0 14 -3 15 -12 6 -18 -18 -67 -14 -95 8 -25 19 -73 19
-100 -2 -7 -6 -25 -2 -49 12 -48 25 -59 25 -109 -2z"/>
<path d="M3033 9646 l-28 -25 35 -35 c27 -27 40 -34 58 -29 20 5 22 11 19 46
-2 24 -11 45 -22 53 -25 19 -29 18 -62 -10z"/>
<path d="M3050 9520 c-23 -23 -28 -83 -7 -74 8 3 19 -1 25 -9 18 -22 62 -10
62 17 0 25 -35 86 -50 86 -5 0 -19 -9 -30 -20z"/>
<path d="M3038 9377 c-20 -15 -26 -28 -22 -42 6 -23 46 -45 82 -45 21 0 23 3
16 32 -7 34 -31 78 -43 78 -3 0 -18 -10 -33 -23z"/>
<path d="M3020 9243 c-23 -8 -38 -32 -33 -52 5 -19 41 -30 76 -23 24 5 23 58
-2 72 -11 5 -21 10 -23 9 -2 0 -10 -3 -18 -6z"/>
<path d="M2950 9086 c-16 -16 -12 -32 14 -45 31 -17 60 -7 74 25 7 14 12 26
12 28 0 8 -91 1 -100 -8z"/>
<path d="M2907 8966 c-6 -14 31 -56 50 -56 23 0 35 27 21 49 -15 24 -63 29
-71 7z"/>
<path d="M2850 8855 c0 -22 34 -65 51 -65 17 0 39 13 39 23 0 18 -52 67 -72
67 -12 0 -18 -8 -18 -25z"/>
<path d="M2786 8794 c-11 -29 -6 -61 12 -84 16 -19 22 -21 40 -11 12 6 22 15
22 20 0 23 -24 73 -40 81 -25 13 -27 13 -34 -6z"/>
<path d="M2477 8727 c-13 -42 -14 -54 -4 -64 10 -10 17 -10 35 3 29 20 31 84
4 101 -17 10 -21 6 -35 -40z"/>
<path d="M2715 8744 c-18 -18 -18 -89 0 -104 22 -18 55 18 55 60 0 48 -28 70
-55 44z"/>
<path d="M2592 8737 c-6 -7 -12 -35 -14 -62 -2 -41 0 -50 15 -53 20 -4 59 71
49 97 -11 30 -34 38 -50 18z"/>
<path d="M9366 11012 c-3 -6 -23 -12 -43 -15 -21 -3 -58 -11 -83 -17 -25 -7
-61 -16 -81 -21 -49 -12 -116 -75 -124 -117 -12 -58 28 -49 153 35 18 12 54
29 80 38 26 10 56 22 68 27 14 7 53 6 117 -2 104 -13 141 -9 116 14 -37 34
-190 78 -203 58z"/>
<path d="M8797 10972 c-23 -25 -21 -37 9 -61 30 -23 52 -18 60 14 13 52 -35
85 -69 47z"/>
<path d="M9167 10747 c-18 -18 -42 -46 -54 -62 l-23 -29 24 -30 c16 -21 34
-32 55 -34 30 -3 32 -1 29 24 -4 40 23 42 45 3 9 -17 17 -44 17 -59 0 -25 5
-30 36 -36 20 -4 64 -3 98 1 33 4 76 8 93 9 39 3 118 67 132 107 7 22 5 31
-10 48 -11 12 -27 21 -35 21 -8 0 -38 12 -65 26 -59 29 -161 49 -187 36 -9 -5
-34 -12 -54 -16 -31 -6 -38 -4 -38 9 0 25 -30 17 -63 -18z m335 -68 c22 -11
36 -24 32 -28 -72 -64 -94 -79 -129 -85 l-40 -7 33 28 c25 21 35 39 39 71 3
23 10 42 15 42 5 0 27 -9 50 -21z"/>
<path d="M10151 10254 c-47 -59 -22 -154 39 -154 22 0 31 8 44 34 25 52 24 79
-1 90 -12 6 -24 21 -28 33 -7 30 -29 29 -54 -3z m70 -86 c-16 -44 -71 -51 -71
-9 0 20 16 28 57 30 19 1 21 -2 14 -21z"/>
<path d="M9090 10130 c-16 -16 -33 -20 -80 -20 -36 0 -70 -6 -83 -15 -28 -18
-89 -6 -121 24 -27 25 -54 27 -63 4 -8 -20 46 -70 84 -78 16 -3 44 -14 64 -25
l36 -19 29 30 c25 25 39 30 80 30 53 1 94 27 94 60 0 28 -17 32 -40 9z"/>
<path d="M10064 10065 c11 -46 40 -70 84 -69 67 2 123 60 76 78 -22 9 -22 8
-26 -16 -2 -19 -10 -24 -43 -26 -35 -3 -44 1 -69 30 l-28 33 6 -30z"/>
<path d="M9160 9941 c-49 -27 -293 -38 -322 -14 -11 10 -19 9 -36 -3 -30 -21
-28 -31 13 -55 29 -17 34 -25 29 -45 -3 -13 -2 -24 4 -24 5 0 13 -11 16 -24
11 -46 98 -80 150 -60 10 4 16 18 16 35 0 25 -4 29 -29 29 -42 0 -61 10 -61
31 0 14 7 19 29 19 17 0 33 5 36 10 3 6 20 10 36 10 17 0 49 4 72 9 23 6 59
13 80 16 21 3 47 15 59 27 l21 21 -24 13 c-27 15 -67 17 -89 5z"/>
<path d="M5162 9436 c-39 -28 -80 -75 -88 -98 -10 -32 14 -58 52 -58 102 0
194 111 136 163 -26 24 -63 21 -100 -7z"/>
<path d="M4675 8158 c-16 -12 -49 -40 -72 -62 -53 -50 -58 -96 -17 -145 41
-49 73 -43 183 35 29 21 53 77 49 117 -2 23 -13 38 -37 54 -42 28 -67 29 -106
1z"/>
<path d="M5633 7956 c-64 -24 -72 -28 -133 -80 -83 -70 -88 -113 -29 -260 31
-78 39 -109 35 -137 -8 -54 11 -66 59 -38 28 17 52 22 94 21 44 -1 67 5 106
26 27 15 51 35 53 46 4 17 -1 18 -56 12 -68 -7 -90 6 -38 24 88 29 153 136
132 218 -14 55 -38 73 -85 66 -42 -7 -112 -47 -151 -88 -31 -31 -45 -82 -35
-126 12 -57 -15 -42 -45 24 -55 120 -40 180 55 222 49 21 207 23 232 2 11 -9
41 -12 91 -11 67 2 73 1 67 -15 -3 -9 -15 -43 -26 -75 -11 -33 -31 -82 -44
-110 -29 -59 -30 -67 -11 -67 36 0 116 108 116 156 0 21 48 114 76 147 29 34
32 63 7 52 -10 -4 -51 -12 -90 -18 -64 -10 -84 -8 -165 11 -114 27 -136 27
-215 -2z"/>
<path d="M9814 8725 c-3 -8 -2 -27 3 -42 10 -28 32 -39 59 -29 12 5 11 12 -6
46 -21 41 -46 52 -56 25z"/>
<path d="M3311 5614 c0 -11 3 -14 6 -6 3 7 2 16 -1 19 -3 4 -6 -2 -5 -13z"/>
<path d="M98 8788 c-11 -9 -18 -32 -20 -68 -3 -49 -1 -55 17 -55 15 0 23 11
34 52 19 72 7 100 -31 71z"/>
<path d="M192 8718 c-5 -7 -12 -40 -14 -73 -2 -49 0 -60 14 -63 23 -4 39 30
45 94 4 48 2 54 -15 54 -11 0 -24 -6 -30 -12z"/>
<path d="M278 8628 c-11 -9 -18 -34 -21 -75 -8 -113 25 -112 49 2 17 82 10
102 -28 73z"/>
<path d="M374 8568 c-5 -7 -10 -43 -11 -80 -2 -60 -1 -68 16 -68 14 0 21 13
31 58 6 33 10 67 8 78 -4 22 -33 30 -44 12z"/>
<path d="M482 8488 c-12 -17 -22 -152 -11 -170 14 -22 38 11 44 62 3 25 8 58
11 74 8 38 -22 61 -44 34z"/>
<path d="M571 8386 c-9 -11 -10 -25 -2 -53 6 -21 11 -52 11 -70 0 -38 13 -49
34 -27 10 10 16 33 16 64 0 84 -28 124 -59 86z"/>
<path d="M692 8278 c-16 -16 -15 -51 3 -94 12 -30 17 -34 34 -25 25 14 30 29
18 66 -20 62 -33 75 -55 53z"/>
<path d="M792 8148 c-17 -17 -15 -48 4 -55 19 -7 35 14 32 41 -4 24 -20 30
-36 14z"/>
<path d="M896 8081 c-21 -23 -20 -41 2 -41 21 0 42 18 42 36 0 20 -27 24 -44
5z"/>
<path d="M118 7529 c-26 -15 -23 -47 6 -55 53 -13 68 3 51 54 -5 14 -33 15
-57 1z"/>
<path d="M253 7483 c-20 -7 -15 -41 6 -53 32 -17 51 -12 51 13 0 37 -24 54
-57 40z"/>
</g>
</svg>
