<?xml version="1.0" encoding="UTF-8" standalone="no"?>
<svg
   xmlns:dc="http://purl.org/dc/elements/1.1/"
   xmlns:cc="http://creativecommons.org/ns#"
   xmlns:rdf="http://www.w3.org/1999/02/22-rdf-syntax-ns#"
   xmlns:svg="http://www.w3.org/2000/svg"
   xmlns="http://www.w3.org/2000/svg"
   xmlns:sodipodi="http://sodipodi.sourceforge.net/DTD/sodipodi-0.dtd"
   xmlns:inkscape="http://www.inkscape.org/namespaces/inkscape"
   version="1.1"
   id="svg2"
   xml:space="preserve"
   width="569.61334"
   height="559.12"
   viewBox="0 0 569.61334 559.12"
   sodipodi:docname="Mobile login.eps"><metadata
     id="metadata8"><rdf:RDF><cc:Work
         rdf:about=""><dc:format>image/svg+xml</dc:format><dc:type
           rdf:resource="http://purl.org/dc/dcmitype/StillImage" /></cc:Work></rdf:RDF></metadata><defs
     id="defs6" /><sodipodi:namedview
     pagecolor="#ffffff"
     bordercolor="#666666"
     borderopacity="1"
     objecttolerance="10"
     gridtolerance="10"
     guidetolerance="10"
     inkscape:pageopacity="0"
     inkscape:pageshadow="2"
     inkscape:window-width="640"
     inkscape:window-height="480"
     id="namedview4" /><g
     id="g10"
     inkscape:groupmode="layer"
     inkscape:label="ink_ext_XXXXXX"
     transform="matrix(1.3333333,0,0,-1.3333333,0,559.12)"><g
       id="g12"
       transform="scale(0.1)"><path
         d="m 2643.45,1381.9 h 1618.63 v 928.45 H 2643.45 Z m 1628.63,-10 H 2633.45 v 948.45 H 4272.08 V 1371.9"
         style="fill:#e3e3e2;fill-opacity:1;fill-rule:nonzero;stroke:none"
         id="path14" /><path
         d="M 3934.08,1782.92 H 2852.73 v 31.72 h 1081.35 v -31.72"
         style="fill:#f4f4f4;fill-opacity:1;fill-rule:nonzero;stroke:none"
         id="path16" /><path
         d="M 4008.55,1661.81 H 2852.73 v 34.61 h 1155.82 v -34.61"
         style="fill:#f4f4f4;fill-opacity:1;fill-rule:nonzero;stroke:none"
         id="path18" /><path
         d="M 4008.55,1542.22 H 2852.73 v 34.61 h 1155.82 v -34.61"
         style="fill:#f4f4f4;fill-opacity:1;fill-rule:nonzero;stroke:none"
         id="path20" /><path
         d="m 3230.65,1904.03 h -377.92 v 82.3 h 377.92 v -82.3"
         style="fill:#f4f4f4;fill-opacity:1;fill-rule:nonzero;stroke:none"
         id="path22" /><path
         d="M 4267.08,2164.36 H 2638.45 v 150.99 h 1628.63 v -150.99"
         style="fill:#e3e3e2;fill-opacity:1;fill-rule:nonzero;stroke:none"
         id="path24" /><path
         d="m 4141.76,2186.92 c -2.08,1.99 18.91,27.3 46.87,56.53 27.97,29.24 52.32,51.32 54.4,49.33 2.08,-1.98 -18.9,-27.29 -46.87,-56.53 -27.96,-29.23 -52.32,-51.32 -54.4,-49.33"
         style="fill:#ffffff;fill-opacity:1;fill-rule:nonzero;stroke:none"
         id="path26" /><path
         d="m 4243.03,2186.92 c -2.08,-1.99 -26.43,20.1 -54.39,49.33 -27.98,29.24 -48.96,54.55 -46.88,56.53 2.08,1.99 26.43,-20.09 54.4,-49.33 27.97,-29.23 48.95,-54.54 46.87,-56.53"
         style="fill:#ffffff;fill-opacity:1;fill-rule:nonzero;stroke:none"
         id="path28" /><path
         d="M 2255.46,3254.93 H 626.824 v 938.45 H 2255.46 v -938.45"
         style="fill:#e9e9e8;fill-opacity:1;fill-rule:nonzero;stroke:none"
         id="path30" /><path
         d="M 1922.45,3660.95 H 841.109 v 31.72 H 1922.45 v -31.72"
         style="fill:#f4f4f4;fill-opacity:1;fill-rule:nonzero;stroke:none"
         id="path32" /><path
         d="M 1996.93,3539.84 H 841.109 v 34.61 H 1996.93 v -34.61"
         style="fill:#f4f4f4;fill-opacity:1;fill-rule:nonzero;stroke:none"
         id="path34" /><path
         d="M 1996.93,3420.25 H 841.109 v 34.61 H 1996.93 v -34.61"
         style="fill:#f4f4f4;fill-opacity:1;fill-rule:nonzero;stroke:none"
         id="path36" /><path
         d="M 1219.02,3782.07 H 841.109 v 82.29 h 377.911 v -82.29"
         style="fill:#f4f4f4;fill-opacity:1;fill-rule:nonzero;stroke:none"
         id="path38" /><path
         d="M 2255.46,4042.4 H 626.824 v 150.98 H 2255.46 V 4042.4"
         style="fill:#e3e3e2;fill-opacity:1;fill-rule:nonzero;stroke:none"
         id="path40" /><path
         d="m 2124.56,4065.68 c -2.08,1.98 18.9,27.29 46.86,56.52 27.97,29.24 52.33,51.33 54.41,49.34 2.08,-1.99 -18.91,-27.3 -46.88,-56.54 -27.96,-29.22 -52.31,-51.31 -54.39,-49.32"
         style="fill:#ffffff;fill-opacity:1;fill-rule:nonzero;stroke:none"
         id="path42" /><path
         d="m 2225.83,4065.68 c -2.08,-1.99 -26.44,20.1 -54.4,49.32 -27.98,29.24 -48.95,54.55 -46.87,56.54 2.08,1.99 26.42,-20.1 54.39,-49.34 27.97,-29.23 48.96,-54.54 46.88,-56.52"
         style="fill:#ffffff;fill-opacity:1;fill-rule:nonzero;stroke:none"
         id="path44" /><path
         d="m 10,2460.03 h 1618.63 v 928.45 H 10 Z m 1628.63,-10 H 0 v 948.45 h 1638.63 v -948.45"
         style="fill:#e3e3e2;fill-opacity:1;fill-rule:nonzero;stroke:none"
         id="path46" /><path
         d="M 1300.63,2861.05 H 219.277 v 31.72 H 1300.63 v -31.72"
         style="fill:#f4f4f4;fill-opacity:1;fill-rule:nonzero;stroke:none"
         id="path48" /><path
         d="M 1375.1,2739.94 H 219.277 v 34.6 H 1375.1 v -34.6"
         style="fill:#f4f4f4;fill-opacity:1;fill-rule:nonzero;stroke:none"
         id="path50" /><path
         d="M 1375.1,2620.35 H 219.277 v 34.6 H 1375.1 v -34.6"
         style="fill:#f4f4f4;fill-opacity:1;fill-rule:nonzero;stroke:none"
         id="path52" /><path
         d="M 597.195,2982.16 H 219.277 v 82.3 h 377.918 v -82.3"
         style="fill:#f4f4f4;fill-opacity:1;fill-rule:nonzero;stroke:none"
         id="path54" /><path
         d="M 1633.63,3242.49 H 5 v 150.99 h 1628.63 v -150.99"
         style="fill:#e3e3e2;fill-opacity:1;fill-rule:nonzero;stroke:none"
         id="path56" /><path
         d="m 1606.71,511.109 h 1923.04 v 1721.57 H 1606.71 Z"
         style="fill:#e9e9e8;fill-opacity:1;fill-rule:nonzero;stroke:none"
         id="path58" /><path
         d="m 197.004,1209.91 h 1506.38 V 2775 H 197.004 Z"
         style="fill:#f4f4f4;fill-opacity:1;fill-rule:nonzero;stroke:none"
         id="path60" /><path
         d="M 1703.38,2604.47 H 197.004 V 2775 H 1703.38 v -170.53"
         style="fill:#e3e3e2;fill-opacity:1;fill-rule:nonzero;stroke:none"
         id="path62" /><path
         d="m 321.402,2691.49 c 0,-18.26 -14.16,-33.06 -31.632,-33.06 -17.465,0 -31.625,14.8 -31.625,33.06 0,18.25 14.16,33.06 31.625,33.06 17.472,0 31.632,-14.81 31.632,-33.06"
         style="fill:#ffffff;fill-opacity:1;fill-rule:nonzero;stroke:none"
         id="path64" /><path
         d="m 449.688,2691.49 c 0,-18.26 -14.161,-33.06 -31.625,-33.06 -17.465,0 -31.625,14.8 -31.625,33.06 0,18.25 14.16,33.06 31.625,33.06 17.464,0 31.625,-14.81 31.625,-33.06"
         style="fill:#ffffff;fill-opacity:1;fill-rule:nonzero;stroke:none"
         id="path66" /><path
         d="m 577.973,2691.49 c 0,-18.26 -14.16,-33.06 -31.625,-33.06 -17.465,0 -31.625,14.8 -31.625,33.06 0,18.25 14.16,33.06 31.625,33.06 17.465,0 31.625,-14.81 31.625,-33.06"
         style="fill:#ffffff;fill-opacity:1;fill-rule:nonzero;stroke:none"
         id="path68" /><path
         d="M 2134,1934.46 H 4057.04 V 3851.07 H 2134 Z"
         style="fill:#f4f4f4;fill-opacity:1;fill-rule:nonzero;stroke:none"
         id="path70" /><path
         d="M 4057.04,3626.58 H 2134 v 224.49 h 1923.04 v -224.49"
         style="fill:#e3e3e2;fill-opacity:1;fill-rule:nonzero;stroke:none"
         id="path72" /><path
         d="m 2297.77,3741.13 c 0,-24.04 -18.64,-43.53 -41.64,-43.53 -22.99,0 -41.63,19.49 -41.63,43.53 0,24.04 18.64,43.52 41.63,43.52 23,0 41.64,-19.48 41.64,-43.52"
         style="fill:#ffffff;fill-opacity:1;fill-rule:nonzero;stroke:none"
         id="path74" /><path
         d="m 2454.47,3770.57 c 16.99,-17 17.59,-43.96 1.33,-60.22 -16.26,-16.26 -43.23,-15.66 -60.22,1.33 -16.99,17 -17.6,43.96 -1.34,60.23 16.26,16.25 43.23,15.65 60.23,-1.34"
         style="fill:#ffffff;fill-opacity:1;fill-rule:nonzero;stroke:none"
         id="path76" /><path
         d="m 2635.55,3741.13 c 0,-24.04 -18.64,-43.53 -41.64,-43.53 -23,0 -41.63,19.49 -41.63,43.53 0,24.04 18.63,43.52 41.63,43.52 23,0 41.64,-19.48 41.64,-43.52"
         style="fill:#ffffff;fill-opacity:1;fill-rule:nonzero;stroke:none"
         id="path78" /><path
         d="M 3641.62,2.60938 C 3641.62,1.17188 2947.22,0 2090.85,0 1234.17,0 539.934,1.17188 539.934,2.60938 c 0,1.42968 694.236,2.60937 1550.916,2.60937 856.37,0 1550.77,-1.17969 1550.77,-2.60937"
         style="fill:#1d2a30;fill-opacity:1;fill-rule:nonzero;stroke:none"
         id="path80" /><path
         d="m 2964.99,1226.8 c -154.49,107.93 -189.54,308.26 -183.42,488.34 1.01,30.06 -2.29,61.75 12.01,88.12 14.31,26.37 47.67,44.4 74.58,31.73 22.32,-10.51 32.05,-36.47 44.54,-57.95 16.61,-28.57 41.37,-52.21 70.5,-67.33 19.14,-9.93 42.82,-16.01 61.72,-5.59 25.92,14.31 28.98,50.13 28.8,80.03 -0.36,55.72 -0.7,111.45 -1.05,167.16 -0.18,29.89 -0.27,60.42 9.02,88.79 9.3,28.38 29.85,54.73 58.29,62.7 28.44,7.97 63.61,-8.43 69.61,-37.69 2.5,-12.18 0.02,-24.82 0.85,-37.23 0.83,-12.41 6.62,-26.14 18.4,-29.6 11.94,-3.5 23.9,4.97 32.83,13.72 30.86,30.19 51.8,69.08 71.37,107.75 19.57,38.67 38.57,78.26 66.56,111.18 28,32.93 66.73,59.02 109.55,61.44 42.82,2.43 88.43,-24 99.25,-66.03 10.85,-42.15 -13.74,-84.91 -40.49,-119.03 -39.7,-50.62 -86.66,-95.39 -138.95,-132.45 -9.42,-6.69 -19.64,-13.91 -23.24,-24.99 -6.5,-19.93 12.39,-39.72 32.07,-46.28 22.28,-7.42 46.46,-5.1 69.77,-7.85 23.31,-2.74 48.57,-13.02 57.39,-35.06 12.24,-30.55 -13.31,-62.58 -38.46,-83.56 -50.35,-42.01 -107.85,-75.2 -169.19,-97.67 -21.99,-8.04 -45.14,-15.1 -62.87,-30.55 -17.74,-15.46 -28.44,-42.33 -17.73,-63.38 10.73,-21.09 38.23,-27.82 61.26,-23.55 23.03,4.27 43.66,16.78 65.61,25.06 41.08,15.51 94.14,12.68 120.46,-22.83 17.29,-23.34 18.82,-55.84 10.07,-83.66 -8.74,-27.82 -26.49,-51.79 -45.33,-73.89 -65.85,-77.25 -150.14,-139.45 -245.45,-172.5 -95.31,-33.05 -183.62,-41.99 -278.33,-7.35"
         style="fill:#f03658;fill-opacity:1;fill-rule:nonzero;stroke:none"
         id="path82" /><path
         d="m 3565.21,2267.34 c 0.07,-0.07 -0.92,-1.03 -2.9,-2.84 -2.21,-1.97 -5.15,-4.58 -8.88,-7.91 -7.83,-6.92 -19.37,-17.14 -33.88,-30.69 -29.06,-27 -69.87,-67.65 -114.19,-123.25 -22.25,-27.71 -45.36,-59.08 -69.57,-93.21 -24.15,-34.19 -49.73,-70.87 -75.17,-110.45 -25.44,-39.57 -50.91,-81.97 -73.76,-127.78 -11.52,-22.85 -21.8,-46.77 -32.28,-71.15 -10.43,-24.38 -21.01,-49.11 -31.72,-74.14 -42.48,-100.26 -79.85,-197.17 -106.55,-287.7 -26.85,-90.45 -42.83,-174.27 -49.82,-245.31 -7.17,-71.06 -5.7,-129.058 -2.8,-168.859 1.56,-19.903 3.08,-35.352 4.49,-45.77 0.57,-5 1.03,-8.929 1.38,-11.883 0.28,-2.687 0.38,-4.07 0.29,-4.089 -0.1,-0.008 -0.38,1.332 -0.85,4 -0.47,2.929 -1.11,6.851 -1.92,11.82 -1.76,10.391 -3.64,25.82 -5.53,45.75 -3.56,39.832 -5.63,98.031 1.07,169.411 6.53,71.34 22.17,155.59 48.85,246.4 26.5,90.88 63.82,188.08 106.34,288.42 10.72,25.04 21.32,49.78 31.76,74.17 10.47,24.31 20.86,48.43 32.49,71.39 23.04,46.04 48.71,88.54 74.33,128.12 25.62,39.61 51.37,76.26 75.69,110.35 24.42,34.06 47.77,65.37 70.27,93 44.84,55.46 86.23,95.82 115.77,122.37 14.75,13.33 26.52,23.29 34.6,29.93 3.89,3.16 6.93,5.64 9.23,7.5 2.1,1.66 3.2,2.48 3.26,2.4"
         style="fill:#1d2a30;fill-opacity:1;fill-rule:nonzero;stroke:none"
         id="path84" /><path
         d="m 3183.63,1773.89 c -0.37,-0.06 -1.39,4.48 -2.92,12.75 -1.57,8.26 -3.45,20.28 -5.55,35.18 -4.23,29.76 -8.66,71.07 -13.38,116.63 -4.71,45.58 -9.72,86.71 -14.39,116.33 -2.3,14.81 -4.27,26.79 -5.74,35.05 -1.43,8.27 -2.05,12.89 -1.67,12.97 0.37,0.09 1.69,-4.37 3.76,-12.53 2.11,-8.14 4.68,-20.04 7.47,-34.82 5.67,-29.56 11.31,-70.78 16.03,-116.41 4.54,-44.97 8.64,-85.65 11.78,-116.73 1.5,-14.04 2.78,-25.86 3.81,-35.36 0.87,-8.35 1.18,-13 0.8,-13.06"
         style="fill:#1d2a30;fill-opacity:1;fill-rule:nonzero;stroke:none"
         id="path86" /><path
         d="m 3568,1845.72 c 0.01,-0.38 -5.46,-1.01 -15.33,-1.83 -9.86,-0.88 -24.14,-2.07 -41.73,-4.11 -35.2,-3.8 -83.65,-10.76 -136.77,-20.77 -53.11,-10.1 -100.79,-21.29 -135.03,-30.39 -17.17,-4.42 -30.96,-8.38 -40.51,-11.05 -9.54,-2.72 -14.88,-4.04 -15,-3.68 -0.12,0.37 5,2.39 14.36,5.75 9.38,3.31 23.04,7.85 40.12,12.78 34.08,10.09 81.79,21.93 135.06,32.07 53.27,10.03 101.99,16.4 137.4,19.2 17.7,1.55 32.06,2.15 41.99,2.36 9.94,0.15 15.42,0.06 15.44,-0.33"
         style="fill:#1d2a30;fill-opacity:1;fill-rule:nonzero;stroke:none"
         id="path88" /><path
         d="m 3016.2,1346.76 c -0.18,-0.08 -1.08,1.53 -2.64,4.69 -1.78,3.76 -3.95,8.35 -6.57,13.9 -5.66,12.1 -13.38,29.83 -22.64,51.85 -18.54,44.03 -42.25,105.66 -67.48,174.02 -25.25,68.39 -48.35,130.16 -65.95,174.51 -8.62,21.57 -15.72,39.3 -20.99,52.48 -2.26,5.73 -4.11,10.44 -5.64,14.32 -1.23,3.29 -1.79,5.06 -1.62,5.15 0.18,0.06 1.08,-1.55 2.64,-4.7 1.77,-3.76 3.94,-8.34 6.57,-13.9 5.65,-12.1 13.38,-29.82 22.64,-51.84 18.54,-44.04 42.24,-105.67 67.49,-174.06 25.24,-68.36 48.34,-130.12 65.93,-174.49 8.64,-21.55 15.73,-39.29 21,-52.47 2.26,-5.72 4.11,-10.45 5.64,-14.31 1.23,-3.31 1.79,-5.07 1.62,-5.15"
         style="fill:#1d2a30;fill-opacity:1;fill-rule:nonzero;stroke:none"
         id="path90" /><path
         d="m 3526.97,1511.38 c 0.05,-0.19 -1.7,-0.9 -5.07,-2.09 -3.99,-1.34 -8.9,-2.98 -14.83,-4.97 -13.71,-4.45 -32.2,-10.44 -54.7,-17.73 -46.18,-14.98 -109.73,-36.39 -179.91,-60.15 -70.21,-23.78 -134.02,-44.63 -180.52,-58.66 -23.25,-7.02 -42.12,-12.51 -55.24,-16.03 -6.06,-1.59 -11.06,-2.9 -15.12,-3.98 -3.48,-0.85 -5.33,-1.2 -5.38,-1.01 -0.05,0.18 1.7,0.9 5.06,2.1 3.99,1.33 8.89,2.97 14.84,4.96 13.7,4.44 32.19,10.43 54.69,17.72 46.18,14.97 109.73,36.4 179.94,60.17 70.18,23.77 133.98,44.62 180.49,58.64 23.25,7.02 42.11,12.51 55.24,16.04 6.06,1.59 11.05,2.91 15.13,3.97 3.47,0.85 5.32,1.2 5.38,1.02"
         style="fill:#1d2a30;fill-opacity:1;fill-rule:nonzero;stroke:none"
         id="path92" /><path
         d="m 3211.88,3478.26 36.61,-111.83 c 1.54,-4.73 -1.16,-9.55 -5.73,-11.2 l -51.22,-18.32 c -3.92,-1.39 -8.94,0.68 -10.48,5.41 l -36.61,111.82 c -39.67,1.68 -76.5,27.97 -90.28,70.04 -17.7,54.09 10,113.23 61.91,131.8 51.88,18.56 108.42,-10.45 126.13,-64.54 13.77,-42.07 0.08,-86.44 -30.33,-113.18 z m -300.09,388.53 c -22.26,68.02 12.49,142.3 77.57,165.57 65.02,23.27 136.06,-13.16 158.33,-81.19 l 22.03,-67.29 -235.9,-84.39 z m 406.81,70.35 -51.53,-18.44 -22.04,67.3 c -40.63,124.11 -170.34,190.52 -288.97,148.09 -118.7,-42.46 -182.16,-177.97 -141.52,-302.09 l 22.03,-67.3 -51.7,-18.49 c -40.21,-14.38 -61.96,-60.72 -48.2,-102.79 l 143.36,-437.9 c 13.99,-42.71 58.37,-65.49 98.57,-51.11 l 533.74,190.93 c 40.85,14.61 62.63,61.06 48.64,103.76 l -143.36,437.91 c -13.77,42.07 -58.17,64.74 -99.02,50.13"
         style="fill:#f03658;fill-opacity:1;fill-rule:nonzero;stroke:none"
         id="path94" /><path
         d="m 3264.82,3919.91 c 0.49,-1.36 -95.5,-37.29 -214.38,-80.26 -118.9,-42.98 -215.67,-76.72 -216.16,-75.36 -0.49,1.35 95.48,37.28 214.4,80.26 118.86,42.97 215.65,76.71 216.14,75.36"
         style="fill:#1d2a30;fill-opacity:1;fill-rule:nonzero;stroke:none"
         id="path96" /><path
         d="m 3378.16,3901.48 c 0.09,0.03 0.48,-0.86 1.15,-2.62 0.76,-2.04 1.72,-4.62 2.91,-7.83 2.57,-7.3 6.14,-17.44 10.69,-30.32 9.18,-26.76 22.26,-64.86 38.36,-111.78 16.06,-47.37 35.12,-103.59 56.27,-166 10.45,-31.33 21.87,-63.88 32.82,-98.25 5.06,-17.28 9.25,-35.75 7.5,-54.88 -0.89,-9.5 -3.47,-19.05 -8.1,-27.68 -4.71,-8.58 -11.28,-16.13 -18.9,-22.28 -15.37,-12.29 -33.36,-19.46 -50.75,-25.91 -17.45,-6.27 -34.66,-12.45 -51.55,-18.51 -33.8,-12.1 -66.4,-23.77 -97.47,-34.89 -62.08,-22.1 -118.02,-42.02 -165.14,-58.8 -46.79,-16.46 -84.78,-29.82 -111.48,-39.21 -12.91,-4.43 -23.09,-7.91 -30.39,-10.41 -3.26,-1.06 -5.88,-1.91 -7.95,-2.59 -1.81,-0.55 -2.75,-0.8 -2.78,-0.71 -0.02,0.08 0.85,0.49 2.59,1.21 2.03,0.8 4.59,1.81 7.78,3.07 7.23,2.73 17.29,6.52 30.06,11.34 26.57,9.76 64.37,23.65 110.93,40.77 47,17.07 102.81,37.35 164.76,59.84 31.03,11.22 63.6,22.98 97.36,35.17 16.89,6.1 34.06,12.3 51.5,18.59 17.24,6.39 34.75,13.47 49.25,25.09 7.19,5.8 13.25,12.8 17.61,20.7 4.26,7.96 6.66,16.77 7.51,25.7 1.69,17.97 -2.28,35.93 -7.24,52.94 -10.77,34.04 -22.17,66.89 -32.47,98.18 -20.75,62.53 -39.45,118.88 -55.21,166.36 -15.44,47.13 -27.99,85.41 -36.8,112.3 -4.15,13.01 -7.41,23.25 -9.75,30.62 -1,3.29 -1.79,5.92 -2.42,8.01 -0.51,1.81 -0.74,2.75 -0.65,2.78"
         style="fill:#1d2a30;fill-opacity:1;fill-rule:nonzero;stroke:none"
         id="path98" /><path
         d="m 3096.62,4039.39 c -0.27,-0.44 -5.32,2.68 -15.14,6.64 -9.85,3.77 -24.76,8.15 -43.65,8.75 -18.77,0.69 -41.61,-2.21 -64.42,-12.17 -22.71,-9.84 -45.09,-27.31 -61.12,-51.07 -16.34,-23.68 -23.49,-51.09 -23.5,-75.94 -0.21,-24.96 5.09,-47.19 10.18,-65.43 5.27,-18.26 10.66,-32.75 14.21,-42.81 3.59,-10.06 5.53,-15.66 5.17,-15.8 -0.32,-0.12 -2.89,5.21 -7.07,15.06 -4.13,9.86 -10.05,24.18 -15.84,42.49 -5.59,18.29 -11.39,40.8 -11.45,66.52 -0.27,25.58 7.05,54.32 23.98,78.83 16.62,24.64 39.92,42.61 63.54,52.56 23.71,10.05 47.25,12.62 66.49,11.44 19.37,-1.09 34.5,-6.16 44.27,-10.57 4.84,-2.37 8.55,-4.3 10.87,-5.94 2.38,-1.54 3.57,-2.41 3.48,-2.56"
         style="fill:#1d2a30;fill-opacity:1;fill-rule:nonzero;stroke:none"
         id="path100" /><path
         d="m 3101.16,3648.08 c -0.06,0.13 1.67,0.99 5.07,2.53 3.36,1.57 8.52,3.57 15.43,5.55 6.84,2.15 15.62,3.71 25.98,4.31 10.33,0.52 22.5,-0.55 35.08,-5.22 25.55,-8.99 49.1,-35.11 60.66,-69.71 5.56,-17.48 6.06,-37.78 0.46,-57.41 -5.95,-19.55 -16.89,-38.31 -32.69,-54.07 l 0.65,2.65 c 13.28,-36.44 27.75,-76.11 42.8,-117.38 l 0.91,-2.51 -2.53,-0.85 c -7.24,-2.43 -15.03,-5.04 -22.86,-7.66 -16.84,-5.64 -33.45,-11.2 -49.75,-16.67 l -2.46,-0.82 -0.82,2.47 c -13.7,41.46 -28.71,80.55 -39.6,117.91 l 2.15,-1.7 c -20.47,1.36 -38.86,9.96 -53.51,21.16 -14.71,11.31 -25.98,25.35 -33.59,40.12 -7.47,14.82 -11.23,30.55 -10.59,45.04 0.37,14.49 3.71,27.59 8.39,38.64 9.32,22.3 23.23,36.32 33.52,43.97 10.49,7.66 17.3,9.65 17.3,9.65 0.24,-0.45 -6.35,-2.95 -16.36,-10.87 -9.81,-7.9 -23.07,-21.94 -31.79,-43.84 -8.71,-21.37 -12.49,-52.08 3.09,-80.76 7.47,-14.16 18.48,-27.64 32.71,-38.43 14.17,-10.68 31.85,-18.73 51.1,-19.91 l 1.69,-0.1 0.47,-1.6 c 11.02,-37.1 26.12,-76.03 39.94,-117.66 l -3.28,1.64 c 16.28,5.47 32.9,11.04 49.74,16.69 7.83,2.62 15.61,5.23 22.86,7.66 l -1.62,-3.35 c -14.95,41.31 -29.32,81.02 -42.52,117.49 l -0.53,1.48 1.19,1.17 c 14.96,14.79 25.86,33.13 31.6,51.73 5.46,18.77 5.13,38.06 -0.04,54.9 -10.93,33.59 -33.4,59.13 -57.77,68.09 -12.04,4.7 -23.81,5.98 -33.93,5.71 -10.14,-0.36 -18.81,-1.64 -25.64,-3.52 -13.74,-3.53 -20.74,-6.95 -20.91,-6.52"
         style="fill:#1d2a30;fill-opacity:1;fill-rule:nonzero;stroke:none"
         id="path102" /><path
         d="m 2792.1,760.738 -998.8,4.621 c -120.13,0.551 -217.08,98.36 -216.57,218.493 l 10.58,2504.038 c 0.51,120.19 98.38,217.2 218.58,216.65 l 998.81,-4.61 c 120.13,-0.56 217.07,-98.37 216.56,-218.49 L 3010.68,977.391 c -0.51,-120.192 -98.38,-217.2 -218.58,-216.653"
         style="fill:#365462;fill-opacity:1;fill-rule:nonzero;stroke:none"
         id="path104" /><path
         d="m 2803.28,3613.51 -193.66,0.89 c -25.96,0.12 -47.12,-21.8 -47.22,-48.94 l -0.16,-35.13 c -0.11,-27.15 -21.26,-49.06 -47.23,-48.94 l -377.47,1.75 c -25.96,0.11 -46.92,22.22 -46.81,49.37 l 0.15,35.13 c 0.11,27.15 -20.85,49.25 -46.82,49.37 l -68.11,0.32 -169.49,0.78 c -84.18,0.39 -152.72,-67.55 -153.08,-151.73 l -10.33,-2444.12 c -0.36,-84.139 67.54,-152.639 151.67,-153.03 l 996.82,-4.601 c 84.17,-0.391 152.71,67.551 153.07,151.731 l 10.34,2444.13 c 0.35,84.13 -67.54,152.63 -151.67,153.02"
         style="fill:#ffffff;fill-opacity:1;fill-rule:nonzero;stroke:none"
         id="path106" /><path
         d="m 2669.13,1190.67 -741.24,3.42 c -7.68,0.04 -13.86,8.39 -13.82,18.66 l 0.82,193.92 c 0.04,10.27 6.3,18.57 13.98,18.54 l 741.23,-3.43 c 7.68,-0.04 13.87,-8.39 13.82,-18.66 l -0.82,-193.91 c -0.04,-10.27 -6.3,-18.57 -13.97,-18.54"
         style="fill:#f03658;fill-opacity:1;fill-rule:nonzero;stroke:none"
         id="path108" /><g
         id="g110"
         transform="scale(10)"><text
           transform="matrix(0.956631,-0.00441968,-0.00423,-0.999991,212.906,128.447)"
           style="font-variant:normal;font-weight:normal;font-size:8.29896px;font-family:Montserrat;-inkscape-font-specification:Montserrat-Regular;writing-mode:lr-tb;fill:#ebebe4;fill-opacity:1;fill-rule:nonzero;stroke:none"
           id="text118"><tspan
             x="0"
             y="0"
             id="tspan112">S</tspan><tspan
             x="5.162364 7.6686487 14.240786 20.456703"
             y="0.00062152446"
             sodipodi:role="line"
             id="tspan114">ING </tspan><tspan
             x="22.598278 28.938681"
             y="-0.00026745122"
             sodipodi:role="line"
             id="tspan116">UP</tspan></text></g><path
         d="m 2075.34,2848.03 -257.16,1.19 0.2,47.19 257.16,-1.19 -0.2,-47.19"
         style="fill:#f03658;fill-opacity:1;fill-rule:nonzero;stroke:none"
         id="path120" /><path
         d="m 2075.34,2848.03 -257.16,1.19 0.2,47.19 257.16,-1.19 -0.2,-47.19"
         style="fill:#ef2f4b;fill-opacity:1;fill-rule:nonzero;stroke:none"
         id="path122" /><path
         d="m 2829.74,2605.66 c -0.04,0.2 2.15,-0.12 5.87,1.38 3.51,1.36 9.05,5.62 9.69,13.45 -0.03,15.95 -0.08,39.13 -0.14,68.9 0,14.98 -0.01,31.62 -0.02,49.82 0.01,4.55 0.01,9.2 0.01,13.95 0.13,4.85 0.12,9.36 -2.8,13.1 -2.63,3.7 -7.13,6.07 -11.83,6.09 -5.12,0.01 -10.35,0.02 -15.66,0.03 -42.55,0.08 -90.96,0.18 -144.44,0.28 -214.23,0.8 -509.88,1.89 -836.41,3.1 -4.31,0.04 -8.52,-2.07 -11.02,-5.57 -2.78,-3.53 -2.66,-7.71 -2.59,-13.07 -0.05,-10.15 -0.09,-20.26 -0.14,-30.35 -0.08,-20.16 -0.17,-40.2 -0.26,-60.08 -0.04,-9.95 -0.09,-19.85 -0.14,-29.72 0.16,-4.73 -0.46,-10.39 0.42,-14.06 0.99,-4.02 4.03,-7.42 7.81,-9.02 1.96,-0.8 3.8,-1.08 6.18,-1.06 l 7.32,-0.04 14.6,-0.06 c 9.71,-0.05 19.38,-0.1 29.01,-0.15 77.01,-0.41 151.29,-0.81 222.07,-1.18 141.49,-0.86 268.93,-1.64 376.03,-2.29 106.88,-0.85 193.45,-1.53 253.49,-2 29.78,-0.35 52.97,-0.62 68.92,-0.81 7.74,-0.15 13.69,-0.26 17.92,-0.34 4.04,-0.11 6.11,-0.3 6.11,-0.3 0,0 -2.07,-0.17 -6.11,-0.23 -4.23,-0.05 -10.18,-0.11 -17.92,-0.18 -15.96,-0.04 -39.15,-0.1 -68.93,-0.17 -60.05,0.08 -146.61,0.2 -253.5,0.34 -107.09,0.34 -234.53,0.74 -376.03,1.18 -70.78,0.28 -145.06,0.57 -222.07,0.88 -9.63,0.04 -19.3,0.07 -29.01,0.12 l -14.6,0.06 -7.32,0.03 c -2.5,-0.05 -5.6,0.34 -8.16,1.46 -5.24,2.2 -9.41,6.89 -10.8,12.45 -0.79,2.82 -0.61,5.69 -0.62,8 l 0.03,7.39 c 0.04,9.87 0.08,19.78 0.12,29.72 0.08,19.89 0.16,39.92 0.24,60.08 0.04,10.09 0.09,20.2 0.13,30.35 0.07,2.6 -0.15,4.88 0.25,7.99 0.45,2.92 1.58,5.74 3.34,8.12 3.43,4.83 9.33,7.79 15.25,7.72 326.53,-1.8 622.18,-3.44 836.39,-4.63 53.5,-0.39 101.91,-0.74 144.46,-1.05 5.31,-0.04 10.54,-0.08 15.66,-0.13 5.61,-0.05 10.93,-2.93 14,-7.33 3.42,-4.31 3.39,-10.21 3.2,-14.68 -0.04,-4.75 -0.07,-9.4 -0.11,-13.95 -0.16,-18.2 -0.31,-34.84 -0.44,-49.82 -0.37,-29.8 -0.65,-53.01 -0.85,-68.97 -0.87,-8.34 -6.85,-12.62 -10.54,-13.87 -3.91,-1.37 -6.06,-0.88 -6.06,-0.88"
         style="fill:#e3e3e2;fill-opacity:1;fill-rule:nonzero;stroke:none"
         id="path124" /><path
         d="m 2357.63,2668.62 -470.43,2.18 0.19,44.1 470.43,-2.17 -0.19,-44.11"
         style="fill:#f03658;fill-opacity:1;fill-rule:nonzero;stroke:none"
         id="path126" /><path
         d="m 2357.63,2668.62 -137.22,0.64 c 7.74,11.95 16.73,23.97 21.86,30.16 4.25,5.12 6.65,9.87 7.47,13.81 l 108.08,-0.5 -0.19,-44.11 m -169.83,0.79 -45.98,0.21 c -4.44,19.2 -12.69,32.6 -18.42,35.55 -1.28,0.66 -2.58,0.96 -3.84,0.96 -6.44,0 -11.78,-7.81 -8.14,-15.08 2.5,-4.99 4.34,-13.27 5.65,-21.31 l -229.87,1.06 0.19,44.1 339.73,-1.57 c -13.2,-12.9 -31.25,-33.84 -39.32,-43.92"
         style="fill:#f25278;fill-opacity:1;fill-rule:nonzero;stroke:none"
         id="path128" /><path
         d="m 2073.52,2417.4 -257.16,1.19 0.2,47.18 257.16,-1.18 -0.2,-47.19"
         style="fill:#f03658;fill-opacity:1;fill-rule:nonzero;stroke:none"
         id="path130" /><path
         d="m 1923.43,2418.09 -107.07,0.5 0.2,47.18 155.88,-0.72 c -17.22,-16.5 -34.05,-32.63 -49.01,-46.96"
         style="fill:#ef2f4b;fill-opacity:1;fill-rule:nonzero;stroke:none"
         id="path132" /><path
         d="m 2823.14,2175.05 c -0.02,0.18 2.1,-0.01 5.93,1.12 3.63,1.19 9.48,4.19 12.66,11.33 1.71,3.52 1.89,7.79 1.73,12.68 -0.02,4.86 -0.04,10.15 -0.06,15.89 -0.02,11.51 -0.05,24.75 -0.07,39.64 0,14.93 -0.01,31.51 -0.01,49.64 0,4.54 0,9.17 0,13.9 0.21,4.78 -0.37,9.21 -2.92,13.2 -2.41,3.92 -6.31,7.03 -10.87,8.42 -4.48,1.42 -9.83,0.65 -15.11,0.87 -42.4,0.08 -90.65,0.18 -143.96,0.28 -213.47,0.79 -508.09,1.88 -833.49,3.09 -9.05,0.22 -17.39,-7.15 -18.26,-16.1 -0.3,-9.51 -0.16,-20.02 -0.26,-29.94 -0.09,-20.09 -0.17,-40.06 -0.26,-59.87 -0.04,-9.91 -0.09,-19.78 -0.13,-29.62 0.16,-4.91 -0.54,-10.04 0.63,-13.96 1.13,-4.13 3.77,-7.83 7.3,-10.25 3.66,-2.47 7.63,-3.38 12.43,-3.2 l 14.55,-0.07 c 9.68,-0.05 19.31,-0.1 28.91,-0.15 76.74,-0.41 150.77,-0.8 221.3,-1.17 141,-0.86 268,-1.64 374.72,-2.29 106.52,-0.84 192.78,-1.53 252.61,-1.99 29.68,-0.36 52.79,-0.63 68.68,-0.81 7.72,-0.15 13.65,-0.26 17.87,-0.34 4.02,-0.11 6.08,-0.3 6.08,-0.3 0,0 -2.06,-0.17 -6.09,-0.23 -4.21,-0.05 -10.15,-0.11 -17.87,-0.18 -15.88,-0.04 -39,-0.1 -68.68,-0.18 -59.83,0.09 -146.1,0.2 -252.62,0.35 -106.72,0.33 -233.71,0.73 -374.73,1.17 -70.52,0.28 -144.55,0.57 -221.3,0.87 -9.59,0.04 -19.23,0.08 -28.91,0.12 l -14.54,0.06 c -4.89,-0.26 -10.9,0.93 -15.32,4.08 -4.53,3.1 -7.91,7.83 -9.36,13.15 -1.49,5.6 -0.6,10.47 -0.82,15.35 0.03,9.83 0.07,19.7 0.11,29.61 0.08,19.82 0.16,39.78 0.24,59.88 0.12,10.17 -0.08,19.84 0.29,30.52 1.11,11.52 11.85,20.99 23.45,20.69 325.4,-1.79 620.02,-3.42 833.49,-4.61 53.31,-0.39 101.55,-0.74 143.95,-1.05 5.23,-0.28 10.52,0.57 15.93,-1.09 5.22,-1.64 9.64,-5.21 12.34,-9.7 2.87,-4.39 3.49,-10 3.2,-14.62 -0.04,-4.73 -0.07,-9.36 -0.1,-13.9 -0.16,-18.13 -0.32,-34.71 -0.44,-49.64 -0.16,-14.89 -0.3,-28.13 -0.41,-39.64 -0.07,-5.73 -0.13,-11.03 -0.19,-15.89 0.09,-4.76 -0.19,-9.5 -2.07,-13.1 -3.52,-7.43 -9.7,-10.36 -13.48,-11.41 -3.97,-0.99 -6.07,-0.61 -6.07,-0.61"
         style="fill:#e3e3e2;fill-opacity:1;fill-rule:nonzero;stroke:none"
         id="path134" /><path
         d="m 2071.63,1968.27 -257.17,1.18 0.2,47.19 257.17,-1.18 -0.2,-47.19"
         style="fill:#f03658;fill-opacity:1;fill-rule:nonzero;stroke:none"
         id="path136" /><path
         d="m 2071.63,1968.27 -257.17,1.18 0.2,47.19 257.17,-1.18 -0.2,-47.19"
         style="fill:#ef2f4b;fill-opacity:1;fill-rule:nonzero;stroke:none"
         id="path138" /><path
         d="m 2821.24,1725.92 c -0.01,0.17 2.1,-0.01 5.92,1.11 3.65,1.19 9.49,4.2 12.67,11.34 1.71,3.52 1.88,7.79 1.73,12.68 -0.02,4.86 -0.04,10.15 -0.06,15.88 -0.02,11.52 -0.04,24.76 -0.07,39.64 -0.01,14.93 -0.01,31.52 -0.02,49.65 0,4.53 0.01,9.17 0.01,13.91 0.21,4.77 -0.36,9.2 -2.92,13.19 -2.41,3.92 -6.31,7.03 -10.87,8.43 -4.47,1.41 -9.82,0.64 -15.12,0.86 -42.39,0.09 -90.63,0.17 -143.94,0.28 -213.49,0.79 -508.1,1.89 -833.5,3.09 -9.04,0.22 -17.39,-7.15 -18.26,-16.1 -0.3,-9.51 -0.15,-20.02 -0.25,-29.94 -0.09,-20.09 -0.18,-40.06 -0.27,-59.87 -0.04,-9.91 -0.08,-19.78 -0.13,-29.62 0.17,-4.9 -0.53,-10.03 0.63,-13.95 1.13,-4.15 3.77,-7.84 7.3,-10.26 3.66,-2.47 7.63,-3.39 12.43,-3.2 l 14.55,-0.07 c 9.68,-0.05 19.31,-0.1 28.91,-0.15 76.74,-0.41 150.77,-0.8 221.29,-1.17 141.01,-0.87 268,-1.64 374.72,-2.29 106.52,-0.84 192.78,-1.53 252.62,-2 29.68,-0.35 52.79,-0.62 68.68,-0.81 7.71,-0.14 13.65,-0.25 17.86,-0.34 4.02,-0.11 6.09,-0.29 6.09,-0.29 0,0 -2.07,-0.17 -6.09,-0.24 -4.22,-0.03 -10.15,-0.09 -17.86,-0.17 -15.9,-0.04 -39.01,-0.1 -68.69,-0.18 -59.84,0.09 -146.1,0.2 -252.63,0.34 -106.72,0.34 -233.71,0.74 -374.72,1.18 -70.52,0.28 -144.55,0.56 -221.3,0.87 -9.59,0.03 -19.23,0.08 -28.91,0.12 l -14.54,0.06 c -4.89,-0.26 -10.9,0.93 -15.32,4.08 -4.52,3.11 -7.91,7.84 -9.37,13.15 -1.48,5.6 -0.59,10.48 -0.81,15.35 0.04,9.83 0.07,19.71 0.11,29.61 0.08,19.82 0.16,39.78 0.24,59.88 0.12,10.18 -0.08,19.84 0.3,30.53 1.1,11.51 11.84,20.98 23.45,20.68 325.39,-1.79 620,-3.43 833.49,-4.61 53.3,-0.39 101.54,-0.74 143.94,-1.05 5.24,-0.27 10.52,0.56 15.93,-1.1 5.22,-1.63 9.63,-5.21 12.35,-9.69 2.87,-4.4 3.48,-10 3.2,-14.62 -0.04,-4.73 -0.08,-9.37 -0.12,-13.9 -0.15,-18.13 -0.3,-34.71 -0.43,-49.64 -0.15,-14.89 -0.29,-28.13 -0.41,-39.65 -0.07,-5.72 -0.13,-11.02 -0.19,-15.87 0.08,-4.78 -0.2,-9.51 -2.07,-13.12 -3.52,-7.42 -9.7,-10.35 -13.47,-11.41 -3.98,-0.97 -6.08,-0.6 -6.08,-0.6"
         style="fill:#e3e3e2;fill-opacity:1;fill-rule:nonzero;stroke:none"
         id="path140" /><path
         d="m 2355.82,2237.99 -470.44,2.17 0.19,44.11 470.43,-2.17 -0.18,-44.11"
         style="fill:#f03658;fill-opacity:1;fill-rule:nonzero;stroke:none"
         id="path142" /><path
         d="m 2355.82,2237.99 -396.95,1.83 c 12.19,12 26.39,27.04 41.7,43.92 l 355.43,-1.64 -0.18,-44.11"
         style="fill:#f25278;fill-opacity:1;fill-rule:nonzero;stroke:none"
         id="path144" /><path
         d="m 1928.31,1807.55 c -0.06,-12.11 -9.31,-21.88 -20.66,-21.84 -11.36,0.06 -20.53,9.93 -20.48,22.04 0.06,12.1 9.31,21.89 20.66,21.83 11.36,-0.05 20.52,-9.91 20.48,-22.03"
         style="fill:#f03658;fill-opacity:1;fill-rule:nonzero;stroke:none"
         id="path146" /><path
         d="m 1992.04,1807.26 c -0.06,-12.11 -9.31,-21.89 -20.66,-21.84 -11.36,0.05 -20.53,9.91 -20.48,22.03 0.05,12.11 9.3,21.89 20.66,21.84 11.36,-0.05 20.52,-9.91 20.48,-22.03"
         style="fill:#f03658;fill-opacity:1;fill-rule:nonzero;stroke:none"
         id="path148" /><path
         d="m 2055.76,1806.96 c -0.05,-12.11 -9.3,-21.89 -20.66,-21.83 -11.35,0.05 -20.52,9.91 -20.47,22.03 0.05,12.11 9.3,21.88 20.66,21.84 11.35,-0.05 20.53,-9.92 20.47,-22.04"
         style="fill:#f03658;fill-opacity:1;fill-rule:nonzero;stroke:none"
         id="path150" /><path
         d="m 2119.49,1806.67 c -0.05,-12.11 -9.3,-21.89 -20.66,-21.83 -11.35,0.04 -20.52,9.91 -20.47,22.03 0.05,12.11 9.3,21.88 20.66,21.83 11.36,-0.06 20.53,-9.92 20.47,-22.03"
         style="fill:#f03658;fill-opacity:1;fill-rule:nonzero;stroke:none"
         id="path152" /><path
         d="m 2183.22,1806.38 c -0.05,-12.12 -9.3,-21.9 -20.66,-21.84 -11.35,0.05 -20.52,9.91 -20.48,22.02 0.06,12.12 9.31,21.9 20.67,21.85 11.36,-0.06 20.52,-9.92 20.47,-22.03"
         style="fill:#f03658;fill-opacity:1;fill-rule:nonzero;stroke:none"
         id="path154" /><path
         d="m 2246.95,1806.08 c -0.05,-12.11 -9.3,-21.89 -20.67,-21.83 -11.35,0.05 -20.51,9.91 -20.46,22.02 0.04,12.12 9.29,21.9 20.65,21.85 11.37,-0.06 20.53,-9.93 20.48,-22.04"
         style="fill:#f03658;fill-opacity:1;fill-rule:nonzero;stroke:none"
         id="path156" /><path
         d="m 2310.68,1805.79 c -0.06,-12.12 -9.31,-21.89 -20.67,-21.84 -11.35,0.05 -20.51,9.92 -20.46,22.03 0.04,12.12 9.29,21.89 20.65,21.83 11.36,-0.04 20.53,-9.91 20.48,-22.02"
         style="fill:#f03658;fill-opacity:1;fill-rule:nonzero;stroke:none"
         id="path158" /><path
         d="m 2374.4,1805.5 c -0.05,-12.12 -9.3,-21.9 -20.66,-21.85 -11.35,0.06 -20.52,9.92 -20.46,22.03 0.05,12.11 9.29,21.9 20.65,21.84 11.36,-0.05 20.53,-9.91 20.47,-22.02"
         style="fill:#f03658;fill-opacity:1;fill-rule:nonzero;stroke:none"
         id="path160" /><path
         d="m 2438.13,1805.2 c -0.05,-12.11 -9.3,-21.89 -20.65,-21.84 -11.36,0.05 -20.53,9.91 -20.48,22.03 0.06,12.11 9.3,21.89 20.66,21.84 11.36,-0.05 20.53,-9.91 20.47,-22.03"
         style="fill:#f03658;fill-opacity:1;fill-rule:nonzero;stroke:none"
         id="path162" /><path
         d="m 1907.73,1785.71 c -0.03,0 -0.05,0 -0.08,0 -11.32,0.06 -20.45,9.85 -20.48,21.89 0,0.05 0,0.1 0,0.15 0.06,12.07 9.25,21.83 20.56,21.83 0.03,0 0.07,0 0.1,0 11.32,-0.05 20.45,-9.83 20.48,-21.89 0,-0.05 0,-0.09 0,-0.14 -0.06,-12.08 -9.26,-21.84 -20.58,-21.84"
         style="fill:#f25278;fill-opacity:1;fill-rule:nonzero;stroke:none"
         id="path164" /><path
         d="m 1971.46,1785.42 c -0.03,0 -0.05,0 -0.08,0 -11.32,0.05 -20.45,9.84 -20.48,21.89 0,0.05 0,0.1 0,0.14 0.05,12.08 9.26,21.84 20.58,21.84 0.03,0 0.05,0 0.08,0 11.32,-0.05 20.45,-9.84 20.48,-21.89 0,-0.05 0,-0.1 0,-0.14 -0.06,-12.08 -9.26,-21.84 -20.58,-21.84"
         style="fill:#f25278;fill-opacity:1;fill-rule:nonzero;stroke:none"
         id="path166" /><path
         d="m 2035.2,1785.13 c -0.03,0 -0.06,0 -0.1,0 -11.31,0.05 -20.45,9.83 -20.47,21.89 0,0.04 0,0.09 0,0.14 0.05,12.08 9.26,21.84 20.57,21.84 0.03,0 0.06,0 0.09,0 11.31,-0.05 20.45,-9.84 20.47,-21.89 0,-0.05 0,-0.1 0,-0.15 -0.05,-12.07 -9.25,-21.83 -20.56,-21.83"
         style="fill:#f25278;fill-opacity:1;fill-rule:nonzero;stroke:none"
         id="path168" /><path
         d="m 2098.93,1784.84 c -0.03,0 -0.06,0 -0.1,0 -11.31,0.04 -20.45,9.83 -20.47,21.88 0,0.05 0,0.1 0,0.15 0.05,12.07 9.26,21.83 20.57,21.83 0.03,0 0.06,0 0.09,0 11.31,-0.06 20.45,-9.84 20.47,-21.89 0,-0.04 0,-0.09 0,-0.14 -0.05,-12.07 -9.24,-21.83 -20.56,-21.83"
         style="fill:#f25278;fill-opacity:1;fill-rule:nonzero;stroke:none"
         id="path170" /><path
         d="m 2162.67,1784.54 c -0.04,0 -0.07,0 -0.11,0 -11.31,0.05 -20.45,9.84 -20.48,21.88 0,0.05 0,0.1 0,0.14 0.06,12.09 9.27,21.85 20.58,21.85 0.03,0 0.06,0 0.09,0 11.31,-0.06 20.45,-9.85 20.47,-21.89 0,-0.05 0,-0.09 0,-0.14 -0.05,-12.08 -9.24,-21.84 -20.55,-21.84"
         style="fill:#f25278;fill-opacity:1;fill-rule:nonzero;stroke:none"
         id="path172" /><path
         d="m 2226.39,1784.25 c -0.04,0 -0.07,0 -0.11,0 -11.31,0.05 -20.44,9.83 -20.46,21.88 0,0.05 0,0.09 0,0.14 0.04,12.09 9.25,21.85 20.56,21.85 0.03,0 0.06,0 0.09,0 11.32,-0.06 20.45,-9.85 20.48,-21.89 0,-0.05 0,-0.1 0,-0.15 -0.05,-12.08 -9.24,-21.83 -20.56,-21.83"
         style="fill:#f25278;fill-opacity:1;fill-rule:nonzero;stroke:none"
         id="path174" /><path
         d="m 2290.1,1783.95 c -0.03,0 -0.06,0 -0.09,0 -11.31,0.05 -20.44,9.84 -20.46,21.89 0,0.04 0,0.09 0,0.14 0.04,12.08 9.24,21.83 20.55,21.83 0.03,0 0.07,0 0.1,0 11.31,-0.04 20.46,-9.83 20.48,-21.88 0,-0.04 0,-0.09 0,-0.14 -0.06,-12.09 -9.26,-21.84 -20.58,-21.84"
         style="fill:#f25278;fill-opacity:1;fill-rule:nonzero;stroke:none"
         id="path176" /><path
         d="m 2353.83,1783.65 c -0.03,0 -0.06,0 -0.09,0 -11.31,0.06 -20.45,9.84 -20.46,21.89 0,0.05 0,0.1 0,0.14 0.05,12.08 9.24,21.84 20.55,21.84 0.03,0 0.07,0 0.1,0 11.31,-0.05 20.46,-9.83 20.47,-21.88 0,-0.05 0,-0.09 0,-0.14 -0.05,-12.09 -9.25,-21.85 -20.57,-21.85"
         style="fill:#f25278;fill-opacity:1;fill-rule:nonzero;stroke:none"
         id="path178" /><path
         d="m 2417.56,1783.36 c -0.03,0 -0.06,0 -0.08,0 -11.32,0.05 -20.46,9.84 -20.48,21.89 0,0.05 0,0.09 0,0.14 0.06,12.08 9.26,21.84 20.58,21.84 0.02,0 0.05,0 0.08,0 11.31,-0.05 20.46,-9.84 20.47,-21.89 0,-0.05 0,-0.1 0,-0.14 -0.05,-12.08 -9.25,-21.84 -20.57,-21.84"
         style="fill:#f25278;fill-opacity:1;fill-rule:nonzero;stroke:none"
         id="path180" /><path
         d="m 2347.62,3248.86 c 13.46,5.65 23.03,19.52 23.11,35.88 0.09,21.42 -16.13,38.86 -36.21,38.95 -20.08,0.1 -36.44,-17.19 -36.53,-38.62 -0.07,-16.5 9.57,-30.54 23.18,-36.21 -55.97,-8.43 -53.43,-69.25 -53.43,-69.25 l 132.34,-0.62 c 0,0 3.02,61.49 -52.46,69.87"
         style="fill:#f03658;fill-opacity:1;fill-rule:nonzero;stroke:none"
         id="path182" /><path
         d="m 2400.08,3178.99 -132.34,0.62 c 0,0 -0.02,0.41 -0.02,1.19 0,8.54 2.13,60.33 53.45,68.06 v 0 0 c -13.55,5.64 -23.17,19.6 -23.18,36.02 0,0.07 0,0.13 0,0.19 0.09,21.37 16.36,38.62 36.37,38.62 0.05,0 0.1,0 0.16,0 20.05,-0.09 36.23,-17.46 36.21,-38.83 0,-0.04 0,-0.08 0,-0.12 -0.08,-16.36 -9.65,-30.23 -23.11,-35.88 v 0 0 c 50.06,-7.56 52.49,-58.36 52.49,-68.21 0,-1.07 -0.03,-1.66 -0.03,-1.66"
         style="fill:#ef2f4b;fill-opacity:1;fill-rule:nonzero;stroke:none"
         id="path184" /><path
         d="m 2562.44,3082.75 -471.93,2.18 0.24,56.42 471.92,-2.17 -0.23,-56.43"
         style="fill:#f03658;fill-opacity:1;fill-rule:nonzero;stroke:none"
         id="path186" /><path
         d="m 2562.44,3082.75 -471.93,2.18 0.24,56.42 471.92,-2.17 -0.23,-56.43"
         style="fill:#f25278;fill-opacity:1;fill-rule:nonzero;stroke:none"
         id="path188" /><path
         d="m 827.848,2847.15 c 0,-0.1 -1.578,-0.27 -4.645,-0.52 -3.308,-0.24 -7.82,-0.57 -13.613,-0.99 -6.012,-0.11 -13.317,-1.41 -21.938,-2.93 -4.289,-0.87 -9.031,-1.22 -13.867,-2.65 -4.863,-1.35 -10.031,-2.78 -15.5,-4.3 -21.582,-6.81 -47.57,-17.62 -73.738,-36.57 -26.106,-18.81 -52.211,-45.7 -72.559,-80.77 -10.699,-17.24 -18.457,-37.15 -25.433,-58.08 -5.672,-21.3 -10.696,-43.93 -11.071,-67.78 -1.066,-11.89 0.137,-23.97 0.645,-36.25 0.32,-6.13 1.644,-12.22 2.426,-18.4 0.843,-6.19 1.75,-12.42 3.508,-18.52 5.062,-24.86 15.183,-49.23 27.996,-72.58 25.609,-46.89 68.648,-87.27 121.8,-110.68 26.594,-11.73 55.993,-18.06 85.891,-19.29 29.926,-1.89 60.586,2.91 89.652,12.91 l 8.793,3.22 1.164,0.43 1.047,-0.53 c 43.035,-21.85 85.234,-43.27 126.124,-64.03 l -3.75,-3.2 c -13.47,41.8 -26.52,82.32 -39.05,121.21 l -0.48,1.5 1.11,1.11 c 31.79,31.83 53.94,70.5 66.22,110.09 12.31,39.71 14.41,80.15 9.6,117.21 -4.8,37.14 -16.94,70.91 -33.13,99.33 -16.18,28.5 -36.3,51.66 -56.945,69.73 -20.894,17.95 -42.554,30.11 -61.957,39.42 -19.882,8.32 -37.601,13.65 -52.335,16.49 -7.364,1.25 -13.911,2.37 -19.618,3.34 -5.664,0.39 -10.484,0.73 -14.472,1.01 -3.723,0.29 -6.653,0.51 -8.868,0.68 -1.992,0.18 -3.007,0.31 -3.007,0.39 0,0.07 1.015,0.09 3.015,0.06 2.223,-0.06 5.16,-0.14 8.903,-0.25 4.011,-0.16 8.867,-0.36 14.57,-0.59 5.762,-0.86 12.367,-1.84 19.801,-2.95 14.883,-2.6 32.832,-7.72 53.015,-15.89 19.703,-9.17 41.739,-21.27 63.039,-39.27 21.059,-18.12 41.609,-41.45 58.199,-70.26 16.59,-28.73 29.11,-62.96 34.14,-100.67 5.05,-37.62 3.07,-78.74 -9.34,-119.19 -12.37,-40.34 -34.83,-79.81 -67.18,-112.32 l 0.63,2.61 c 12.58,-38.86 25.69,-79.37 39.22,-121.15 l 1.98,-6.11 -5.73,2.91 c -40.9,20.74 -83.11,42.13 -126.153,63.95 l 2.207,-0.1 -8.984,-3.31 c -29.711,-10.21 -61.071,-15.11 -91.657,-13.16 -30.55,1.27 -60.605,7.78 -87.761,19.8 -54.293,23.97 -98.078,65.28 -124.055,113.1 -12.996,23.82 -23.211,48.67 -28.297,73.98 -1.758,6.22 -2.66,12.55 -3.5,18.85 -0.773,6.29 -2.094,12.48 -2.402,18.72 -0.473,12.49 -1.637,24.77 -0.512,36.84 0.488,24.23 5.68,47.21 11.559,68.8 7.179,21.22 15.175,41.38 26.129,58.81 20.851,35.45 47.511,62.5 74.097,81.29 26.649,18.94 53.043,29.58 74.907,36.13 5.531,1.44 10.765,2.81 15.687,4.09 4.891,1.36 9.684,1.64 14.008,2.42 8.711,1.37 16.074,2.51 22.125,2.43 5.82,0.2 10.359,0.35 13.683,0.46 3.079,0.07 4.657,0.06 4.657,-0.03"
         style="fill:#f03658;fill-opacity:1;fill-rule:nonzero;stroke:none"
         id="path190" /><path
         d="m 884.871,2613.66 h -18.48 l -40.332,56.21 v 36.89 c 0,0 -28.563,1.76 -25.204,-46.55 3.364,-48.3 -0.273,-36 -0.273,-36 0,0 -60.656,-0.24 -65.695,-5.51 -3.664,-3.83 -5.321,-64.08 -5.957,-96.75 -0.317,-16.45 9.769,-31.75 25.07,-35.64 2.172,-0.55 4.367,-0.87 6.527,-0.87 15.125,0 92.422,12.3 92.422,12.3 h 31.922 v 115.92"
         style="fill:#f03658;fill-opacity:1;fill-rule:nonzero;stroke:none"
         id="path192" /><path
         d="m 937.777,2623.79 -11.367,-126.4 h -31.648 v 123.86 l 43.015,2.54"
         style="fill:#f03658;fill-opacity:1;fill-rule:nonzero;stroke:none"
         id="path194" /><path
         d="M 1314.69,50.5117 V 136.07 l -153.3,1.02 -1.27,-129.25016 9.5,-0.71093 c 42.29,-2.73047 215.2,-6.707035 243.54,2.0625 31.6,9.78909 -98.47,41.32029 -98.47,41.32029"
         style="fill:#f03658;fill-opacity:1;fill-rule:nonzero;stroke:none"
         id="path196" /><path
         d="m 1416.79,17.2188 c 0,-1.4493 -57.35,-2.6094 -128.07,-2.6094 -70.75,0 -128.09,1.1601 -128.09,2.6094 0,1.4296 57.34,2.6015 128.09,2.6015 70.72,0 128.07,-1.1719 128.07,-2.6015"
         style="fill:#1d2a30;fill-opacity:1;fill-rule:nonzero;stroke:none"
         id="path198" /><path
         d="m 1317.39,33.0508 c -1.26,0.6601 -0.18,5.1797 3.11,9.6406 3.28,4.4688 7.29,6.8399 8.29,5.8399 1.03,-1.0391 -1.07,-4.8008 -4.09,-8.9297 -3.04,-4.1133 -6.03,-7.2422 -7.31,-6.5508"
         style="fill:#1d2a30;fill-opacity:1;fill-rule:nonzero;stroke:none"
         id="path200" /><path
         d="m 1327.17,27.4102 c -1.33,0.5 -0.64,5.5703 2.37,10.8984 3,5.3516 6.99,8.5625 8.1,7.6797 1.15,-0.8985 -0.78,-5.2695 -3.56,-10.2383 -2.81,-4.9492 -5.55,-8.8594 -6.91,-8.3398"
         style="fill:#1d2a30;fill-opacity:1;fill-rule:nonzero;stroke:none"
         id="path202" /><path
         d="m 1206.82,17.6016 c -0.6,-0.4219 -2.88,1.8203 -6.19,5.5898 -3.34,3.7305 -7.71,9.0195 -13.45,13.4688 -5.7,4.4414 -11.96,6.6718 -16.59,7.25 -4.66,0.6211 -7.72,-0.1016 -7.98,0.6484 -0.27,0.5625 2.58,2.7031 8.1,3.0312 5.45,0.3711 13.14,-1.6992 19.64,-6.8007 6.48,-5.0508 10.61,-11.0703 13.24,-15.4297 2.62,-4.3985 3.81,-7.3594 3.23,-7.7578"
         style="fill:#1d2a30;fill-opacity:1;fill-rule:nonzero;stroke:none"
         id="path204" /><path
         d="m 1317.85,49.1289 c 0.75,-1.207 -1.88,-4.1797 -6.25,-5.7773 -4.37,-1.6211 -8.31,-1.0508 -8.51,0.3476 -0.23,1.4414 2.88,3.1094 6.71,4.5313 3.84,1.4101 7.29,2.1406 8.05,0.8984"
         style="fill:#1d2a30;fill-opacity:1;fill-rule:nonzero;stroke:none"
         id="path206" /><path
         d="m 1315.45,57.3984 c 0.14,-1.4296 -3.95,-2.6601 -9.12,-2.7265 -5.18,-0.0703 -9.3,1.039 -9.2,2.4765 0.1,1.4414 4.18,2.6602 9.12,2.7227 4.94,0.0703 9.06,-1.0391 9.2,-2.4727"
         style="fill:#1d2a30;fill-opacity:1;fill-rule:nonzero;stroke:none"
         id="path208" /><path
         d="M 1692.21,50.5117 V 136.07 l -153.31,1.02 -1.27,-127.94156 9.5,-0.69922 c 42.29,-2.73828 215.21,-8.027345 243.55,0.74219 31.6,9.78909 -98.47,41.32029 -98.47,41.32029"
         style="fill:#f03658;fill-opacity:1;fill-rule:nonzero;stroke:none"
         id="path210" /><path
         d="m 1794.3,17.0195 c 0,-1.4297 -57.34,-2.5976 -128.07,-2.5976 -70.75,0 -128.08,1.1679 -128.08,2.5976 0,1.4414 57.33,2.6094 128.08,2.6094 70.73,0 128.07,-1.168 128.07,-2.6094"
         style="fill:#1d2a30;fill-opacity:1;fill-rule:nonzero;stroke:none"
         id="path212" /><path
         d="m 1694.91,33.0508 c -1.26,0.6601 -0.18,5.1797 3.11,9.6406 3.28,4.4688 7.29,6.8399 8.29,5.8399 1.03,-1.0391 -1.07,-4.8008 -4.09,-8.9297 -3.05,-4.1133 -6.03,-7.2422 -7.31,-6.5508"
         style="fill:#1d2a30;fill-opacity:1;fill-rule:nonzero;stroke:none"
         id="path214" /><path
         d="m 1704.69,27.4102 c -1.34,0.5 -0.65,5.5703 2.37,10.8984 3,5.3516 6.99,8.5625 8.1,7.6797 1.15,-0.8985 -0.78,-5.2695 -3.56,-10.2383 -2.81,-4.9492 -5.56,-8.8594 -6.91,-8.3398"
         style="fill:#1d2a30;fill-opacity:1;fill-rule:nonzero;stroke:none"
         id="path216" /><path
         d="m 1584.34,17.6016 c -0.6,-0.4219 -2.88,1.8203 -6.2,5.5898 -3.34,3.7305 -7.71,9.0195 -13.45,13.4688 -5.69,4.4414 -11.95,6.6718 -16.58,7.25 -4.66,0.6211 -7.72,-0.1016 -7.98,0.6484 -0.27,0.5625 2.58,2.7031 8.1,3.0312 5.44,0.3711 13.14,-1.6992 19.64,-6.8007 6.48,-5.0508 10.6,-11.0703 13.24,-15.4297 2.62,-4.3985 3.81,-7.3594 3.23,-7.7578"
         style="fill:#1d2a30;fill-opacity:1;fill-rule:nonzero;stroke:none"
         id="path218" /><path
         d="m 1695.37,49.1289 c 0.75,-1.207 -1.88,-4.1797 -6.25,-5.7773 -4.38,-1.6211 -8.31,-1.0508 -8.52,0.3476 -0.22,1.4414 2.88,3.1094 6.71,4.5313 3.85,1.4101 7.3,2.1406 8.06,0.8984"
         style="fill:#1d2a30;fill-opacity:1;fill-rule:nonzero;stroke:none"
         id="path220" /><path
         d="m 1692.96,57.3984 c 0.15,-1.4296 -3.94,-2.6601 -9.12,-2.7265 -5.17,-0.0703 -9.29,1.039 -9.19,2.4765 0.1,1.4414 4.18,2.6602 9.12,2.7227 4.94,0.0703 9.06,-1.0391 9.19,-2.4727"
         style="fill:#1d2a30;fill-opacity:1;fill-rule:nonzero;stroke:none"
         id="path222" /><path
         d="m 2256.97,2589.47 c -4.01,4.12 -13.84,2.18 -13.84,2.18 0,0 1.72,11.69 -0.1,17.34 -1.8,5.65 -14.41,4.56 -14.41,4.56 0,0 -0.78,5.44 0.32,14.22 0.28,2.2 -0.94,3.82 -2.93,5.03 -5.97,3.61 -18.84,3.44 -18.84,3.44 -7.72,5.51 23.52,49.2 35.1,63.18 11.45,13.81 9.52,24.88 -0.81,24.86 -7.04,-0.01 -43.51,-42 -54.64,-56.1 -11.12,-14.09 -40.96,-53.3 -41.97,-22 -1.02,31.29 -13.59,54.95 -21.45,58.99 -7.85,4.03 -16.33,-5.43 -11.98,-14.12 3.51,-7.02 5.73,-20.55 6.99,-30.78 1.04,-8.44 0.7,-17 -1.15,-25.29 -5.22,-23.45 -10.82,-38.67 -13.46,-45.17 l -0.77,0.44 c 0,0 -218.27,-209.29 -234,-224.23 -14.16,-13.45 -297.78,15.9 -354.6,21.92 -15.53,1.74 -38.53,4.86 -58.46,3.99 -24.65,-1.08 -29.03,-4.58 -53.7,-4.91 -75.54,-1.01 -138.49,-8.36 -185.34,-16.29 -56.64,-9.59 -103.07,-49.9 -120.6,-104.61 -57.35,-178.98 -187.092,-602.68 -210.217,-840.72 -18.207,-34.24 -38.558,-74.23 -46.828,-96.73 -16.066,-43.75 -12.168,-45.24 -6.75,-46.25 6.606,-1.22 13.649,14.35 19.945,29.91 7.563,18.68 14.055,37.36 17.446,27.02 6.222,-18.97 -31.524,-93.73 -16.211,-95.92 19.961,-2.85 35.871,79.72 37.734,86.61 1.809,6.69 11.879,4.43 9.871,-1.7 -2.898,-8.81 -31.039,-102.11 -11.461,-105.1 10.848,-1.66 12.016,18.11 12.016,18.11 0,0 19.898,89.23 29.086,87.51 9.336,-1.75 -0.578,-54.53 -5.184,-72.09 -4.55,-17.36 1.86,-26.57 11.215,-22.21 6.383,2.98 21.746,56.44 25.895,73.91 4.148,17.47 14.664,65.59 28.785,37.65 14.118,-27.94 35.488,-44.1 44.318,-44.45 8.82,-0.34 12.53,11.81 4.91,17.86 -6.15,4.89 -13.87,16.21 -19.32,24.96 -4.5,7.21 -7.8,15.12 -9.62,23.42 -7.03,32 -6.97,50.61 -6.97,50.61 l -1.64,10.28 c 22.4,110.93 86.95,436.38 179.67,644.3 l 38.18,-78.58 16.57,-58.16 -101.75,-251.39 434.13,5.72 -64.72,249.39 78.63,260.05 v 0 c 85.1,-1.9 303.66,-5.07 340.4,11.35 45.79,20.46 282.78,319.2 282.78,319.2 h -0.01 c 16.01,12.75 32.29,26.47 44.3,38.44 0,0 14.12,11.43 5.44,20.35"
         style="fill:#f9ad95;fill-opacity:1;fill-rule:nonzero;stroke:none"
         id="path224" /><path
         d="m 1117.11,1870.05 c 12.57,42.99 77.28,255.57 77.28,255.57 0,0 31.77,-173.31 23.42,-194.18 -9.62,-24.06 -27.3,-51.58 -27.3,-51.58 -73.4,-111.78 -63.77,-167.65 -63.77,-167.65 l 443.41,13.52 c 1.08,62.02 -35.63,206.18 -43.3,229.15 -7.68,22.97 17.78,98.36 17.78,98.36 0,0 50.11,50.89 48.17,77.08 -3.91,52.76 -8.74,69.81 -8.74,69.81 l 269.81,-9.93 -8.48,183.06 -387.83,38.81 c -13.42,-38.19 -135.55,-19.48 -135.55,-19.48 -131.85,-4.33 -139.83,-28.58 -194.81,-71.15 -54.98,-42.57 -145.528,-408.19 -145.528,-408.19 l 135.438,-43.2"
         style="fill:#f03658;fill-opacity:1;fill-rule:nonzero;stroke:none"
         id="path226" /><path
         d="m 1379.34,1913.29 c -0.01,-0.69 -8.93,-1.28 -23.37,-1.18 -14.43,0.09 -34.37,0.99 -56.3,3.18 -21.93,2.22 -41.65,5.32 -55.81,8.1 -14.17,2.78 -22.8,5.13 -22.66,5.81 0.13,0.73 8.99,-0.34 23.25,-2.18 14.26,-1.84 33.94,-4.34 55.75,-6.54 21.79,-2.19 41.58,-3.66 55.92,-4.69 14.34,-1.03 23.23,-1.75 23.22,-2.5"
         style="fill:#1d2a30;fill-opacity:1;fill-rule:nonzero;stroke:none"
         id="path228" /><path
         d="m 1409.7,1951.01 c 0.18,-0.64 -8.96,-4.11 -24.21,-8.26 -15.24,-4.13 -36.65,-8.7 -60.61,-11.56 -23.98,-2.83 -45.86,-3.42 -61.65,-2.96 -15.79,0.45 -25.5,1.7 -25.46,2.36 0.03,0.77 9.77,0.84 25.45,1.32 15.68,0.49 37.3,1.65 61.04,4.46 23.73,2.83 45.02,6.78 60.38,9.97 15.36,3.19 24.84,5.41 25.06,4.67"
         style="fill:#1d2a30;fill-opacity:1;fill-rule:nonzero;stroke:none"
         id="path230" /><path
         d="m 1558.85,2119.21 c 0.69,-0.14 -0.45,-8.78 -3.03,-22.62 -2.58,-13.83 -6.64,-32.83 -11.75,-53.67 -5.11,-20.85 -10.31,-39.58 -14.42,-53.03 -4.11,-13.45 -7.1,-21.65 -7.78,-21.45 -0.7,0.19 1.03,8.73 4.22,22.41 3.78,15.61 8.13,33.53 12.92,53.31 4.91,19.75 9.34,37.64 13.21,53.23 3.5,13.61 5.91,21.98 6.63,21.82"
         style="fill:#1d2a30;fill-opacity:1;fill-rule:nonzero;stroke:none"
         id="path232" /><path
         d="m 1121.76,1895.52 c -0.37,-1.39 -30.96,5.74 -68.29,15.93 -37.36,10.19 -67.318,19.57 -66.939,20.96 0.379,1.39 30.959,-5.75 68.299,-15.93 37.34,-10.19 67.31,-19.57 66.93,-20.96"
         style="fill:#1d2a30;fill-opacity:1;fill-rule:nonzero;stroke:none"
         id="path234" /><path
         d="m 1588.94,2202.47 c 0,-0.24 -4.11,-0.67 -11.48,0.06 -7.33,0.76 -18.06,2.46 -30.49,7.28 -12.44,4.65 -26.58,12.44 -39.79,24.22 -13.22,11.73 -25.02,27.87 -32.55,46.87 -7.65,18.97 -10.16,38.75 -8.96,56.37 1.16,17.57 5.81,33.46 13.69,44.6 7.78,11.28 18.11,16.74 25.3,18.63 3.65,0.97 6.58,1.2 8.54,1.15 1.97,-0.06 2.99,-0.27 2.98,-0.43 0.03,-0.5 -4.14,-0.26 -10.91,-2.65 -6.64,-2.38 -15.98,-7.99 -22.86,-18.75 -13.61,-21.41 -17.41,-60.48 -2.94,-96.99 7.25,-18.26 18.4,-33.77 30.94,-45.25 12.53,-11.52 26.01,-19.4 37.93,-24.36 24.03,-9.97 40.78,-9.64 40.6,-10.75"
         style="fill:#1d2a30;fill-opacity:1;fill-rule:nonzero;stroke:none"
         id="path236" /><path
         d="m 1822.04,2193.85 c -1.44,0 -2.52,41.26 -2.42,92.15 0.1,50.91 1.35,92.15 2.78,92.15 1.44,0 2.53,-41.26 2.42,-92.16 -0.1,-50.89 -1.34,-92.15 -2.78,-92.14"
         style="fill:#1d2a30;fill-opacity:1;fill-rule:nonzero;stroke:none"
         id="path238" /><path
         d="m 1455.17,2400.92 c 1.09,22.32 3.43,47.53 3.43,47.53 0,0 55.18,6.09 58.53,63.09 3.35,57.01 0,188.46 0,188.46 l -100.5,51.18 -110.57,-87.24 16.76,-285.02 101.73,-6.47 c 16.03,-1.02 29.8,11.76 30.62,28.47"
         style="fill:#f9ad95;fill-opacity:1;fill-rule:nonzero;stroke:none"
         id="path240" /><path
         d="m 1465.12,2556.64 c 0.16,-0.05 0.16,-1.07 -0.88,-2.45 -1.02,-1.34 -3.24,-2.87 -6.34,-2.8 -6.41,0.31 -12.57,7.39 -14.85,16.03 -1.14,4.39 -1.13,8.84 -0.27,12.67 0.68,3.77 2.85,7.56 6,8.59 1.5,0.55 3.06,0.5 4.25,-0.1 1.16,-0.59 1.88,-1.48 2.25,-2.3 0.75,-1.69 0.17,-2.72 0.03,-2.64 -0.24,0.01 -0.17,0.95 -1.01,2.02 -0.78,1.09 -2.66,2.08 -4.74,1 -2.12,-0.96 -3.58,-3.67 -4.12,-7.15 -0.62,-3.44 -0.55,-7.39 0.47,-11.3 2,-7.74 7.37,-14.07 12.14,-14.65 2.37,-0.3 4.32,0.61 5.38,1.47 1.09,0.89 1.48,1.7 1.69,1.61"
         style="fill:#f6865e;fill-opacity:1;fill-rule:nonzero;stroke:none"
         id="path242" /><path
         d="m 1551.41,2730.77 c -7.69,26.25 -35.58,39.28 -61,46.48 -38.67,10.96 -80.56,15.81 -118.34,1.9 -37.78,-13.91 -83.22,-38.38 -83.21,-80.12 -22.29,1.84 -35.04,-17.71 -43.89,-41.91 -5.23,-14.3 -8.67,-30.22 -9.48,-46 l -0.37,0.13 c -2.86,-54.64 -18.08,-129.91 -53.5,-170.31 -19.56,-22.31 -47.73,-37.73 -59.12,-65.51 -9.91,-24.15 -4.79,-52.69 -14.16,-77.07 -8.26,-21.52 -26.58,-36.8 -39.7,-55.52 -28.6,-40.77 -30.54,-98.39 -9.53,-143.9 21.01,-45.51 62.63,-78.81 108.84,-94.07 46.22,-15.26 96.56,-13.58 143.59,-1.33 34.72,9.04 68.5,24 96.17,47.65 27.67,23.64 48.9,56.52 55.22,93.22 7.05,40.84 -4.39,82.32 -12.8,122.9 -26.6,128.35 -19,135.02 14.57,254.08 0.76,2.1 1.23,4.28 1.81,6.44 0.44,1.58 0.87,3.09 1.32,4.71 l -0.07,0.03 c 0.94,4.66 1.56,9.4 1.58,14.24 -9.73,-3.83 -21.47,-1.29 -28.92,6.25 -7.45,7.55 -10.23,19.7 -6.84,29.93 3.91,11.78 14.71,19.64 25.8,24.31 11.08,4.66 23.02,6.97 33.9,12.15 23.09,10.99 39.1,33.79 49.99,57.68 7.63,16.74 13.33,35.92 8.14,53.64"
         style="fill:#1d2a30;fill-opacity:1;fill-rule:nonzero;stroke:none"
         id="path244" /><path
         d="m 1469.06,2554.2 c 0.35,0.15 2.3,-3.57 5.27,-9.88 2.96,-6.32 6.95,-15.23 11.37,-25.47 l 0.84,-1.94 -2.12,-0.18 c -3.34,-0.28 -6.71,-0.57 -10.18,-0.87 -6.97,-0.46 -12.79,-1.29 -19.56,-1.22 -1.07,0.19 -2.25,1.17 -2.58,2.27 -0.36,1.08 -0.26,1.99 -0.15,2.78 0.29,1.57 0.63,2.73 0.94,4.06 l 1.77,7.08 c 2.21,8.64 3.79,13.93 4.21,13.84 0.42,-0.1 -0.4,-5.57 -2.06,-14.32 l -1.39,-7.16 c -0.51,-2.41 -1.39,-6.03 -0.09,-5.75 4.98,0.22 12.08,1.05 18.65,1.53 3.48,0.28 6.85,0.54 10.19,0.81 l -1.28,-2.12 c -4.29,10.29 -7.91,19.36 -10.39,25.88 -2.47,6.52 -3.78,10.51 -3.44,10.66"
         style="fill:#f03658;fill-opacity:1;fill-rule:nonzero;stroke:none"
         id="path246" /><path
         d="m 1126.74,1712.21 443.41,13.52 192.84,-753.39 -35.51,-864.18 h -234.69 l 29.08,845.789 -171.52,524.461 26.43,-1403.7616 -236.94,-3.5 -24.96,1319.4916 c -1.04,36.67 -13.12,119.41 -8.62,155.79 l 20.48,165.78"
         style="fill:#1d2a30;fill-opacity:1;fill-rule:nonzero;stroke:none"
         id="path248" /><path
         d="m 1409.4,1467.76 c -0.09,-0.7 -8.4,-0.29 -21.74,1.28 -13.34,1.58 -31.7,4.39 -51.8,8.42 -20.1,4.05 -38.11,8.56 -51.02,12.27 -12.91,3.71 -20.74,6.53 -20.56,7.21 0.4,1.45 32.59,-6.35 72.61,-14.37 39.99,-8.09 72.7,-13.33 72.51,-14.81"
         style="fill:#365462;fill-opacity:1;fill-rule:nonzero;stroke:none"
         id="path250" /><path
         d="m 1725.34,155.551 c 0,-1.449 -53.13,-2.61 -118.66,-2.61 -65.55,0 -118.67,1.161 -118.67,2.61 0,1.429 53.12,2.597 118.67,2.597 65.53,0 118.66,-1.168 118.66,-2.597"
         style="fill:#365462;fill-opacity:1;fill-rule:nonzero;stroke:none"
         id="path252" /><path
         d="m 1374.65,111.109 c 0,-1.437 -51.54,-2.597 -115.11,-2.597 -63.59,0 -115.13,1.16 -115.13,2.597 0,1.442 51.54,2.602 115.13,2.602 63.57,0 115.11,-1.16 115.11,-2.602"
         style="fill:#365462;fill-opacity:1;fill-rule:nonzero;stroke:none"
         id="path254" /><path
         d="m 1344.13,114.711 c -1.43,-0.02 -7.67,306.719 -13.92,685.027 -6.25,378.442 -10.14,685.162 -8.71,685.182 1.44,0.02 7.67,-306.65 13.92,-685.092 6.25,-378.316 10.15,-685.09 8.71,-685.117"
         style="fill:#365462;fill-opacity:1;fill-rule:nonzero;stroke:none"
         id="path256" /><path
         d="m 1693.82,155.551 c -0.08,0 -0.12,1.379 -0.1,4.078 0.05,2.953 0.12,6.91 0.22,11.98 0.31,10.813 0.75,26.27 1.33,46.051 1.4,40.25 3.4,98.02 5.88,169.301 5.47,143.18 13.02,340.519 21.35,558.5 0.08,2.008 0.17,4.019 0.24,5.879 l 0.08,-0.738 c -52.56,210.428 -100.06,400.618 -134.49,538.528 -16.9,68.69 -30.59,124.35 -40.13,163.13 -4.57,19.06 -8.15,33.97 -10.65,44.39 -1.11,4.89 -1.99,8.72 -2.64,11.57 -0.57,2.62 -0.81,3.97 -0.73,3.99 0.09,0.02 0.51,-1.29 1.24,-3.86 0.78,-2.81 1.82,-6.61 3.14,-11.44 2.73,-10.38 6.62,-25.2 11.6,-44.17 9.92,-38.67 24.15,-94.18 41.72,-162.72 34.83,-137.8 82.85,-327.87 135.99,-538.149 l 0.09,-0.371 -0.02,-0.379 c -0.07,-1.84 -0.15,-3.851 -0.23,-5.883 -8.93,-217.937 -17.02,-415.258 -22.89,-558.418 -3.16,-71.25 -5.73,-129 -7.53,-169.238 -0.99,-19.762 -1.77,-35.211 -2.31,-46.012 -0.31,-5.058 -0.55,-9.019 -0.73,-11.961 -0.19,-2.687 -0.34,-4.07 -0.43,-4.058"
         style="fill:#365462;fill-opacity:1;fill-rule:nonzero;stroke:none"
         id="path258" /><path
         d="m 1617.33,968.93 c 0.24,-1.418 -22.97,-6.59 -51.85,-11.551 -21.56,-3.707 -40.18,-6.25 -48.31,-6.707 l -0.02,2.039 c 2.7,-0.75 4.15,-1.32 4.1,-1.68 -0.06,-0.371 -1.62,-0.472 -4.41,-0.359 l -6.07,0.269 6.05,1.77 c 7.82,2.277 26.22,6.098 47.78,9.801 28.88,4.957 52.48,7.84 52.73,6.418"
         style="fill:#365462;fill-opacity:1;fill-rule:nonzero;stroke:none"
         id="path260" /><path
         d="m 1612.85,940.18 c -0.2,-1.45 -21.03,0.152 -46.68,2.129 -25.66,2.019 -46.49,3.66 -46.45,5.121 0.03,1.422 21.04,2.101 46.85,0.07 25.81,-1.988 46.47,-5.93 46.28,-7.32"
         style="fill:#365462;fill-opacity:1;fill-rule:nonzero;stroke:none"
         id="path262" /><path
         d="m 1124.78,1696.29 v 0 l 0.16,1.35 -0.16,-1.35 m 0.72,5.85 c 0.47,3.8 1.24,10.07 1.24,10.07 l -1.24,-10.07"
         style="fill:#c1c0be;fill-opacity:1;fill-rule:nonzero;stroke:none"
         id="path264" /><path
         d="m 1126.74,1712.21 c 72.56,4.07 147.15,5.41 221.74,6.76 l -221.74,-6.76"
         style="fill:#d82b43;fill-opacity:1;fill-rule:nonzero;stroke:none"
         id="path266" /><path
         d="m 1188.19,1671.52 c -6.58,0 -13.13,0.41 -19.64,1.48 -17.77,2.91 -33.05,8.2 -43.77,23.29 l 0.16,1.35 0.27,2.19 c 0.07,0.49 0.17,1.32 0.29,2.31 l 1.24,10.07 v 0 0 l 221.74,6.76 c 74.56,1.35 149.13,2.7 221.67,6.76 -112.1,-27.3 -233.37,-39.02 -347.83,-51.72 -11.33,-1.25 -22.76,-2.49 -34.13,-2.49"
         style="fill:#182124;fill-opacity:1;fill-rule:nonzero;stroke:none"
         id="path268" /><path
         d="m 1356.07,1174.45 v 0 l -0.66,35.46 v 0 l 0.66,-35.46"
         style="fill:#cecdcc;fill-opacity:1;fill-rule:nonzero;stroke:none"
         id="path270" /><path
         d="m 1355.41,1209.91 v 0 l -4.99,264.78 v 0 l 4.99,-264.78"
         style="fill:#c1c0be;fill-opacity:1;fill-rule:nonzero;stroke:none"
         id="path272" /><path
         d="m 1356.07,1174.45 -29.51,114.56 c -2.11,103.87 -3.8,173.59 -4.68,191.41 4.51,-1 9.19,-1.99 13.98,-2.96 4.98,-1 9.85,-1.92 14.56,-2.77 l 4.99,-264.78 0.66,-35.45 m -33.34,129.43 -48.4,187.89 8.73,-1.54 c 0.58,-0.17 1.17,-0.34 1.78,-0.51 9.69,-2.79 22.27,-6.02 36.44,-9.18 -0.29,-16.75 0.26,-80.79 1.45,-176.66"
         style="fill:#182124;fill-opacity:1;fill-rule:nonzero;stroke:none"
         id="path274" /><path
         d="m 1350.42,1474.69 v 0 c -4.71,0.85 -9.58,1.77 -14.56,2.77 -4.79,0.97 -9.47,1.96 -13.98,2.96 -0.06,1.28 -0.12,2.29 -0.18,3.03 l 28.65,-5.04 0.07,-3.72 m -29.14,5.86 c -14.17,3.16 -26.75,6.39 -36.44,9.18 -0.61,0.17 -1.2,0.34 -1.78,0.51 l 38.3,-6.73 c -0.03,-0.72 -0.06,-1.7 -0.08,-2.96"
         style="fill:#2a414c;fill-opacity:1;fill-rule:nonzero;stroke:none"
         id="path276" /><path
         d="m 1326.56,1289.01 -3.83,14.88 c -1.19,95.87 -1.74,159.91 -1.45,176.66 0.02,1.26 0.05,2.24 0.08,2.96 l 0.34,-0.06 c 0.06,-0.74 0.12,-1.75 0.18,-3.03 0.88,-17.82 2.57,-87.54 4.68,-191.41"
         style="fill:#2a414c;fill-opacity:1;fill-rule:nonzero;stroke:none"
         id="path278" /></g></g></svg>
