<?xml version="1.0" encoding="UTF-8" standalone="no"?>
<svg
   xmlns:dc="http://purl.org/dc/elements/1.1/"
   xmlns:cc="http://creativecommons.org/ns#"
   xmlns:rdf="http://www.w3.org/1999/02/22-rdf-syntax-ns#"
   xmlns:svg="http://www.w3.org/2000/svg"
   xmlns="http://www.w3.org/2000/svg"
   xmlns:sodipodi="http://sodipodi.sourceforge.net/DTD/sodipodi-0.dtd"
   xmlns:inkscape="http://www.inkscape.org/namespaces/inkscape"
   version="1.1"
   id="svg2"
   xml:space="preserve"
   width="470.51999"
   height="437"
   viewBox="0 0 470.51999 437"
   sodipodi:docname="Mobile-login.eps"><metadata
     id="metadata8"><rdf:RDF><cc:Work
         rdf:about=""><dc:format>image/svg+xml</dc:format><dc:type
           rdf:resource="http://purl.org/dc/dcmitype/StillImage" /></cc:Work></rdf:RDF></metadata><defs
     id="defs6" /><sodipodi:namedview
     pagecolor="#ffffff"
     bordercolor="#666666"
     borderopacity="1"
     objecttolerance="10"
     gridtolerance="10"
     guidetolerance="10"
     inkscape:pageopacity="0"
     inkscape:pageshadow="2"
     inkscape:window-width="640"
     inkscape:window-height="480"
     id="namedview4" /><g
     id="g10"
     inkscape:groupmode="layer"
     inkscape:label="ink_ext_XXXXXX"
     transform="matrix(1.3333333,0,0,-1.3333333,0,437)"><g
       id="g12"
       transform="scale(0.1)"><path
         d="M 516.801,246.32 C 1205.86,-82.1016 2323.06,-82.1094 3012.11,246.309 c 689.06,328.429 689.06,860.901 0,1189.311 -689.06,328.43 -1806.26,328.43 -2495.317,0.01 -689.059,-328.41 -689.059,-860.892 0.008,-1189.31"
         style="fill:#f2f3f1;fill-opacity:1;fill-rule:nonzero;stroke:none"
         id="path14" /><path
         d="m 2847.28,521.09 c 89.73,-42.77 235.22,-42.77 324.96,0 89.73,42.769 89.73,112.109 0,154.89 -89.74,42.758 -235.23,42.758 -324.96,0 -89.74,-42.781 -89.74,-112.121 0,-154.89"
         style="fill:#e7e7e5;fill-opacity:1;fill-rule:nonzero;stroke:none"
         id="path16" /><path
         d="m 463.992,582.82 81.242,46.91 c 0,0 67.024,49.25 100.211,140.711 25.114,69.2 21.649,121.848 3.641,148.231 -22.152,32.469 -79.461,26.797 -81.738,-41.66 C 562.867,742.211 523.535,648.949 463.992,582.82"
         style="fill:#27b6a1;fill-opacity:1;fill-rule:nonzero;stroke:none"
         id="path18" /><path
         d="m 463.992,582.82 c 59.543,66.129 98.875,159.391 103.356,294.192 1.414,42.5 24.035,60.797 46.293,60.797 13.589,0 27.047,-6.829 35.445,-19.137 8.969,-13.141 14.332,-32.801 14.352,-57.774 0.019,-25.16 -5.387,-55.726 -17.993,-90.457 C 612.258,678.98 545.234,629.73 545.234,629.73 l -81.242,-46.91"
         style="fill:#13af96;fill-opacity:1;fill-rule:nonzero;stroke:none"
         id="path20" /><path
         d="m 464,577.82 c -1.59,0 -3.145,0.75 -4.117,2.16 -1.57,2.27 -1.004,5.379 1.265,6.95 187.969,130.07 151.555,311.281 151.168,313.101 -0.582,2.688 1.137,5.36 3.832,5.938 2.719,0.601 5.36,-1.137 5.942,-3.828 0.406,-1.879 38.394,-189.43 -155.25,-323.43 -0.867,-0.602 -1.86,-0.891 -2.84,-0.891"
         style="fill:#ffffff;fill-opacity:1;fill-rule:nonzero;stroke:none"
         id="path22" /><path
         d="m 301.516,489.012 c 0,0 -28.282,23.027 -21.442,54.199 6.844,31.18 25.086,53.598 -6.269,93.809 -31.36,40.23 -39.465,93.808 -2.582,122.871 28.507,22.468 72.996,-9.371 89.066,50.16 11.719,43.398 7.719,139.488 63.086,171.461 55.359,31.968 89.738,-16.16 81.234,-81.332 -7.601,-58.309 -18.308,-114.461 -10.054,-129.739 16.152,-29.882 43.914,-25.871 42.648,-80.652 -1.176,-51.008 -49.406,-93.23 -49.406,-93.23 L 301.516,489.012"
         style="fill:#27b6a1;fill-opacity:1;fill-rule:nonzero;stroke:none"
         id="path24" /><path
         d="m 394.434,537.672 c -2.496,0 -4.653,1.859 -4.961,4.398 -14.313,118.489 19.797,323.071 48.004,383.879 1.156,2.512 4.109,3.621 6.64,2.43 2.504,-1.16 3.594,-4.129 2.43,-6.629 -27.715,-59.762 -60.828,-265.23 -47.145,-378.488 0.328,-2.731 -1.625,-5.223 -4.363,-5.551 l -0.605,-0.039"
         style="fill:#ffffff;fill-opacity:1;fill-rule:nonzero;stroke:none"
         id="path26" /><path
         d="m 391.73,629.91 -2.195,0.512 c -34.695,16.957 -56.687,77.219 -57.609,79.777 -0.934,2.59 0.414,5.449 3.012,6.391 2.601,0.93 5.457,-0.41 6.402,-3.02 0.207,-0.578 21.535,-58.98 52.59,-74.172 2.48,-1.207 3.508,-4.199 2.297,-6.687 -0.872,-1.77 -2.649,-2.801 -4.497,-2.801"
         style="fill:#ffffff;fill-opacity:1;fill-rule:nonzero;stroke:none"
         id="path28" /><path
         d="m 391.16,589.98 c -1.98,0 -3.855,1.192 -4.64,3.141 -1.028,2.559 0.218,5.469 2.781,6.5 58.39,23.399 94.793,92.981 95.152,93.68 1.27,2.449 4.281,3.429 6.735,2.148 2.457,-1.258 3.417,-4.277 2.152,-6.738 -1.543,-2.992 -38.5,-73.602 -100.317,-98.371 l -1.863,-0.36"
         style="fill:#ffffff;fill-opacity:1;fill-rule:nonzero;stroke:none"
         id="path30" /><path
         d="m 2432.47,1127.92 c 0,0 -43.73,70.72 -47.95,147.71 -4.22,77 12.68,108.95 35.86,118.13 23.18,9.17 24.94,-19.08 36.92,-35.83 11.98,-16.75 36.2,-7.16 45.14,44.91 8.95,52.06 41.78,140.3 109.69,157.14 75.01,18.58 34.77,-69.4 15.95,-103.73 -18.84,-34.33 -33.52,-81.08 -21.1,-93.81 12.41,-12.73 31.66,10.79 50.13,-11.01 22.29,-26.32 -47,-120.95 -86.77,-143.91 l -137.87,-79.6"
         style="fill:#27b6a1;fill-opacity:1;fill-rule:nonzero;stroke:none"
         id="path32" /><path
         d="m 2492.37,1157.7 -0.26,0.01 c -2.76,0.14 -4.87,2.5 -4.73,5.25 11.01,204.76 110.94,346.58 111.96,347.99 1.61,2.25 4.73,2.76 6.97,1.15 2.24,-1.6 2.76,-4.73 1.15,-6.97 -0.99,-1.39 -99.25,-140.98 -110.1,-342.7 -0.13,-2.66 -2.34,-4.73 -4.99,-4.73"
         style="fill:#ffffff;fill-opacity:1;fill-rule:nonzero;stroke:none"
         id="path34" /><path
         d="m 2498.09,1216.73 -2.43,0.62 c -28,15.5 -43.51,61.49 -44.16,63.44 -0.86,2.62 0.55,5.45 3.18,6.32 2.61,0.9 5.46,-0.56 6.32,-3.17 0.14,-0.44 14.93,-44.24 39.51,-57.84 2.41,-1.33 3.29,-4.37 1.95,-6.79 -0.91,-1.65 -2.62,-2.58 -4.37,-2.58"
         style="fill:#ffffff;fill-opacity:1;fill-rule:nonzero;stroke:none"
         id="path36" /><path
         d="m 2502.99,1247.04 c -2.24,0 -4.28,1.5 -4.85,3.77 -0.68,2.69 0.94,5.4 3.62,6.07 72.18,18.26 97.18,56.09 97.42,56.46 1.49,2.32 4.59,2.99 6.9,1.52 2.33,-1.48 3.02,-4.56 1.54,-6.88 -1.07,-1.69 -27.04,-41.48 -103.4,-60.78 l -1.23,-0.16"
         style="fill:#ffffff;fill-opacity:1;fill-rule:nonzero;stroke:none"
         id="path38" /><path
         d="m 1344.67,1283.4 c 0,0 -95.89,23.38 -100.88,202.93 -5.39,193.81 23.5,419.91 -89.6,438.29 -113.09,18.4 -176.549,-120.28 -175.096,-281.42 1.273,-141.49 58.246,-448.49 365.566,-508.66 l 0.01,148.86"
         style="fill:#27b6a1;fill-opacity:1;fill-rule:nonzero;stroke:none"
         id="path40" /><path
         d="m 1344.66,1134.54 c -307.32,60.17 -364.293,367.17 -365.566,508.66 -0.02,1.77 -0.028,3.55 -0.028,5.32 -0.023,149.22 55.814,277.75 155.284,277.75 6.43,0 13.05,-0.54 19.84,-1.65 81.45,-13.24 89.26,-134.22 89.27,-273.29 0,-33 -0.44,-67.01 -0.44,-100.85 0,-21.56 0.18,-43.05 0.77,-64.15 4.99,-179.55 100.88,-202.93 100.88,-202.93 l -0.01,-148.86"
         style="fill:#13af96;fill-opacity:1;fill-rule:nonzero;stroke:none"
         id="path42" /><path
         d="m 1344.67,1153 -0.9,0.08 c -69.16,12.59 -125.43,50.63 -167.29,113.06 -124.24,185.34 -85.09,531.3 -72.24,591.74 0.57,2.7 3.22,4.41 5.93,3.85 2.7,-0.58 4.42,-3.23 3.85,-5.93 -12.71,-59.76 -51.52,-401.65 70.77,-584.09 40.29,-60.1 94.38,-96.7 160.77,-108.79 2.72,-0.5 4.52,-3.11 4.02,-5.82 -0.44,-2.41 -2.54,-4.1 -4.91,-4.1"
         style="fill:#ffffff;fill-opacity:1;fill-rule:nonzero;stroke:none"
         id="path44" /><path
         d="m 1344.68,692.051 c -99.15,-13.442 -260.19,-13.199 -352.95,59.961 -92.765,73.168 -73.468,136.218 -37.785,162.519 35.684,26.309 66.675,56.367 5.289,114.739 -61.386,58.37 -160.058,152.17 -191.964,292.89 -31.911,140.71 -16.196,228.65 46.593,257.98 60.934,28.44 76.977,-16.75 114.274,-109.96 37.289,-93.23 121.223,-13.31 192.973,-42.41 71.76,-29.09 68.94,-86.7 73.47,-136.22 4.52,-49.51 28.22,-63.2 68.84,-63.2 40.63,0 81.23,-23.45 81.24,-70.35 l 0.02,-465.949"
         style="fill:#27b6a1;fill-opacity:1;fill-rule:nonzero;stroke:none"
         id="path46" /><path
         d="m 1344.68,855.422 -1.35,0.187 c -4.29,1.2 -106.83,31.039 -256.06,168.131 -158.977,146.04 -234.043,364.99 -234.782,367.18 -0.883,2.62 0.524,5.46 3.141,6.34 2.625,0.86 5.457,-0.53 6.336,-3.14 0.73,-2.18 75.027,-218.76 232.065,-363.02 147.24,-135.248 250.97,-165.569 252,-165.87 2.66,-0.75 4.2,-3.5 3.46,-6.171 -0.62,-2.188 -2.62,-3.637 -4.81,-3.637"
         style="fill:#ffffff;fill-opacity:1;fill-rule:nonzero;stroke:none"
         id="path48" /><path
         d="m 1128.79,988.832 c -2,0 -3.89,1.207 -4.66,3.18 -32.09,82.468 -39.36,258.758 -39.65,266.218 -0.11,2.76 2.04,5.08 4.8,5.2 2.56,-0.03 5.08,-2.04 5.19,-4.81 0.07,-1.8 7.5,-182.08 38.98,-262.979 1,-2.571 -0.28,-5.469 -2.85,-6.469 l -1.81,-0.34"
         style="fill:#ffffff;fill-opacity:1;fill-rule:nonzero;stroke:none"
         id="path50" /><path
         d="m 1127.95,870.219 c -15.54,0 -26.29,1.23 -27.59,1.383 -2.74,0.32 -4.7,2.808 -4.37,5.558 0.32,2.731 2.79,4.762 5.55,4.36 0.93,-0.079 93.97,-10.598 136.71,32.968 1.92,1.992 5.1,1.992 7.07,0.082 1.97,-1.929 2,-5.109 0.07,-7.07 -31.28,-31.891 -84.86,-37.281 -117.44,-37.281"
         style="fill:#ffffff;fill-opacity:1;fill-rule:nonzero;stroke:none"
         id="path52" /><path
         d="m 874.609,2558.31 c -45.543,-35.8 -59.414,-43.61 -67.652,4.22 -8.234,47.83 18.402,120.77 63.945,156.57 45.543,35.81 63.02,38.48 71.254,-9.35 8.239,-47.83 -22.004,-115.63 -67.547,-151.44 z m 181.331,205.5 -10.74,62.35 -55.634,-36.61 c -5.574,10.66 -12.734,19.22 -21.152,25.68 l 26.621,72.01 -49.566,11.08 -36.621,-69.77 c -12.133,-1.87 -24.942,-5.96 -38.145,-12.42 l -15.848,52.59 -59.363,-46.67 3.887,-62 c -12.016,-13.36 -23.012,-27.98 -32.82,-43.37 l -49.047,2.42 -34.387,-77.08 42.117,-17.97 c -4.445,-16.58 -7.308,-33.03 -8.316,-48.85 l -53.469,-49.17 10.738,-62.35 55.629,36.61 c 5.571,-10.66 12.735,-19.22 21.156,-25.68 l -26.625,-72.01 49.571,-11.08 52.383,51.07 c 12.136,1.86 9.179,24.66 22.382,31.12 l 15.844,-52.59 59.367,46.67 -1.531,24.38 c 12.016,13.37 57.387,42.87 67.195,58.24 l 12.314,20.33 34.38,77.08 -16.02,29.03 -17.77,37.79 53.47,49.17"
         style="fill:#dadad8;fill-opacity:1;fill-rule:nonzero;stroke:none"
         id="path54" /><path
         d="m 945.469,2898.32 64.851,-37.39 -36.621,-69.78 -64.851,37.4 36.621,69.77"
         style="fill:#f2f3f1;fill-opacity:1;fill-rule:nonzero;stroke:none"
         id="path56" /><path
         d="m 1110.05,2788.76 -55.63,-36.61 -64.854,37.4 55.634,36.61 64.85,-37.4"
         style="fill:#f2f3f1;fill-opacity:1;fill-rule:nonzero;stroke:none"
         id="path58" /><path
         d="m 1101.12,2610.43 -42.12,17.96 -64.848,37.4 42.108,-17.97 64.86,-37.39"
         style="fill:#dadad8;fill-opacity:1;fill-rule:nonzero;stroke:none"
         id="path60" /><path
         d="m 724.355,2402.6 64.856,-37.4 26.617,72.01 -64.848,37.4 -26.625,-72.01"
         style="fill:#dadad8;fill-opacity:1;fill-rule:nonzero;stroke:none"
         id="path62" /><path
         d="m 929.391,2383.72 -64.856,37.4 -15.844,52.59 64.848,-37.4 15.852,-52.59"
         style="fill:#dadad8;fill-opacity:1;fill-rule:nonzero;stroke:none"
         id="path64" /><path
         d="m 939.465,2520.91 c -45.543,-35.8 -89.145,-26.05 -97.379,21.78 -8.238,47.83 22.008,115.63 67.547,151.44 45.543,35.8 89.137,26.06 97.377,-21.77 8.23,-47.84 -22.006,-115.64 -67.545,-151.45 z m 181.325,205.5 -10.74,62.35 -55.63,-36.61 c -5.57,10.66 -12.74,19.22 -21.16,25.68 l 26.63,72.01 -49.57,11.09 -36.621,-69.78 c -12.133,-1.87 -24.945,-5.96 -38.148,-12.42 l -15.844,52.59 -59.363,-46.67 3.886,-61.99 c -12.011,-13.37 -23.007,-27.99 -32.82,-43.38 l -49.047,2.42 -34.383,-77.08 42.114,-17.96 c -4.449,-16.59 -7.305,-33.03 -8.317,-48.86 l -53.472,-49.17 10.738,-62.34 55.637,36.6 c 5.57,-10.66 12.73,-19.22 21.148,-25.68 l -26.617,-72.01 49.562,-11.08 36.622,69.77 c 12.132,1.87 24.941,5.97 38.144,12.42 l 15.852,-52.59 59.359,46.67 -3.887,62 c 12.016,13.36 23.017,27.99 32.827,43.37 l 49.04,-2.42 34.39,77.09 -42.12,17.96 c 4.45,16.58 7.31,33.03 8.31,48.85 l 53.48,49.17"
         style="fill:#e7e7e5;fill-opacity:1;fill-rule:nonzero;stroke:none"
         id="path66" /><path
         d="m 919.707,2831.32 -64.852,37.4 -59.363,-46.67 64.852,-37.4 59.363,46.67"
         style="fill:#f2f3f1;fill-opacity:1;fill-rule:nonzero;stroke:none"
         id="path68" /><path
         d="m 795.492,2822.05 3.887,-62 64.851,-37.39 -3.886,61.99 -64.852,37.4"
         style="fill:#dadad8;fill-opacity:1;fill-rule:nonzero;stroke:none"
         id="path70" /><path
         d="m 831.41,2679.28 -64.851,37.4 -49.047,2.42 64.851,-37.4 49.047,-2.42"
         style="fill:#f2f3f1;fill-opacity:1;fill-rule:nonzero;stroke:none"
         id="path72" /><path
         d="m 717.512,2719.1 -34.387,-77.08 64.855,-37.4 34.383,77.08 -64.851,37.4"
         style="fill:#dadad8;fill-opacity:1;fill-rule:nonzero;stroke:none"
         id="path74" /><path
         d="m 781.777,2537.8 -64.851,37.4 -53.469,-49.17 64.848,-37.4 53.472,49.17"
         style="fill:#f2f3f1;fill-opacity:1;fill-rule:nonzero;stroke:none"
         id="path76" /><path
         d="m 739.043,2426.29 -64.848,37.39 -10.738,62.35 64.848,-37.4 10.738,-62.34"
         style="fill:#dadad8;fill-opacity:1;fill-rule:nonzero;stroke:none"
         id="path78" /><path
         d="m 1010.32,2860.93 -64.851,37.39 49.566,-11.08 64.855,-37.4 -49.57,11.09"
         style="fill:#f2f3f1;fill-opacity:1;fill-rule:nonzero;stroke:none"
         id="path80" /><path
         d="m 506.074,2814.1 c -61.871,-35.72 -100.328,-10.39 -100.328,61.06 0,71.44 51.129,158.96 113.004,194.68 61.871,35.72 99.352,9.73 99.352,-61.7 0,-71.45 -50.157,-158.32 -112.028,-194.04 z m 259.309,232.5 v 93.13 l -74.113,-33.41 c -4.469,17.2 -11.274,31.94 -20.02,44.11 l 46.695,94.14 -57.027,32.93 -58.188,-87.52 c -14.91,1.5 -31.078,0.02 -48.207,-4.71 l -8.125,80.89 -80.644,-46.57 -8.125,-90.27 c -17.133,-15.04 -33.305,-32.24 -48.211,-50.94 l -58.188,20.32 -57.027,-98.77 46.695,-40.23 c -8.742,-22.26 -15.55,-44.87 -20.019,-67.23 L 246.77,2840.3 v -93.12 l 74.109,33.41 c 4.469,-17.2 11.277,-31.94 20.019,-44.11 l -46.695,-94.14 57.027,-32.93 58.188,87.52 c 14.906,-1.5 31.078,-0.02 48.211,4.71 l 8.125,-80.89 80.644,46.56 8.125,90.27 c 24.032,8.02 49.747,26.62 64.653,45.33 l 41.742,-14.7 57.027,98.77 -34.992,30.15 c 8.742,22.26 9.676,57.85 8.317,77.3 l 74.113,52.17"
         style="fill:#dadad8;fill-opacity:1;fill-rule:nonzero;stroke:none"
         id="path82" /><path
         d="m 725.773,3240.1 -64.855,37.4 -58.188,-87.52 64.848,-37.39 58.195,87.51"
         style="fill:#f2f3f1;fill-opacity:1;fill-rule:nonzero;stroke:none"
         id="path84" /><path
         d="m 830.234,3102.33 -64.851,37.4 -74.113,-33.41 64.851,-37.4 74.113,33.41"
         style="fill:#f2f3f1;fill-opacity:1;fill-rule:nonzero;stroke:none"
         id="path86" /><path
         d="m 530.605,2583.36 -64.851,37.39 -8.125,80.89 64.851,-37.4 8.125,-80.88"
         style="fill:#dadad8;fill-opacity:1;fill-rule:nonzero;stroke:none"
         id="path88" /><path
         d="m 294.203,2642.34 64.852,-37.41 46.691,94.15 -64.848,37.4 -46.695,-94.14"
         style="fill:#dadad8;fill-opacity:1;fill-rule:nonzero;stroke:none"
         id="path90" /><path
         d="m 570.93,2776.7 c -61.871,-35.72 -112.032,-6.76 -112.032,64.68 0,71.44 50.161,158.31 112.032,194.03 61.867,35.72 112.023,6.77 112.023,-64.67 0,-71.45 -50.156,-158.32 -112.023,-194.04 z m 259.304,232.5 v 93.13 l -74.113,-33.41 c -4.465,17.2 -11.277,31.94 -20.016,44.11 l 46.692,94.15 -57.024,32.92 -58.195,-87.51 c -14.902,1.49 -31.074,0.01 -48.203,-4.72 l -8.125,80.88 -80.645,-46.55 -8.125,-90.27 c -17.128,-15.05 -33.3,-32.25 -48.207,-50.95 l -58.195,20.32 -57.023,-98.77 46.691,-40.23 c -8.738,-22.26 -15.547,-44.87 -20.012,-67.23 l -74.113,-52.16 v -93.12 l 74.113,33.4 c 4.465,-17.19 11.274,-31.94 20.012,-44.11 l -46.691,-94.15 57.023,-32.92 58.195,87.51 c 14.907,-1.48 31.079,-0.01 48.207,4.72 l 8.125,-80.88 80.645,46.56 8.125,90.27 c 17.129,15.04 33.301,32.24 48.203,50.94 l 58.195,-20.32 57.024,98.77 -46.692,40.23 c 8.739,22.26 15.551,44.87 20.016,67.23 l 74.113,52.16"
         style="fill:#e7e7e5;fill-opacity:1;fill-rule:nonzero;stroke:none"
         id="path92" /><path
         d="m 409.418,3078.38 64.855,-37.4 -58.195,20.32 -64.848,37.4 58.188,-20.32"
         style="fill:#ecedeb;fill-opacity:1;fill-rule:nonzero;stroke:none"
         id="path94" /><path
         d="m 359.055,2962.53 -64.852,37.4 57.027,98.77 64.848,-37.4 -57.023,-98.77"
         style="fill:#f2f3f1;fill-opacity:1;fill-rule:nonzero;stroke:none"
         id="path96" /><path
         d="m 294.203,2999.93 64.852,-37.4 46.691,-40.23 -64.848,37.4 -46.695,40.23"
         style="fill:#dadad8;fill-opacity:1;fill-rule:nonzero;stroke:none"
         id="path98" /><path
         d="m 320.879,2892.47 64.855,-37.4 -74.113,-52.16 -64.851,37.39 74.109,52.17"
         style="fill:#f2f3f1;fill-opacity:1;fill-rule:nonzero;stroke:none"
         id="path100" /><path
         d="m 246.77,2840.3 64.851,-37.39 v -93.12 l -64.851,37.39 v 93.12"
         style="fill:#dadad8;fill-opacity:1;fill-rule:nonzero;stroke:none"
         id="path102" /><path
         d="m 611.25,3228.75 -64.852,37.41 -80.644,-46.57 64.851,-37.39 80.645,46.55"
         style="fill:#f2f3f1;fill-opacity:1;fill-rule:nonzero;stroke:none"
         id="path104" /><path
         d="m 1443.24,558.23 940.25,542.85 c 9.56,5.53 9.57,14.49 0.01,20.02 l -86.99,50.33 c -9.56,5.53 -25.06,5.54 -34.63,0.02 l -940.5,-542.86 c -9.57,-5.52 -9.57,-14.481 0,-20 l 87.21,-50.36 c 9.57,-5.519 25.08,-5.519 34.65,0"
         style="fill:#dadad8;fill-opacity:1;fill-rule:nonzero;stroke:none"
         id="path106" /><path
         d="m 2357.49,3196.79 -847.67,-489.4 c -23.91,-13.81 -43.3,-47.39 -43.3,-75 V 621.691 c 0,-27.621 19.39,-38.812 43.3,-25 l 847.68,489.389 c 23.92,13.81 43.3,47.4 43.3,75 l -0.01,2010.71 c 0,27.61 -19.38,38.81 -43.3,25"
         style="fill:#32515c;fill-opacity:1;fill-rule:nonzero;stroke:none"
         id="path108" /><path
         d="m 1509.82,2707.39 847.67,489.4 c 21.39,12.34 39.1,4.66 42.63,-16.84 -3.25,25.77 -21.02,54.36 -42.63,66.84 l -35.25,20.35 c -23.92,13.81 -62.7,13.81 -86.61,0 l -847.67,-489.4 c -11.95,-6.9 -22.78,-18.74 -30.62,-32.32 l 121.87,-70.35 c 7.83,13.57 18.66,25.41 30.61,32.32"
         style="fill:#263d46;fill-opacity:1;fill-rule:nonzero;stroke:none"
         id="path110" /><path
         d="m 1344.68,692.051 c 0,-27.621 19.38,-61.199 43.3,-75 l 35.26,-20.36 c 21.62,-12.48 55.29,-13.57 79.24,-3.48 -20.41,-7.742 -35.96,3.758 -35.96,28.48 V 2632.39 c 0,13.81 4.85,29.11 12.69,42.68 l -121.87,70.35 c -7.83,-13.57 -12.68,-28.87 -12.68,-42.67 l 0.02,-2010.699"
         style="fill:#17272e;fill-opacity:1;fill-rule:nonzero;stroke:none"
         id="path112" /><path
         d="m 1533.13,2439.41 801.06,462.5 c 14.36,8.29 25.99,1.57 25.99,-15 l 0.01,-1487.85 c 0,-16.57 -11.64,-36.72 -25.99,-45 L 1533.14,891.559 c -14.35,-8.278 -25.99,-1.559 -25.99,15 V 2394.41 c 0,16.57 11.63,36.72 25.98,45"
         style="fill:#ffffff;fill-opacity:1;fill-rule:nonzero;stroke:none"
         id="path114" /><path
         d="m 1933.66,2875.81 c -8.41,-4.86 -15.23,-16.67 -15.23,-26.38 0,-9.72 6.82,-13.65 15.23,-8.79 8.42,4.85 15.24,16.66 15.24,26.38 0,9.71 -6.82,13.65 -15.24,8.79"
         style="fill:#263d46;fill-opacity:1;fill-rule:nonzero;stroke:none"
         id="path116" /><path
         d="m 1933.68,1051.37 c -33.22,-19.18 -60.14,-65.819 -60.14,-104.179 0,-38.351 26.92,-53.902 60.14,-34.722 33.21,19.172 60.14,65.812 60.14,104.171 0,38.35 -26.93,53.9 -60.14,34.73"
         style="fill:#263d46;fill-opacity:1;fill-rule:nonzero;stroke:none"
         id="path118" /><path
         d="m 1789.79,2721.04 c -16.83,-9.72 -30.46,-33.34 -30.46,-52.77 0,-19.43 13.63,-27.3 30.47,-17.59 16.82,9.71 30.45,33.34 30.45,52.77 0,19.43 -13.64,27.3 -30.46,17.59"
         style="fill:#263d46;fill-opacity:1;fill-rule:nonzero;stroke:none"
         id="path120" /><path
         d="m 1864.28,2727.63 c 0,-12.95 9.69,-17.86 21.65,-10.95 l 200.43,115.71 c 11.95,6.9 21.65,23 21.65,35.95 -0.01,12.95 -9.7,17.86 -21.66,10.95 l -200.42,-115.71 c -11.96,-6.9 -21.65,-23 -21.65,-35.95"
         style="fill:#263d46;fill-opacity:1;fill-rule:nonzero;stroke:none"
         id="path122" /><path
         d="m 1412.09,2375.03 c 13.45,-7.77 24.37,-26.67 24.37,-42.22 0,-15.54 -10.92,-21.84 -24.37,-14.06 -13.47,7.77 -24.38,26.66 -24.38,42.21 0,15.54 10.91,21.84 24.38,14.07"
         style="fill:#263d46;fill-opacity:1;fill-rule:nonzero;stroke:none"
         id="path124" /><path
         d="m 1412.09,2187.27 c 13.45,-7.78 24.37,-26.68 24.37,-42.22 0,-15.54 -10.92,-21.84 -24.37,-14.07 -13.47,7.77 -24.38,26.67 -24.38,42.21 0,15.55 10.91,21.84 24.38,14.08"
         style="fill:#263d46;fill-opacity:1;fill-rule:nonzero;stroke:none"
         id="path126" /><path
         d="m 1404.56,2371.27 c 13.46,-7.77 24.37,-26.68 24.37,-42.22 0,-15.54 -10.91,-21.84 -24.37,-14.07 -13.47,7.77 -24.37,26.67 -24.37,42.21 0,15.55 10.91,21.85 24.37,14.08"
         style="fill:#32515c;fill-opacity:1;fill-rule:nonzero;stroke:none"
         id="path128" /><path
         d="m 1404.56,2183.5 c 13.46,-7.77 24.37,-26.67 24.37,-42.22 0,-15.54 -10.91,-21.84 -24.37,-14.07 -13.47,7.78 -24.37,26.68 -24.37,42.22 0,15.54 10.91,21.84 24.37,14.07"
         style="fill:#32515c;fill-opacity:1;fill-rule:nonzero;stroke:none"
         id="path130" /><path
         d="m 2522.67,2839.86 c 0,16.57 -11.63,23.28 -25.99,15 l -95.88,-55.35 -705.18,-407.14 c -14.35,-8.29 -25.98,-28.43 -25.98,-45 l 0.01,-1487.85 c 0,-16.571 11.63,-23.282 25.98,-15 l 705.42,407.29 95.64,55.2 c 14.35,8.29 25.99,28.44 25.99,45 l -0.01,1487.85"
         style="fill:#ffffff;fill-opacity:1;fill-rule:nonzero;stroke:none"
         id="path132" /><path
         d="m 2522.67,2839.86 h 5 c -0.01,6.69 -1.66,12.48 -5.09,16.8 -3.4,4.34 -8.7,6.8 -14.29,6.75 -4.59,0 -9.35,-1.48 -14.11,-4.21 l -95.88,-55.36 -705.18,-407.14 c -8.18,-4.75 -15.12,-12.46 -20.2,-21.23 -5.05,-8.78 -8.26,-18.65 -8.28,-28.1 l 0.01,-1487.85 c 0,-6.68 1.65,-12.481 5.08,-16.801 3.4,-4.34 8.71,-6.797 14.29,-6.75 4.59,0.011 9.35,1.48 14.1,4.222 l 705.43,407.289 95.64,55.2 c 8.17,4.75 15.12,12.46 20.2,21.23 5.06,8.78 8.26,18.65 8.29,28.1 l -0.01,1487.85 h -5 -5 l 0.01,-1487.85 c 0.02,-7.11 -2.59,-15.6 -6.95,-23.1 -4.32,-7.52 -10.37,-14.03 -16.54,-17.57 l -95.64,-55.2 -705.42,-407.288 c -3.59,-2.071 -6.71,-2.883 -9.11,-2.883 -2.93,0.062 -4.82,0.992 -6.47,2.992 -1.63,2.008 -2.9,5.488 -2.9,10.559 l -0.01,1487.85 c -0.02,7.11 2.59,15.6 6.94,23.1 4.32,7.52 10.37,14.03 16.54,17.57 l 705.18,407.14 95.88,55.35 c 3.59,2.08 6.71,2.89 9.11,2.88 2.93,-0.05 4.82,-0.99 6.48,-2.98 1.62,-2.02 2.9,-5.5 2.9,-10.57 h 5"
         style="fill:#27b6a1;fill-opacity:1;fill-rule:nonzero;stroke:none"
         id="path134" /><path
         d="m 1684.01,835.961 c -3.33,0 -6.46,0.801 -9.25,2.41 -6.52,3.77 -10.11,11.277 -10.11,21.149 l -0.01,1487.85 c 0,18.43 12.51,40.11 28.48,49.33 l 705.18,407.14 5,-8.66 -705.18,-407.14 c -12.73,-7.35 -23.48,-25.97 -23.48,-40.67 l 0.01,-1487.85 c 0,-6.059 1.86,-10.61 5.11,-12.489 3.25,-1.871 8.12,-1.203 13.37,1.821 l 705.42,407.278 5,-8.65 -705.43,-407.281 c -4.88,-2.828 -9.68,-4.238 -14.11,-4.238"
         style="fill:#27b6a1;fill-opacity:1;fill-rule:nonzero;stroke:none"
         id="path136" /><path
         d="m 1684.01,835.961 v 5 c -2.53,0 -4.74,0.578 -6.76,1.738 h 0.01 c -2.35,1.371 -4.15,3.34 -5.49,6.11 -1.33,2.773 -2.12,6.382 -2.12,10.711 l -0.01,1487.85 c -0.02,8.09 2.82,17.4 7.58,25.62 4.74,8.24 11.38,15.35 18.4,19.38 l 700.85,404.64 v 0 l -700.85,-404.64 c -7.4,-4.31 -13.69,-11.39 -18.34,-19.41 -4.62,-8.04 -7.61,-17.03 -7.64,-25.59 l 0.01,-1487.85 c 0,-3.54 0.53,-6.801 1.71,-9.711 1.17,-2.879 3.09,-5.477 5.9,-7.11 v 0 c 2.09,-1.211 4.44,-1.719 6.75,-1.711 3.9,0.012 7.77,1.332 11.61,3.524 l 0.01,0.008 701.1,404.78 2.5,-4.32 4.32,2.5 -2.5,4.33 -705.42,-407.279 -0.01,-0.011 c -4.28,-2.481 -8.25,-3.571 -11.61,-3.559 v -5 -5 c 5.51,0 11.14,1.738 16.62,4.91 l 709.76,409.779 -10.01,17.31 -709.75,-409.78 v 0 c -2.73,-1.578 -5.14,-2.211 -6.62,-2.192 l -1.76,0.371 h 0.01 c -0.44,0.25 -1.08,0.86 -1.65,2.243 -0.56,1.359 -0.97,3.398 -0.96,5.918 l -0.01,1487.85 c -0.03,6.13 2.36,13.81 6.3,20.59 3.9,6.8 9.35,12.7 14.68,15.75 l 709.51,409.63 -10,17.33 -709.51,-409.64 c -8.96,-5.19 -16.55,-13.53 -22.06,-23.04 -5.48,-9.53 -8.9,-20.27 -8.92,-30.62 l 0.01,-1487.85 c 0,-5.54 1,-10.622 3.1,-15.02 2.08,-4.391 5.33,-8.059 9.5,-10.461 h 0.01 c 3.57,-2.07 7.62,-3.09 11.75,-3.078 v 5"
         style="fill:#27b6a1;fill-opacity:1;fill-rule:nonzero;stroke:none"
         id="path138" /><path
         d="m 2403.55,1247.48 -5,8.65 95.64,55.21 c 12.73,7.36 23.49,25.98 23.49,40.67 l -0.01,1487.85 c 0,6.06 -1.87,10.61 -5.11,12.49 -3.23,1.87 -8.12,1.22 -13.38,-1.82 l -95.88,-55.35 -5,8.66 95.88,55.36 c 8.54,4.92 16.85,5.58 23.38,1.81 6.51,-3.76 10.11,-11.28 10.11,-21.15 l 0.01,-1487.85 c 0,-18.43 -12.51,-40.1 -28.49,-49.32 l -95.64,-55.21"
         style="fill:#27b6a1;fill-opacity:1;fill-rule:nonzero;stroke:none"
         id="path140" /><path
         d="m 2403.55,1247.48 4.33,2.5 -2.49,4.32 91.3,52.71 c 7.4,4.31 13.69,11.4 18.35,19.42 4.62,8.04 7.61,17.02 7.64,25.58 l -0.01,1487.85 c -0.01,3.55 -0.53,6.81 -1.71,9.71 -1.18,2.88 -3.1,5.48 -5.9,7.11 -2.09,1.21 -4.45,1.72 -6.76,1.72 -3.89,-0.02 -7.77,-1.33 -11.62,-3.54 l -91.55,-52.85 v 0 l 91.55,52.85 c 4.29,2.48 8.26,3.57 11.62,3.57 2.53,-0.01 4.73,-0.59 6.76,-1.75 l 0.05,-0.03 -0.05,0.03 c 2.34,-1.36 4.14,-3.33 5.48,-6.11 1.33,-2.77 2.13,-6.37 2.13,-10.71 l 0.01,-1487.85 c 0.01,-8.08 -2.82,-17.39 -7.59,-25.61 -4.74,-8.24 -11.38,-15.35 -18.4,-19.38 l -95.63,-55.21 2.49,-4.33 4.33,2.5 -4.33,-2.5 2.5,-4.33 95.64,55.21 c 8.96,5.19 16.55,13.53 22.06,23.04 5.49,9.53 8.91,20.27 8.93,30.61 l -0.01,1487.85 c -0.01,5.54 -1.01,10.63 -3.1,15.02 -2.09,4.39 -5.34,8.06 -9.51,10.46 v 0 c -3.58,2.07 -7.63,3.1 -11.76,3.09 -5.52,0 -11.15,-1.75 -16.62,-4.9 l -100.21,-57.86 10,-17.33 100.21,57.86 c 2.73,1.59 5.14,2.21 6.62,2.2 l 1.75,-0.38 c 0.44,-0.25 1.08,-0.86 1.65,-2.24 0.56,-1.36 0.97,-3.4 0.97,-5.92 l 0.01,-1487.85 c 0.02,-6.13 -2.36,-13.8 -6.3,-20.58 -3.91,-6.81 -9.36,-12.71 -14.69,-15.76 l -99.97,-57.71 10.01,-17.31 4.32,2.5 -2.5,4.33"
         style="fill:#27b6a1;fill-opacity:1;fill-rule:nonzero;stroke:none"
         id="path142" /><path
         d="m 2096.15,2494.11 c 89.74,51.81 162.48,9.81 162.48,-93.81 0,-103.62 -72.74,-229.62 -162.48,-281.43 -89.73,-51.81 -162.48,-9.81 -162.48,93.81 0,103.62 72.75,229.62 162.48,281.43"
         style="fill:#27b6a1;fill-opacity:1;fill-rule:nonzero;stroke:none"
         id="path144" /><path
         d="m 2096.15,2412.56 c 29.11,16.81 52.72,3.18 52.72,-30.43 0,-33.62 -23.61,-74.5 -52.72,-91.31 -29.11,-16.8 -52.71,-3.18 -52.71,30.44 0,33.62 23.6,74.49 52.71,91.3"
         style="fill:#27b6a1;fill-opacity:1;fill-rule:nonzero;stroke:none"
         id="path146" /><path
         d="m 2198.9,2233.31 c 0,55.23 -38.78,77.62 -86.6,50 l -29.91,-17.26 c -47.82,-27.61 -86.6,-94.77 -86.6,-150 v -14.86 c 27.65,-9.18 62.45,-4.21 100.36,17.68 38.99,22.51 74.75,59.04 102.75,101.63 v 12.81"
         style="fill:#27b6a1;fill-opacity:1;fill-rule:nonzero;stroke:none"
         id="path148" /><path
         d="m 2072.61,2283.63 c -17.3,0 -29.17,13.78 -29.17,37.63 0,33.62 23.6,74.49 52.71,91.3 8.46,4.89 16.46,7.2 23.55,7.2 17.29,0 29.17,-13.79 29.17,-37.63 0,-33.62 -23.61,-74.5 -52.72,-91.31 -8.46,-4.88 -16.46,-7.19 -23.54,-7.19"
         style="fill:#9cddd1;fill-opacity:1;fill-rule:nonzero;stroke:none"
         id="path150" /><path
         d="m 2023.88,2096.81 c -9.98,0 -19.39,1.49 -28.09,4.38 v 14.86 c 0,55.23 38.78,122.39 86.6,150 l 29.91,17.26 c 13.89,8.03 27.03,11.83 38.67,11.83 28.41,0 47.93,-22.65 47.93,-61.83 v -12.81 c -28,-42.59 -63.76,-79.12 -102.75,-101.63 -25.98,-15 -50.51,-22.06 -72.27,-22.06"
         style="fill:#9cddd1;fill-opacity:1;fill-rule:nonzero;stroke:none"
         id="path152" /><path
         d="m 1781.77,1890.36 209.08,120.71 c 9.57,5.53 17.32,1.05 17.32,-10 v -6.9 c 0,-11.05 -7.75,-24.48 -17.32,-30 l -209.08,-120.71 c -9.56,-5.53 -17.32,-1.05 -17.32,10 v 6.9 c 0,11.05 7.76,24.48 17.32,30"
         style="fill:#27b6a1;fill-opacity:1;fill-rule:nonzero;stroke:none"
         id="path154" /><path
         d="m 1774.03,1841.09 c -5.68,0 -9.58,4.53 -9.58,12.37 v 6.9 c 0,11.05 7.76,24.48 17.32,30 l 209.08,120.71 c 2.78,1.61 5.41,2.37 7.74,2.37 5.68,0 9.58,-4.53 9.58,-12.37 v -6.9 c 0,-11.05 -7.75,-24.48 -17.32,-30 l -209.08,-120.71 c -2.78,-1.61 -5.41,-2.37 -7.74,-2.37"
         style="fill:#1db29c;fill-opacity:1;fill-rule:nonzero;stroke:none"
         id="path156" /><path
         d="m 1773.11,1744.65 632.6,365.23 c 4.79,2.76 8.66,0.52 8.66,-5 v -73.81 c 0,-5.52 -3.87,-12.24 -8.66,-15 l -632.6,-365.23 c -4.78,-2.76 -8.66,-0.53 -8.66,4.99 v 73.82 c 0,5.52 3.88,12.23 8.66,15"
         style="fill:#27b6a1;fill-opacity:1;fill-rule:nonzero;stroke:none"
         id="path158" /><path
         d="m 1769.24,1649.65 c -2.84,0 -4.79,2.27 -4.79,6.18 v 73.82 c 0,5.52 3.88,12.23 8.66,15 l 632.6,365.23 c 1.39,0.8 2.71,1.18 3.87,1.18 2.85,0 4.79,-2.26 4.79,-6.18 v -73.81 c 0,-5.52 -3.87,-12.24 -8.66,-15 l -4.53,-2.62 c -11.85,15.15 -20.52,25.17 -28.37,25.17 -2.18,0 -4.3,-0.78 -6.41,-2.43 -7.43,-5.84 -2.03,-18.49 10.12,-36.98 l -603.41,-348.37 c -1.39,-0.81 -2.7,-1.19 -3.87,-1.19"
         style="fill:#3cbdab;fill-opacity:1;fill-rule:nonzero;stroke:none"
         id="path160" /><path
         d="m 1781.77,1562.03 209.08,120.71 c 9.57,5.53 17.32,1.05 17.32,-10 v -6.9 c 0,-11.04 -7.75,-24.48 -17.32,-30 l -209.08,-120.71 c -9.56,-5.53 -17.32,-1.05 -17.32,10 v 6.9 c 0,11.05 7.76,24.47 17.32,30"
         style="fill:#27b6a1;fill-opacity:1;fill-rule:nonzero;stroke:none"
         id="path162" /><path
         d="m 1774.03,1512.76 c -5.68,0 -9.58,4.53 -9.58,12.37 v 6.9 c 0,11.05 7.76,24.47 17.32,30 l 209.08,120.71 c 2.78,1.61 5.41,2.37 7.74,2.37 5.68,0 9.58,-4.53 9.58,-12.37 v -6.9 c 0,-11.04 -7.75,-24.48 -17.32,-30 l -209.08,-120.71 c -2.78,-1.61 -5.41,-2.37 -7.74,-2.37"
         style="fill:#1db29c;fill-opacity:1;fill-rule:nonzero;stroke:none"
         id="path164" /><path
         d="m 1773.11,1416.32 632.6,365.23 c 4.79,2.76 8.66,0.53 8.66,-5 v -73.81 c 0,-5.52 -3.87,-12.24 -8.66,-15 l -632.6,-365.23 c -4.78,-2.76 -8.66,-0.53 -8.66,5 v 73.81 c 0,5.52 3.88,12.24 8.66,15"
         style="fill:#27b6a1;fill-opacity:1;fill-rule:nonzero;stroke:none"
         id="path166" /><path
         d="m 1769.24,1321.33 c -2.84,0 -4.79,2.26 -4.79,6.18 v 73.81 c 0,5.52 3.88,12.24 8.66,15 l 632.6,365.23 c 1.39,0.8 2.71,1.18 3.87,1.18 2.84,0 4.79,-2.26 4.79,-6.18 v -73.81 c 0,-5.52 -3.87,-12.24 -8.66,-15 l -632.6,-365.23 c -1.39,-0.8 -2.7,-1.18 -3.87,-1.18"
         style="fill:#3cbdab;fill-opacity:1;fill-rule:nonzero;stroke:none"
         id="path168" /><path
         d="m 2025.5,1374.41 249.7,144.16 c 9.57,5.53 17.32,1.05 17.32,-10 v -77.25 c 0,-11.05 -7.75,-24.48 -17.32,-30 l -249.7,-144.17 c -9.57,-5.52 -17.33,-1.05 -17.33,10 v 77.26 c 0,11.05 7.76,24.48 17.33,30"
         style="fill:#27b6a1;fill-opacity:1;fill-rule:nonzero;stroke:none"
         id="path170" /><path
         d="m 2017.76,1254.79 c -5.68,0 -9.59,4.52 -9.59,12.36 v 77.26 c 0,11.05 7.76,24.48 17.33,30 l 249.7,144.16 c 2.78,1.61 5.4,2.37 7.73,2.37 5.69,0 9.59,-4.53 9.59,-12.37 v -77.25 c 0,-11.05 -7.75,-24.48 -17.32,-30 l -249.7,-144.17 c -2.78,-1.6 -5.41,-2.36 -7.74,-2.36"
         style="fill:#1db29c;fill-opacity:1;fill-rule:nonzero;stroke:none"
         id="path172" /><path
         d="m 2617.48,1700.21 c 0,0 -122.85,169.46 -130.34,189.63 -5.66,15.2 0.39,37.81 1.79,48.32 1.4,10.5 3.43,33.9 5.18,40.41 3.06,11.36 -11.67,9.03 -19.93,-1.3 -8.46,-10.58 -11.17,-31.23 -15.38,-34.63 -4.2,-3.4 -37.03,44.29 -54.16,66.36 -17.12,22.07 -27.83,35.37 -38.24,27.19 -7.5,-5.9 -1.92,-18.75 10.49,-37.55 12.42,-18.79 17.92,-27.5 19.79,-31.53 1.87,-4.04 -8.34,-4.36 -13.85,-12.84 -4.3,-6.62 -0.29,-17.34 -5.98,-22.44 -5.71,-5.12 -11.02,-14.31 -4.77,-24.66 7.96,-13.2 23.93,-32.05 42.29,-44.78 18.37,-12.73 25.82,-17.2 36.65,-34.51 10.84,-17.31 108.72,-194.04 115.29,-204.64 6.56,-10.6 19.32,-32.21 38.63,-32.82 19.32,-0.62 177.28,135.4 185.42,142.18 26.04,21.71 34.25,24.9 38.74,5.34 1.41,-6.12 2.33,-13.1 3.31,-20.98 3.13,-24.76 19.99,-113.38 19.99,-113.38 0,0 79.9,-38.72 145.69,-19.63 65.79,19.08 87.85,46.56 87.85,46.56 l -32.91,53.64 c 8.96,22.14 50.34,111.68 63.33,174.43 l -206,33.26 c -4.23,0.92 -10.98,2.61 -19.6,4.88 -11.31,2.98 -39.74,12.97 -61.67,-6.1 -70.89,-61.66 -211.61,-190.41 -211.61,-190.41"
         style="fill:#f6879b;fill-opacity:1;fill-rule:nonzero;stroke:none"
         id="path174" /><path
         d="m 3025.89,660.832 -36.93,-51.32 c 0,0 17.1,-10.032 53.64,-11.41 33.04,-1.262 42.13,9.589 43.35,12.187 5.57,11.973 -3.13,33.563 -5.52,52.109 l -54.54,-1.566"
         style="fill:#263d46;fill-opacity:1;fill-rule:nonzero;stroke:none"
         id="path176" /><path
         d="m 2991.04,634.148 c 0,0 -44.75,2.852 -75.7,6.75 -30.95,3.903 -55.43,-11.199 -48.14,-23.949 7.27,-12.73 24.29,-23.328 50.81,-32.238 22.72,-7.652 49.95,-13.211 73.67,-20.313 24.31,-7.269 39.87,-15.597 53.64,-10.859 15.35,5.293 21.95,11.422 20.64,22.602 -1.3,11.179 -12.43,47.179 -12.43,47.179 l -62.49,10.828"
         style="fill:#263d46;fill-opacity:1;fill-rule:nonzero;stroke:none"
         id="path178" /><path
         d="m 3085.95,712.391 c 0,0 -5.6,-46.61 -6.03,-56.621 -0.43,-10 -45.49,-13.211 -54.03,5.062 l -1.4,56.988 61.46,-5.429"
         style="fill:#f47084;fill-opacity:1;fill-rule:nonzero;stroke:none"
         id="path180" /><path
         d="M 3040.51,683.711 3056.63,613 c 0,0 1.52,-8.629 -35.32,-14.109 -36.84,-5.5 -94.59,19.257 -104.43,24.289 -9.83,5.039 -11,15.05 25.17,13.05 36.17,-2.011 48.99,-2.082 48.99,-2.082 l -11.74,31.352 61.21,18.211"
         style="fill:#f6879b;fill-opacity:1;fill-rule:nonzero;stroke:none"
         id="path182" /><path
         d="m 3116.36,1858.58 25.46,7.03 c 0,0 53.35,-168.67 59.24,-184.91 5.9,-16.25 12.55,-33.57 1.08,-53.67 -13.67,-23.92 -85.78,-120.23 -85.78,-120.23 l -45.77,44.79 51.92,95.14 -45.93,93.06 39.78,118.79"
         style="fill:#f47084;fill-opacity:1;fill-rule:nonzero;stroke:none"
         id="path184" /><path
         d="m 2854.18,2077.82 c 0,0 -20.42,32.68 1.08,72.7 25.35,47.15 82.01,70.15 149.44,61.33 31.15,-4.08 67.92,-29.65 88.08,-68.7 22.16,-42.88 24.23,-129.31 29.73,-161.99 l -268.33,96.66"
         style="fill:#263d46;fill-opacity:1;fill-rule:nonzero;stroke:none"
         id="path186" /><path
         d="m 2852.65,2059.37 c 0,0 -16.02,-30.51 -13.25,-33.28 2.78,-2.77 13.46,-5.02 13.46,-5.02 l -0.21,38.3"
         style="fill:#f6879b;fill-opacity:1;fill-rule:nonzero;stroke:none"
         id="path188" /><path
         d="m 2901.26,2155.8 c -17.42,-11.36 -47.41,-32.13 -48.73,-100.67 -1.35,-70.36 8.59,-93.04 18.99,-101.19 7.02,-5.5 48.09,-2.72 65.73,1.43 17.63,4.14 68.35,29.19 86.6,67.28 21.46,44.82 17.12,110.44 -14.83,129.48 -44.95,26.82 -93.01,13.28 -107.76,3.67"
         style="fill:#f6879b;fill-opacity:1;fill-rule:nonzero;stroke:none"
         id="path190" /><path
         d="m 3085.94,1630.51 c 30.84,-47.99 60.15,-90.26 66.4,-144.19 13.21,-113.9 -30.12,-244.11 -39.31,-328.33 0,0 29.1,-37.83 29.07,-82.29 -0.02,-34.8 -56.15,-363.309 -56.15,-363.309 0,0 -40.83,-12.442 -61.46,5.429 l -38.58,604.34 20.32,73.57 79.71,234.78"
         style="fill:#27b6a1;fill-opacity:1;fill-rule:nonzero;stroke:none"
         id="path192" /><path
         d="m 3056.49,708.18 c -6.82,0 -13.97,0.8 -20.47,3.101 -4.13,25.141 -10.68,64.75 -17.97,107.367 l -32.14,503.492 16.11,-252.36 2.68,216.43 31.1,94.58 c 59.71,20.76 80.56,58.62 80.56,58.62 v 0 0 c -53.79,-30.06 -110.13,-43.68 -110.13,-43.68 88.25,26.24 117.1,63.93 127.27,117.55 0.78,4.15 1.15,8.31 1.15,12.48 0.01,15.57 -5.04,31.12 -12.1,45.75 14.86,-26.74 26.18,-54.02 29.79,-85.19 1.73,-14.91 2.49,-30.09 2.49,-45.41 -0.04,-101.78 -33.82,-209.72 -41.8,-282.92 v 0 0 c 0,0 29.1,-37.83 29.07,-82.29 -0.02,-34.8 -56.15,-363.309 -56.15,-363.309 0,0 -13.83,-4.211 -29.46,-4.211 m 34.85,913.95 c -1.98,2.96 -3.8,5.76 -5.4,8.38 v 0 c 1.8,-2.81 3.61,-5.6 5.4,-8.38"
         style="fill:#13af96;fill-opacity:1;fill-rule:nonzero;stroke:none"
         id="path194" /><path
         d="m 2985.91,1322.16 20.32,73.57 c 0,0 56.34,13.62 110.13,43.68 0,0 -20.85,-37.86 -80.56,-58.62 l -31.1,-94.58 -2.68,-216.43 -16.11,252.38"
         style="fill:#27b6a1;fill-opacity:1;fill-rule:nonzero;stroke:none"
         id="path196" /><path
         d="m 3002.02,1069.78 -16.11,252.36 20.32,73.59 v 0 c 0,0 56.34,13.62 110.13,43.68 0,0 -20.85,-37.86 -80.56,-58.62 l -31.1,-94.58 -2.68,-216.43"
         style="fill:#09a189;fill-opacity:1;fill-rule:nonzero;stroke:none"
         id="path198" /><path
         d="m 3085.94,1630.51 c 16.5,-26.93 55.93,-72.98 47.56,-117.23 -10.17,-53.62 -39.02,-91.31 -127.27,-117.55 l -82.77,-299.75 c 0,0 43.1,-40.34 56.28,-78.7 13.16,-38.358 60.77,-333.569 60.77,-333.569 0,0 -14.72,-24.031 -61.21,-18.211 0,0 -162.1,370.24 -173.56,394.08 -11.44,23.84 -18.87,41.66 -13.72,80.49 5.16,38.82 60.38,463.51 60.38,463.51 l 233.54,26.93"
         style="fill:#27b6a1;fill-opacity:1;fill-rule:nonzero;stroke:none"
         id="path200" /><path
         d="m 2993.27,664.59 c -4.3,0 -8.95,0.281 -13.97,0.91 0,0 -162.1,370.24 -173.56,394.08 -8.92,18.58 -15.39,33.5 -15.38,57.56 0,6.81 0.53,14.36 1.66,22.93 5.16,38.82 60.38,463.51 60.38,463.51 v 0 c 0,0 51.44,-24.92 105.74,-24.92 13.39,0 26.94,1.51 39.95,5.29 65.79,19.08 87.85,46.56 87.85,46.56 v 0 0 c 14.95,-24.4 48.74,-64.51 48.71,-104.75 0,-4.17 -0.37,-8.33 -1.15,-12.48 -10.17,-53.62 -39.02,-91.31 -127.27,-117.55 v 0 l -20.32,-73.59 -62.45,-226.16 v 0 c 0,0 43.1,-40.34 56.28,-78.7 13.16,-38.358 60.77,-333.569 60.77,-333.569 0,0 -11.71,-19.121 -47.24,-19.121"
         style="fill:#13af96;fill-opacity:1;fill-rule:nonzero;stroke:none"
         id="path202" /><path
         d="m 3116.36,1858.58 -206,33.26 c -4.22,0.92 -11.02,2.63 -19.63,4.89 l -0.02,0.01 c 0,0 -8.78,-129.16 -61.61,-158.8 h -0.01 c 1.25,-6.16 2.34,-13.09 3.32,-20.98 3.13,-24.76 19.99,-113.38 19.99,-113.38 0,0 79.9,-38.72 145.69,-19.63 65.79,19.08 87.85,46.56 87.85,46.56 l -32.91,53.64 c 8.96,22.14 50.34,111.68 63.33,174.43"
         style="fill:#27b6a1;fill-opacity:1;fill-rule:nonzero;stroke:none"
         id="path204" /><path
         d="m 3076.58,1739.79 v 0 c 14.86,36.19 32.18,82.08 39.78,118.79 v 0 c -7.6,-36.71 -24.92,-82.6 -39.78,-118.79"
         style="fill:#fbcad2;fill-opacity:1;fill-rule:nonzero;stroke:none"
         id="path206" /><path
         d="m 2958.14,1578.66 c -54.3,0 -105.74,24.92 -105.74,24.92 0,0 -16.86,88.62 -19.99,113.38 -0.98,7.89 -2.07,14.82 -3.32,20.98 h 0.01 c 52.83,29.64 61.61,158.8 61.61,158.8 l 0.02,-0.01 c 8.61,-2.26 15.41,-3.97 19.63,-4.89 l 206,-33.26 c -7.6,-36.71 -24.92,-82.6 -39.78,-118.79 -10.53,-25.67 -19.83,-46.45 -23.55,-55.64 v 0 0 l 32.91,-53.64 c 0,0 -22.06,-27.48 -87.85,-46.56 -13.01,-3.78 -26.56,-5.29 -39.95,-5.29"
         style="fill:#9cddd1;fill-opacity:1;fill-rule:nonzero;stroke:none"
         id="path208" /><path
         d="m 3062.01,1705.24 c -0.84,-1.94 -66.22,-36.97 -85.64,-42.33 30.62,1.51 56.07,8.71 76.66,21.24 l 8.98,21.09"
         style="fill:#27b6a1;fill-opacity:1;fill-rule:nonzero;stroke:none"
         id="path210" /><path
         d="m 2896.12,2152.34 c 0,0 -9.6,-65.03 13.66,-103.17 0,0 8.73,25.89 30.72,20.94 22.14,-4.98 23.06,-33.73 7.69,-50.03 -15.38,-16.3 -32.49,-10.41 -32.49,-10.41 0,0 -3.45,-47 -5.31,-86.4 -1.79,-37.98 -12.38,-125.29 31.96,-160.39 44.35,-35.11 155.49,-46.96 207.58,25.86 28.99,40.51 -9.52,112.12 -27.42,192.42 -16.47,73.83 -25.73,183.24 -104.07,200.79 -78.33,17.55 -122.32,-29.61 -122.32,-29.61"
         style="fill:#263d46;fill-opacity:1;fill-rule:nonzero;stroke:none"
         id="path212" /><path
         d="m 3183.49,3040.5 -16.52,-9.54 c 1.32,6.08 2.26,12.11 2.26,17.92 0,33.46 -23.49,47.01 -52.46,30.28 -8.43,-4.86 -16.27,-11.89 -23.33,-20.04 l 0.01,0.24 c 0,45.04 -31.61,63.3 -70.62,40.78 -39,-22.52 -70.62,-77.28 -70.62,-122.32 0,-2.3 0.13,-4.47 0.3,-6.62 -8.25,1.47 -18.1,-0.56 -28.69,-6.67 -28.98,-16.73 -52.46,-57.4 -52.46,-90.86 0,-4.61 0.49,-8.79 1.33,-12.62 l -8.8,-5.07 c -23.92,-13.81 -43.3,-40.75 -43.3,-60.18 0,-19.43 19.38,-23.98 43.3,-10.18 l 319.6,184.52 c 23.91,13.81 43.3,40.75 43.3,60.18 0,19.43 -19.39,23.99 -43.3,10.18"
         style="fill:#e7e7e5;fill-opacity:1;fill-rule:nonzero;stroke:none"
         id="path214" /></g></g></svg>
